<svg fill="#9F9F9F" viewBox="0 0 100 26" xmlns="http://www.w3.org/2000/svg"><path d="M91.387 16.268h-5.538l-.68 1.544h6.857l-.64-1.544Z"/><path d="M79.007 25.48h-1.77L87.766.6h1.663L100 25.533h-1.797L88.698 3.13h-.173l-9.518 22.35Zm-13.232-7.907H63.79l5.884 7.907h1.983l-5.883-7.907ZM4.593 13.166h11.155v1.624H4.593v-1.624Zm0-12.673H17.97v1.624H4.593V.493ZM0 .493h1.677v25H0v-25Zm53.368 0h1.677v25h-1.677v-25Z"/><path fill-rule="evenodd" d="M33.16.19C27.064.862 22.31 6.34 22.31 13c0 6.659 4.754 12.138 10.85 12.81v-1.932c-4.953-.666-8.932-5.188-8.932-10.878S28.206 2.788 33.16 2.122V.19Zm2.57 23.682c4.934-.684 8.892-5.198 8.892-10.872 0-5.674-3.958-10.188-8.893-10.873V.194C41.806.886 46.54 6.355 46.54 13s-4.733 12.114-10.81 12.806v-1.934ZM59.478 2.41h4.686a5.112 5.112 0 0 1 5.112 5.112v.32a5.112 5.112 0 0 1-5.112 5.111h-6.602v1.917h6.602a7.029 7.029 0 0 0 7.03-7.028v-.32a7.029 7.029 0 0 0-7.03-7.029h-6.602v1.919h1.916V2.41Z" clip-rule="evenodd"/></svg>