<svg width="300" height="300" xmlns="http://www.w3.org/2000/svg"><g clip-path="url(#a)" fill="#9F9F9F"><path d="M274.161 159.804h-16.614l-2.04 4.632h20.571l-1.917-4.632Z"/><path d="M237.021 187.44h-5.31l31.587-74.64h4.989L300 187.599h-5.391l-28.515-67.209h-.519l-28.554 67.05Zm-39.696-23.721h-5.955l17.652 23.721h5.949l-17.646-23.721ZM13.779 150.498h33.465v4.872H13.779v-4.872Zm0-38.019H53.91v4.872H13.779v-4.872Zm-13.779 0h5.031v75H0v-75Zm160.104 0h5.031v75h-5.031v-75Z"/><path fill-rule="evenodd" clip-rule="evenodd" d="M99.48 111.57c-18.288 2.016-32.55 18.45-32.55 38.43 0 19.977 14.262 36.414 32.55 38.43v-5.796C84.621 180.636 72.684 167.07 72.684 150s11.934-30.636 26.796-32.634v-5.796Zm7.71 71.046c14.802-2.052 26.676-15.594 26.676-32.616s-11.874-30.564-26.679-32.619v-5.799c18.231 2.076 32.433 18.483 32.433 38.418s-14.199 36.342-32.43 38.418v-5.802Zm71.244-64.386h14.058a15.337 15.337 0 0 1 15.336 15.336v.96a15.335 15.335 0 0 1-15.336 15.333h-19.806v5.751h19.806a21.104 21.104 0 0 0 14.912-6.174 21.088 21.088 0 0 0 6.178-14.91v-.96a21.101 21.101 0 0 0-6.177-14.912 21.11 21.11 0 0 0-6.842-4.571 21.11 21.11 0 0 0-8.071-1.604h-19.806v5.757h5.748v-.006Z"/></g><defs><clipPath id="a"><path fill="#fff" transform="translate(0 111)" d="M0 0h300v78H0z"/></clipPath></defs></svg>