<svg width="300" height="300" xmlns="http://www.w3.org/2000/svg"><path d="m27.797 116.498-6.674 23.26c2.032-2.212 3.73-3.678 5.092-4.398a9.102 9.102 0 0 1 4.436-1.118c3.086 0 5.388 1.118 6.905 3.356 1.543 2.211 2.315 4.77 2.315 7.676 0 6.943-2.52 13.141-7.56 18.593-4.476 4.809-9.567 7.213-15.276 7.213-4.244 0-8.731-1.247-13.463-3.742l11.804-40.927c.566-1.929.849-3.253.849-3.973 0-.617-.258-1.106-.772-1.466-.72-.514-1.813-.733-3.279-.656l.425-1.543 12.883-2.275h2.315Zm-14.813 51.226c1.209.772 2.302 1.157 3.28 1.157 1.362 0 2.506-.27 3.432-.81 1.466-.874 2.996-2.456 4.59-4.744 1.62-2.289 2.97-5.054 4.05-8.294 1.081-3.24 1.621-6.467 1.621-9.682 0-1.826-.411-3.214-1.234-4.166-.823-.951-1.775-1.427-2.855-1.427-1.8 0-3.369.874-4.706 2.623-.9 1.131-1.877 3.536-2.931 7.213l-5.247 18.13Zm41.7-12.189c-.232 1.671-.348 3.047-.348 4.127 0 1.929.553 3.472 1.659 4.629 1.131 1.157 2.636 1.736 4.513 1.736 1.8 0 3.6-.437 5.4-1.312 1.826-.874 3.935-2.404 6.326-4.59l1.158 1.042c-2.958 3.574-5.838 6.12-8.641 7.637-2.803 1.517-5.902 2.276-9.296 2.276-4.295 0-7.265-1.029-8.911-3.086s-2.469-4.436-2.469-7.136c0-4.218 1.222-8.435 3.665-12.652 2.468-4.218 5.812-7.6 10.029-10.145 4.243-2.546 8.5-3.819 12.768-3.819 2.16 0 3.793.514 4.899 1.543 1.106 1.028 1.659 2.327 1.659 3.896 0 1.877-.54 3.703-1.62 5.477-1.492 2.418-3.37 4.372-5.632 5.863-2.263 1.466-4.796 2.585-7.6 3.356-1.877.515-4.397.901-7.56 1.158Zm.346-2.006c2.263-.335 4.012-.785 5.246-1.35 1.26-.592 2.482-1.518 3.665-2.778 1.209-1.285 2.25-2.893 3.124-4.821.875-1.955 1.312-3.781 1.312-5.478 0-.72-.206-1.286-.617-1.697-.386-.412-.887-.617-1.505-.617-1.234 0-2.623.861-4.166 2.584-2.828 3.137-5.181 7.856-7.059 14.157Zm45.055-28.699-3.086 10.492h5.053l-1.35 4.436h-4.976l-6.442 22.373c-.411 1.389-.617 2.443-.617 3.163 0 .334.116.63.347.887.232.232.489.347.772.347.437 0 .887-.18 1.35-.54 1.183-.9 2.559-2.468 4.127-4.706l1.35.849c-1.774 3.086-3.729 5.349-5.863 6.789-2.134 1.44-4.23 2.16-6.288 2.16-1.748 0-3.111-.437-4.088-1.311-.952-.901-1.428-2.032-1.428-3.395 0-1.492.335-3.407 1.003-5.748l6.095-20.868h-5.246l.771-2.855c3.292-1.208 6.07-2.623 8.332-4.243 2.263-1.62 4.99-4.23 8.178-7.83h2.006Zm37.186 9.952-7.484 25.652-.771 3.124c-.078.386-.116.669-.116.849 0 .308.103.578.308.81.232.231.463.347.695.347.54 0 1.286-.411 2.237-1.234.386-.335 1.312-1.518 2.777-3.549l1.351.694c-1.826 3.343-3.781 5.786-5.864 7.329-2.057 1.517-4.281 2.276-6.673 2.276-1.466 0-2.585-.373-3.356-1.119-.771-.771-1.157-1.735-1.157-2.893 0-1.003.411-2.867 1.234-5.593l.926-3.124c-2.983 5.117-5.85 8.743-8.602 10.878-1.595 1.234-3.292 1.851-5.092 1.851-2.366 0-4.076-.964-5.13-2.893-1.055-1.954-1.582-4.153-1.582-6.596 0-3.626 1.106-7.779 3.318-12.46 2.211-4.706 5.117-8.486 8.717-11.34 2.958-2.366 5.735-3.549 8.332-3.549 1.44 0 2.598.424 3.472 1.273.874.823 1.517 2.34 1.929 4.551l1.388-4.744 9.143-.54Zm-12.344 7.329c0-2.083-.322-3.588-.965-4.513-.462-.643-1.093-.965-1.89-.965-.797 0-1.62.386-2.468 1.158-1.723 1.594-3.588 4.834-5.594 9.72-1.98 4.861-2.97 9.065-2.97 12.614 0 1.363.219 2.353.656 2.97.463.592.964.887 1.504.887 1.157 0 2.328-.668 3.51-2.005 1.698-1.903 3.228-4.231 4.591-6.982 2.417-4.835 3.626-9.13 3.626-12.884Zm39.963-25.613-10.03 34.755c3.472-5.118 5.992-8.576 7.561-10.377 2.34-2.597 4.346-4.346 6.017-5.246 1.698-.925 3.318-1.388 4.861-1.388 1.311 0 2.43.501 3.356 1.504.951.977 1.427 2.289 1.427 3.935 0 1.388-.309 3.124-.926 5.207l-4.899 16.433c-.437 1.44-.655 2.404-.655 2.893 0 .231.09.45.27.656.18.18.385.27.617.27.308 0 .617-.129.926-.386.822-.643 1.697-1.672 2.623-3.086.231-.36.604-.9 1.118-1.62l1.505.848c-2.212 3.652-4.308 6.16-6.288 7.522-1.98 1.363-3.857 2.045-5.632 2.045-1.594 0-2.841-.412-3.741-1.234-.901-.823-1.351-1.852-1.351-3.086 0-1.132.309-2.739.926-4.822l4.783-16.433c.309-1.131.463-1.954.463-2.469a.946.946 0 0 0-.347-.732c-.206-.232-.45-.348-.733-.348-.926 0-2.199.772-3.819 2.315-3.343 3.163-6.686 8.126-10.029 14.889L149.46 170h-9.566l12.652-43.589c.514-1.851.771-3.176.771-3.973 0-.643-.257-1.144-.771-1.504-.669-.489-1.697-.695-3.086-.618l.27-1.543 12.845-2.275h2.315Zm55.855 18.284-7.483 25.652-.772 3.124c-.077.386-.115.669-.115.849 0 .308.102.578.308.81.232.231.463.347.694.347.54 0 1.286-.411 2.238-1.234.385-.335 1.311-1.518 2.777-3.549l1.35.694c-1.826 3.343-3.78 5.786-5.863 7.329-2.057 1.517-4.282 2.276-6.673 2.276-1.466 0-2.585-.373-3.356-1.119-.772-.771-1.158-1.735-1.158-2.893 0-1.003.412-2.867 1.235-5.593l.926-3.124c-2.984 5.117-5.851 8.743-8.603 10.878-1.594 1.234-3.291 1.851-5.091 1.851-2.366 0-4.076-.964-5.131-2.893-1.054-1.954-1.581-4.153-1.581-6.596 0-3.626 1.106-7.779 3.317-12.46 2.212-4.706 5.118-8.486 8.718-11.34 2.957-2.366 5.735-3.549 8.332-3.549 1.44 0 2.597.424 3.472 1.273.874.823 1.517 2.34 1.928 4.551l1.389-4.744 9.142-.54Zm-12.344 7.329c0-2.083-.321-3.588-.964-4.513-.463-.643-1.093-.965-1.89-.965-.797 0-1.62.386-2.469 1.158-1.723 1.594-3.587 4.834-5.593 9.72-1.98 4.861-2.97 9.065-2.97 12.614 0 1.363.218 2.353.655 2.97.463.592.965.887 1.505.887 1.157 0 2.327-.668 3.51-2.005 1.697-1.903 3.227-4.231 4.59-6.982 2.418-4.835 3.626-9.13 3.626-12.884Zm34.987-7.869-7.483 26.23c-.36 1.209-.54 2.045-.54 2.507 0 .232.09.412.27.541.205.205.45.308.733.308 1.183 0 2.764-1.054 4.744-3.163 2.829-3.06 5.799-7.458 8.911-13.192l3.51-11.804 9.759-.347-7.406 25.459c-.617 2.16-.926 3.394-.926 3.703 0 .206.09.424.27.656.206.205.412.308.618.308.36 0 .707-.154 1.041-.463.926-.745 2.147-2.25 3.665-4.513l1.311.926c-3.574 6.455-7.509 9.682-11.803 9.682-1.595 0-2.855-.399-3.781-1.196-.9-.823-1.35-1.89-1.35-3.201 0-1.389.322-3.151.965-5.285l1.89-6.519c-3.343 4.86-5.774 8.139-7.291 9.836-2.314 2.546-4.269 4.243-5.863 5.092-1.569.849-3.073 1.273-4.513 1.273-1.363 0-2.546-.501-3.549-1.504-.977-1.003-1.466-2.276-1.466-3.819 0-1.312.321-3.073.964-5.285l4.359-15.43c.72-2.52 1.08-4.217 1.08-5.091 0-.386-.103-.72-.308-1.003-.206-.309-.553-.54-1.042-.695-.463-.18-1.337-.27-2.623-.27l.386-1.465 13.154-2.276h2.314Zm52.384 0-1.697 11.919h-1.428c-.205-3.086-1.157-5.516-2.854-7.29-1.672-1.775-3.472-2.662-5.4-2.662-1.183 0-2.161.347-2.932 1.041-.772.695-1.157 1.531-1.157 2.508 0 .823.167 1.594.501 2.314.334.72 1.08 1.698 2.237 2.932 4.064 4.372 6.532 7.38 7.407 9.026a11.103 11.103 0 0 1 1.311 5.285c0 2.032-.514 3.96-1.543 5.786-1.028 1.8-2.571 3.253-4.629 4.359-2.031 1.08-4.153 1.62-6.364 1.62-1.492 0-3.331-.296-5.516-.887-1.441-.412-2.521-.617-3.241-.617-.643 0-1.144.103-1.504.308-.36.18-.759.579-1.196 1.196h-1.427l1.89-12.845h1.234c.9 3.112 1.736 5.336 2.508 6.673a9.294 9.294 0 0 0 3.163 3.163c1.311.772 2.571 1.158 3.78 1.158 1.414 0 2.585-.438 3.51-1.312.926-.9 1.389-1.967 1.389-3.202 0-1.208-.309-2.378-.926-3.51-.591-1.131-1.98-2.893-4.166-5.285-3.009-3.266-4.989-5.786-5.94-7.56-.669-1.286-1.003-2.752-1.003-4.398 0-2.777 1.003-5.091 3.009-6.943 2.031-1.852 4.873-2.777 8.524-2.777 1.595 0 3.549.283 5.864.848 1.157.283 2.083.425 2.777.425 1.003 0 1.813-.425 2.43-1.273h1.389Z" fill="#9F9F9F"/></svg>