<svg width="300" height="300" fill="none" xmlns="http://www.w3.org/2000/svg"><g clip-path="url(#a)"><path fill-rule="evenodd" clip-rule="evenodd" d="M66.67 145.858c0 1.638-.506 2.911-1.516 3.818-1.01.91-2.445 1.364-4.302 1.364a8.024 8.024 0 0 1-1.959-.221 6.81 6.81 0 0 1-1.578-.602 6.237 6.237 0 0 1-1.27-.908 7.305 7.305 0 0 1-1.01-1.167l2.81-2.26c.444.624.907 1.083 1.392 1.375.484.296 1.04.44 1.665.44.756 0 1.277-.16 1.566-.49.286-.325.43-.726.43-1.201 0-.327-.078-.609-.234-.848a2.22 2.22 0 0 0-.64-.626 4.56 4.56 0 0 0-.95-.466 14.293 14.293 0 0 0-1.183-.369c-.79-.246-1.462-.524-2.021-.835-.559-.31-1.015-.662-1.369-1.055a3.714 3.714 0 0 1-.776-1.35 5.603 5.603 0 0 1-.247-1.72c0-.739.132-1.412.395-2.028a4.757 4.757 0 0 1 1.11-1.595 4.957 4.957 0 0 1 1.713-1.043c.666-.245 1.4-.368 2.206-.368 1.297 0 2.362.201 3.193.602.829.401 1.532.994 2.106 1.78l-2.562 2.405c-.823-.963-1.735-1.447-2.737-1.447-.526 0-.958.139-1.294.417-.338.278-.506.647-.506 1.105 0 .245.082.467.247.663.164.197.386.376.665.54.277.163.608.319.985.466.378.149.782.287 1.209.419.854.262 1.568.561 2.146.896.574.335 1.033.72 1.38 1.154.345.433.586.912.727 1.435.14.526.21 1.098.21 1.72ZM74.534 137.067v13.85h-3.55v-13.85h-3.673v-3.241h10.897v3.241h-3.674ZM96.252 146.817c-.246 1.324-.855 2.365-1.824 3.118-.971.752-2.154 1.13-3.55 1.13-.986 0-1.829-.156-2.527-.468-.698-.31-1.266-.731-1.702-1.264a5.206 5.206 0 0 1-.961-1.854 7.922 7.922 0 0 1-.309-2.211v-6.089c0-.639.101-1.281.297-1.928a5.016 5.016 0 0 1 .95-1.755c.435-.525 1.002-.955 1.7-1.29.699-.335 1.55-.502 2.551-.502.791 0 1.496.118 2.122.355a5.138 5.138 0 0 1 1.601.945 4.98 4.98 0 0 1 1.084 1.363c.28.515.478 1.052.592 1.608l-3.377 1.008a4.936 4.936 0 0 0-.16-.578 1.709 1.709 0 0 0-.357-.601 2.254 2.254 0 0 0-.616-.467 1.87 1.87 0 0 0-.889-.197c-.36 0-.665.061-.911.186a1.671 1.671 0 0 0-.592.466 1.817 1.817 0 0 0-.32.613 2.195 2.195 0 0 0-.1.627v6.335c0 .656.145 1.194.432 1.621.287.425.785.637 1.491.637.494 0 .929-.159 1.307-.477.378-.32.601-.758.666-1.314l3.402.983ZM105.497 150.917v-7.023h-3.896v7.023h-3.574v-17.091h3.574v6.827h3.896v-6.827h3.524v17.091h-3.524ZM119.449 138.885c0-.656-.185-1.122-.555-1.401-.37-.278-.842-.417-1.418-.417h-2.022v3.855h1.923c.576 0 1.065-.151 1.468-.454.403-.303.604-.831.604-1.583Zm-.184 12.032-2.302-6.752h-1.509v6.752h-3.574v-17.091h5.683c.725 0 1.413.098 2.062.295.652.196 1.22.499 1.706.907.487.411.868.931 1.149 1.559.28.632.42 1.389.42 2.273 0 1.097-.215 2.038-.643 2.824a4.528 4.528 0 0 1-1.881 1.842l2.771 7.391h-3.882Z" fill="#9F9F9F"/><mask id="b" style="mask-type:luminance" maskUnits="userSpaceOnUse" x="0" y="130" width="299" height="41"><path d="M0 170.254h298.926v-40.251H0v40.251Z" fill="#8C8C8C"/></mask><g mask="url(#b)"><path fill-rule="evenodd" clip-rule="evenodd" d="M125.316 150.918h3.575v-17.093h-3.575v17.093Z" fill="#9F9F9F"/></g><mask id="c" style="mask-type:luminance" maskUnits="userSpaceOnUse" x="0" y="130" width="299" height="41"><path d="M0 170.254h298.926v-40.251H0v40.251Z" fill="#8C8C8C"/></mask><g mask="url(#c)"><path fill-rule="evenodd" clip-rule="evenodd" d="M142.62 145.858c0 1.638-.504 2.911-1.515 3.818-1.01.91-2.444 1.364-4.301 1.364a8.024 8.024 0 0 1-1.96-.221 6.776 6.776 0 0 1-1.578-.602 6.16 6.16 0 0 1-1.27-.908 7.21 7.21 0 0 1-1.01-1.167l2.81-2.26c.444.624.907 1.083 1.393 1.375.483.296 1.039.44 1.664.44.756 0 1.278-.16 1.564-.49.289-.325.433-.726.433-1.201 0-.327-.079-.609-.234-.848a2.233 2.233 0 0 0-.642-.626 4.462 4.462 0 0 0-.949-.466 14.255 14.255 0 0 0-1.183-.369c-.788-.246-1.462-.524-2.021-.835-.559-.31-1.015-.662-1.368-1.055a3.731 3.731 0 0 1-.778-1.35c-.164-.508-.245-1.081-.245-1.72 0-.739.13-1.412.394-2.028a4.737 4.737 0 0 1 1.109-1.595 4.963 4.963 0 0 1 1.713-1.043c.666-.245 1.402-.368 2.207-.368 1.297 0 2.363.201 3.193.602.83.401 1.531.994 2.106 1.78l-2.563 2.405c-.822-.963-1.733-1.447-2.736-1.447-.527 0-.958.139-1.294.417-.337.278-.505.647-.505 1.105 0 .245.082.467.246.663.164.197.385.376.665.54.279.163.608.319.986.466.378.149.78.287 1.208.419.854.262 1.57.561 2.146.896.574.335 1.033.72 1.379 1.154.346.433.588.912.729 1.435.138.526.207 1.098.207 1.72Z" fill="#9F9F9F"/></g><mask id="d" style="mask-type:luminance" maskUnits="userSpaceOnUse" x="0" y="130" width="299" height="41"><path d="M0 170.254h298.926v-40.251H0v40.251Z" fill="#8C8C8C"/></mask><g mask="url(#d)"><path fill-rule="evenodd" clip-rule="evenodd" d="M150.484 137.067v13.85h-3.549v-13.85h-3.673v-3.241h10.895v3.241h-3.673Z" fill="#9F9F9F"/></g><mask id="e" style="mask-type:luminance" maskUnits="userSpaceOnUse" x="0" y="130" width="299" height="41"><path d="M0 170.254h298.926v-40.251H0v40.251Z" fill="#8C8C8C"/></mask><g mask="url(#e)"><path fill-rule="evenodd" clip-rule="evenodd" d="M162.736 139.032a2.11 2.11 0 0 0-.088-.565 1.769 1.769 0 0 0-.306-.614 1.93 1.93 0 0 0-.579-.504c-.24-.138-.54-.209-.899-.209-.364 0-.668.061-.913.186a1.816 1.816 0 0 0-.605.466 1.97 1.97 0 0 0-.455 1.24v6.335c0 .656.15 1.194.455 1.62.305.426.81.638 1.518.638a1.91 1.91 0 0 0 1.317-.49c.37-.327.555-.778.555-1.351v-6.752Zm3.599 6.507c0 .851-.135 1.617-.406 2.296a5.09 5.09 0 0 1-1.133 1.744 4.907 4.907 0 0 1-1.726 1.104 6.151 6.151 0 0 1-2.206.382c-.986 0-1.83-.157-2.527-.468-.7-.31-1.272-.731-1.713-1.264a5.047 5.047 0 0 1-.975-1.854 7.827 7.827 0 0 1-.307-2.211v-6.089c0-.639.096-1.281.296-1.928a4.887 4.887 0 0 1 .959-1.755c.445-.525 1.016-.955 1.714-1.29.699-.334 1.549-.503 2.553-.503.937 0 1.749.159 2.441.479a4.96 4.96 0 0 1 1.699 1.252 5.245 5.245 0 0 1 1 1.757c.221.653.331 1.318.331 1.988v6.36Z" fill="#9F9F9F"/></g><mask id="f" style="mask-type:luminance" maskUnits="userSpaceOnUse" x="0" y="130" width="299" height="41"><path d="M0 170.254h298.926v-40.251H0v40.251Z" fill="#8C8C8C"/></mask><g mask="url(#f)"><path fill-rule="evenodd" clip-rule="evenodd" d="M176.271 139.179c0-.737-.181-1.265-.543-1.583-.363-.321-.855-.48-1.48-.48h-1.873v4.249h1.899c.524 0 .989-.164 1.391-.491.403-.329.606-.893.606-1.695Zm3.5.049c0 .817-.123 1.564-.37 2.235a4.86 4.86 0 0 1-1.059 1.72 4.815 4.815 0 0 1-1.677 1.104c-.658.262-1.398.393-2.218.393h-2.072v6.238H168.8v-17.091h5.448c.806 0 1.55.105 2.232.318a4.603 4.603 0 0 1 1.749.982c.487.442.863 1.002 1.136 1.682.27.679.406 1.486.406 2.419Z" fill="#9F9F9F"/></g><mask id="g" style="mask-type:luminance" maskUnits="userSpaceOnUse" x="0" y="130" width="299" height="41"><path d="M0 170.254h298.926v-40.251H0v40.251Z" fill="#8C8C8C"/></mask><g mask="url(#g)"><path fill-rule="evenodd" clip-rule="evenodd" d="M188.89 150.917v-7.023h-3.895v7.023h-3.573v-17.091h3.573v6.827h3.895v-6.827h3.527v17.091h-3.527Z" fill="#9F9F9F"/></g><mask id="h" style="mask-type:luminance" maskUnits="userSpaceOnUse" x="0" y="130" width="299" height="41"><path d="M0 170.254h298.926v-40.251H0v40.251Z" fill="#8C8C8C"/></mask><g mask="url(#h)"><path fill-rule="evenodd" clip-rule="evenodd" d="M195.275 150.917v-17.091h9.987v3.291h-6.411v3.536h5.521v3.265h-5.521v3.634h6.411v3.365h-9.987Z" fill="#9F9F9F"/></g><mask id="i" style="mask-type:luminance" maskUnits="userSpaceOnUse" x="0" y="130" width="299" height="41"><path d="M0 170.254h298.926v-40.251H0v40.251Z" fill="#8C8C8C"/></mask><g mask="url(#i)"><path fill-rule="evenodd" clip-rule="evenodd" d="M214.777 138.885c0-.656-.186-1.122-.555-1.401-.371-.278-.842-.417-1.419-.417h-2.021v3.855h1.923c.576 0 1.064-.151 1.468-.454.403-.303.604-.831.604-1.583Zm-.186 12.032-2.3-6.752h-1.509v6.752h-3.574v-17.091h5.684c.724 0 1.41.098 2.062.295a4.75 4.75 0 0 1 1.704.907c.488.411.869.931 1.15 1.559.279.632.419 1.389.419 2.273 0 1.097-.215 2.038-.644 2.824a4.517 4.517 0 0 1-1.879 1.842l2.769 7.391h-3.882Z" fill="#9F9F9F"/></g><mask id="j" style="mask-type:luminance" maskUnits="userSpaceOnUse" x="0" y="130" width="299" height="41"><path d="M0 170.254h298.926v-40.251H0v40.251Z" fill="#8C8C8C"/></mask><g mask="url(#j)"><path fill-rule="evenodd" clip-rule="evenodd" d="m220.618 140.849.888-3.659h-.815v-3.954h3.773v3.807l-1.996 3.806h-1.85Z" fill="#9F9F9F"/></g><mask id="k" style="mask-type:luminance" maskUnits="userSpaceOnUse" x="0" y="130" width="299" height="41"><path d="M0 170.254h298.926v-40.251H0v40.251Z" fill="#8C8C8C"/></mask><g mask="url(#k)"><path fill-rule="evenodd" clip-rule="evenodd" d="M238.515 145.858c0 1.638-.506 2.911-1.518 3.818-1.009.91-2.442 1.364-4.301 1.364a8.021 8.021 0 0 1-1.959-.221 6.76 6.76 0 0 1-1.576-.602 6.147 6.147 0 0 1-1.272-.908 7.31 7.31 0 0 1-1.01-1.167l2.81-2.26c.445.624.909 1.083 1.394 1.375.483.296 1.039.44 1.664.44.756 0 1.277-.16 1.564-.49.287-.325.432-.726.432-1.201 0-.327-.077-.609-.234-.848a2.246 2.246 0 0 0-.639-.626 4.543 4.543 0 0 0-.95-.466 14.192 14.192 0 0 0-1.185-.369c-.787-.246-1.462-.524-2.02-.835-.559-.31-1.016-.662-1.369-1.055a3.698 3.698 0 0 1-.776-1.35 5.583 5.583 0 0 1-.248-1.72c0-.739.131-1.412.395-2.028a4.737 4.737 0 0 1 1.109-1.595 4.967 4.967 0 0 1 1.714-1.043c.666-.245 1.401-.368 2.207-.368 1.295 0 2.364.201 3.192.602.83.401 1.532.994 2.108 1.78l-2.564 2.405c-.823-.963-1.735-1.447-2.736-1.447-.527 0-.958.139-1.295.417-.336.278-.504.647-.504 1.105 0 .245.082.467.246.663.164.197.385.376.665.54.279.163.607.319.984.466.38.149.782.287 1.21.419.854.262 1.57.561 2.144.896.576.335 1.036.72 1.382 1.154.345.433.586.912.726 1.435.141.526.21 1.098.21 1.72Z" fill="#9F9F9F"/></g><mask id="l" style="mask-type:luminance" maskUnits="userSpaceOnUse" x="0" y="130" width="299" height="41"><path d="M0 170.254h298.926v-40.251H0v40.251Z" fill="#8C8C8C"/></mask><g mask="url(#l)"><path fill-rule="evenodd" clip-rule="evenodd" d="M246.526 150.918h3.574v-17.093h-3.574v17.093Z" fill="#9F9F9F"/></g><mask id="m" style="mask-type:luminance" maskUnits="userSpaceOnUse" x="0" y="130" width="299" height="41"><path d="M0 170.254h298.926v-40.251H0v40.251Z" fill="#8C8C8C"/></mask><g mask="url(#m)"><path fill-rule="evenodd" clip-rule="evenodd" d="m261.587 150.917-3.178-5.698-1.874-3.609-.075.024v9.283h-3.573v-17.091h3.154l2.811 5.107 2.243 4.127.075-.026v-9.208h3.549v17.091h-3.132Z" fill="#9F9F9F"/></g><mask id="n" style="mask-type:luminance" maskUnits="userSpaceOnUse" x="0" y="130" width="299" height="41"><path d="M0 170.254h298.926v-40.251H0v40.251Z" fill="#8C8C8C"/></mask><g mask="url(#n)"><path fill-rule="evenodd" clip-rule="evenodd" d="m276.133 150.917-3.18-5.698-1.874-3.609-.074.024v9.283h-3.575v-17.091h3.156l2.811 5.107 2.244 4.127.074-.026v-9.208h3.549v17.091h-3.131Z" fill="#9F9F9F"/></g><mask id="o" style="mask-type:luminance" maskUnits="userSpaceOnUse" x="0" y="130" width="299" height="41"><path d="M0 170.254h298.926v-40.251H0v40.251Z" fill="#8C8C8C"/></mask><g mask="url(#o)"><path fill-rule="evenodd" clip-rule="evenodd" d="M292.921 145.858c0 1.638-.507 2.911-1.518 3.818-1.01.91-2.442 1.364-4.3 1.364a8.018 8.018 0 0 1-1.96-.221 6.81 6.81 0 0 1-1.578-.602 6.221 6.221 0 0 1-1.271-.908 7.361 7.361 0 0 1-1.01-1.167l2.811-2.26c.443.624.908 1.083 1.394 1.375.483.296 1.038.44 1.664.44.756 0 1.277-.16 1.563-.49.288-.325.433-.726.433-1.201 0-.327-.078-.609-.235-.848a2.225 2.225 0 0 0-.64-.626 4.462 4.462 0 0 0-.949-.466 14.552 14.552 0 0 0-1.185-.369c-.788-.246-1.461-.524-2.02-.835-.559-.31-1.016-.662-1.368-1.055a3.698 3.698 0 0 1-.776-1.35 5.583 5.583 0 0 1-.248-1.72c0-.739.131-1.412.395-2.028a4.711 4.711 0 0 1 1.11-1.595 4.94 4.94 0 0 1 1.714-1.043c.664-.245 1.4-.368 2.206-.368 1.296 0 2.362.201 3.191.602a5.617 5.617 0 0 1 2.108 1.78l-2.564 2.405c-.823-.963-1.735-1.447-2.735-1.447-.528 0-.959.139-1.294.417-.338.278-.507.647-.507 1.105 0 .245.083.467.247.663.163.197.385.376.666.54.278.163.607.319.984.466.379.149.782.287 1.209.419.855.262 1.57.561 2.145.896.575.335 1.036.72 1.381 1.154a3.9 3.9 0 0 1 .727 1.435 6.71 6.71 0 0 1 .21 1.72Z" fill="#9F9F9F"/></g><mask id="q" style="mask-type:luminance" maskUnits="userSpaceOnUse" x="19" y="157" width="18" height="6"><path d="m19.486 159.369 16.726 3.525-5.683-5.596-11.043 2.071Z" fill="url(#p)"/></mask><g mask="url(#q)"><path fill-rule="evenodd" clip-rule="evenodd" d="m19.486 159.369 16.726 3.525-5.683-5.596-11.043 2.071Z" fill="#9F9F9F"/></g><mask id="s" style="mask-type:luminance" maskUnits="userSpaceOnUse" x="31" y="143" width="8" height="21"><path d="m35.7 163.503 2.656-19.468-6.485-.71 3.829 20.178Z" fill="url(#r)"/></mask><g mask="url(#s)"><path fill-rule="evenodd" clip-rule="evenodd" d="m35.7 163.503 2.656-19.468-6.485-.71 3.829 20.178Z" fill="#9F9F9F"/></g><mask id="u" style="mask-type:luminance" maskUnits="userSpaceOnUse" x="31" y="134" width="8" height="10"><path d="m31.871 143.08 6.485.711-5.62-8.83-.865 8.119Z" fill="url(#t)"/></mask><g mask="url(#u)"><path fill-rule="evenodd" clip-rule="evenodd" d="m31.871 143.08 6.485.711-5.62-8.83-.865 8.119Z" fill="#9F9F9F"/></g><mask id="w" style="mask-type:luminance" maskUnits="userSpaceOnUse" x="23" y="130" width="11" height="14"><path d="m32.27 143.503.903-8.187-9.905-5.06 9.002 13.247Z" fill="url(#v)"/></mask><g mask="url(#w)"><path fill-rule="evenodd" clip-rule="evenodd" d="m32.27 143.503.903-8.187-9.905-5.06 9.002 13.247Z" fill="#9F9F9F"/></g><mask id="y" style="mask-type:luminance" maskUnits="userSpaceOnUse" x="9" y="140" width="15" height="6"><path d="m9.086 145.215 6.08.211 8.06-4.729-14.14 4.518Z" fill="url(#x)"/></mask><g mask="url(#y)"><path fill-rule="evenodd" clip-rule="evenodd" d="m9.086 145.215 6.08.211 8.06-4.729-14.14 4.518Z" fill="#9F9F9F"/></g><mask id="A" style="mask-type:luminance" maskUnits="userSpaceOnUse" x="9" y="145" width="12" height="13"><path d="m9.073 145.017 11.336 12.241-5.425-12.028-5.91-.214v.001Z" fill="url(#z)"/></mask><g mask="url(#A)"><path fill-rule="evenodd" clip-rule="evenodd" d="m9.073 145.017 11.336 12.241-5.425-12.028-5.91-.214v.001Z" fill="#9F9F9F"/></g><mask id="C" style="mask-type:luminance" maskUnits="userSpaceOnUse" x="20" y="150" width="7" height="5"><path d="m20.917 152.541 5.787 2.33-1.88-4.377-3.907 2.047Z" fill="url(#B)"/></mask><g mask="url(#C)"><path fill-rule="evenodd" clip-rule="evenodd" d="m20.917 152.541 5.787 2.33-1.88-4.377-3.907 2.047Z" fill="#9F9F9F"/></g><mask id="E" style="mask-type:luminance" maskUnits="userSpaceOnUse" x="24" y="145" width="6" height="10"><path d="m24.824 150.208 1.88 4.65 2.806-9.236-4.686 4.586Z" fill="url(#D)"/></mask><g mask="url(#E)"><path fill-rule="evenodd" clip-rule="evenodd" d="m24.824 150.208 1.88 4.65 2.806-9.236-4.686 4.586Z" fill="#9F9F9F"/></g><mask id="G" style="mask-type:luminance" maskUnits="userSpaceOnUse" x="5" y="130" width="17" height="8"><path d="m5.238 133.737 6.267 4.158L21.339 130l-16.1 3.737Z" fill="url(#F)"/></mask><g mask="url(#G)"><path fill-rule="evenodd" clip-rule="evenodd" d="m5.238 133.737 6.267 4.158L21.339 130l-16.1 3.737Z" fill="#9F9F9F"/></g><mask id="I" style="mask-type:luminance" maskUnits="userSpaceOnUse" x="5" y="133" width="7" height="13"><path d="m6.154 145.194 5.386-7.095-6.297-4.158.911 11.253Z" fill="url(#H)"/></mask><g mask="url(#I)"><path fill-rule="evenodd" clip-rule="evenodd" d="m6.154 145.194 5.386-7.095-6.297-4.158.911 11.253Z" fill="#9F9F9F"/></g><mask id="K" style="mask-type:luminance" maskUnits="userSpaceOnUse" x="0" y="133" width="7" height="14"><path d="m.011 146.229 6.492-.858-.91-11.426L.01 146.229Z" fill="url(#J)"/></mask><g mask="url(#K)"><path fill-rule="evenodd" clip-rule="evenodd" d="m.011 146.229 6.492-.858-.91-11.426L.01 146.229Z" fill="#9F9F9F"/></g><mask id="M" style="mask-type:luminance" maskUnits="userSpaceOnUse" x="0" y="144" width="7" height="21"><path d="m.011 145.859 5.885 18.95.607-19.812-6.492.862Z" fill="url(#L)"/></mask><g mask="url(#M)"><path fill-rule="evenodd" clip-rule="evenodd" d="m.011 145.859 5.885 18.95.607-19.812-6.492.862Z" fill="#9F9F9F"/></g><mask id="O" style="mask-type:luminance" maskUnits="userSpaceOnUse" x="5" y="144" width="15" height="21"><path d="M5.721 164.808v.001l13.942-5.147L6.33 144.997l-.608 19.811Z" fill="url(#N)"/></mask><g mask="url(#O)"><path fill-rule="evenodd" clip-rule="evenodd" d="M5.721 164.808v.001l13.942-5.147L6.33 144.997l-.608 19.811Z" fill="#9F9F9F"/></g><mask id="Q" style="mask-type:luminance" maskUnits="userSpaceOnUse" x="5" y="159" width="15" height="12"><path d="m5.721 164.41 14.225 5.841-.283-11.071-13.942 5.23Z" fill="url(#P)"/></mask><g mask="url(#Q)"><path fill-rule="evenodd" clip-rule="evenodd" d="m5.721 164.41 14.225 5.841-.283-11.071-13.942 5.23Z" fill="#9F9F9F"/></g><mask id="S" style="mask-type:luminance" maskUnits="userSpaceOnUse" x="19" y="159" width="18" height="12"><path d="m19.486 159.181.282 11.07 16.444-7.417-16.725-3.654v.001Z" fill="url(#R)"/></mask><g mask="url(#S)"><path fill-rule="evenodd" clip-rule="evenodd" d="m19.486 159.181.282 11.07 16.444-7.417-16.725-3.654v.001Z" fill="#9F9F9F"/></g><mask id="U" style="mask-type:luminance" maskUnits="userSpaceOnUse" x="30" y="143" width="6" height="21"><path d="m30.06 157.795 5.552 5.708-3.927-20.178-1.625 14.47Z" fill="url(#T)"/></mask><g mask="url(#U)"><path fill-rule="evenodd" clip-rule="evenodd" d="m30.06 157.795 5.552 5.708-3.927-20.178-1.625 14.47Z" fill="#9F9F9F"/></g><mask id="W" style="mask-type:luminance" maskUnits="userSpaceOnUse" x="23" y="130" width="10" height="14"><path d="m23.042 140.809 9.043 2.693h.001l-9.001-13.246-.043 10.553Z" fill="url(#V)"/></mask><g mask="url(#W)"><path fill-rule="evenodd" clip-rule="evenodd" d="m23.042 140.809 9.043 2.693h.001l-9.001-13.246-.043 10.553Z" fill="#9F9F9F"/></g><mask id="Y" style="mask-type:luminance" maskUnits="userSpaceOnUse" x="9" y="130" width="14" height="16"><path d="m9.073 145.206 13.746-4.575.041-10.388v-.001L9.073 145.206Z" fill="url(#X)"/></mask><g mask="url(#Y)"><path fill-rule="evenodd" clip-rule="evenodd" d="m9.073 145.206 13.746-4.575.041-10.388v-.001L9.073 145.206Z" fill="#9F9F9F"/></g><mask id="aa" style="mask-type:luminance" maskUnits="userSpaceOnUse" x="14" y="145" width="8" height="13"><path d="m20.573 157.258.522-4.91-6.103-7.118 5.58 12.028Z" fill="url(#Z)"/></mask><g mask="url(#aa)"><path fill-rule="evenodd" clip-rule="evenodd" d="m20.573 157.258.522-4.91-6.103-7.118 5.58 12.028Z" fill="#9F9F9F"/></g><mask id="ac" style="mask-type:luminance" maskUnits="userSpaceOnUse" x="20" y="152" width="8" height="6"><path d="M20.836 157.269v.002l6.473-2.408-5.952-2.427-.521 4.833Z" fill="url(#ab)"/></mask><g mask="url(#ac)"><path fill-rule="evenodd" clip-rule="evenodd" d="M20.836 157.269v.002l6.473-2.408-5.952-2.427-.521 4.833Z" fill="#9F9F9F"/></g><mask id="ae" style="mask-type:luminance" maskUnits="userSpaceOnUse" x="18" y="145" width="12" height="6"><path d="m24.824 150.1 4.686-4.496-10.788-.149 6.102 4.645Z" fill="url(#ad)"/></mask><g mask="url(#ae)"><path fill-rule="evenodd" clip-rule="evenodd" d="m24.824 150.1 4.686-4.496-10.788-.149 6.102 4.645Z" fill="#9F9F9F"/></g><mask id="ag" style="mask-type:luminance" maskUnits="userSpaceOnUse" x="41" y="144" width="7" height="6"><path d="m41.81 147.701 2.706 1.497 3.481-3.575-5.53-.665-.657 2.743Z" fill="url(#af)"/></mask><g mask="url(#ag)"><path fill-rule="evenodd" clip-rule="evenodd" d="m41.81 147.701 2.706 1.497 3.481-3.575-5.53-.665-.657 2.743Z" fill="#9F9F9F"/></g><mask id="ai" style="mask-type:luminance" maskUnits="userSpaceOnUse" x="39" y="137" width="5" height="5"><path d="m39.264 138.476.26 1.804 1.475 1.121 2.69-3.817-4.425.892Z" fill="url(#ah)"/></mask><g mask="url(#ai)"><path fill-rule="evenodd" clip-rule="evenodd" d="m39.264 138.476.26 1.804 1.475 1.121 2.69-3.817-4.425.892Z" fill="#9F9F9F"/></g><mask id="ak" style="mask-type:luminance" maskUnits="userSpaceOnUse" x="35" y="133" width="4" height="3"><path d="m35.83 135.213 2.553-1.528-3.125-.577.571 2.105Z" fill="url(#aj)"/></mask><g mask="url(#ak)"><path fill-rule="evenodd" clip-rule="evenodd" d="m35.83 135.213 2.553-1.528-3.125-.577.571 2.105Z" fill="#9F9F9F"/></g><mask id="am" style="mask-type:luminance" maskUnits="userSpaceOnUse" x="40" y="160" width="4" height="4"><path d="m40.261 161.353-.14 1.604 1.03.424 2.684-1.146-3.02-2.081-.554 1.199Z" fill="url(#al)"/></mask><g mask="url(#am)"><path fill-rule="evenodd" clip-rule="evenodd" d="m40.261 161.353-.14 1.604 1.03.424 2.684-1.146-3.02-2.081-.554 1.199Z" fill="#9F9F9F"/></g><mask id="ao" style="mask-type:luminance" maskUnits="userSpaceOnUse" x="40" y="152" width="5" height="5"><path d="m40.414 156.107 2.374.179 2.061-1.919-3.879-2.002-.556 3.742Z" fill="url(#an)"/></mask><g mask="url(#ao)"><path fill-rule="evenodd" clip-rule="evenodd" d="m40.414 156.107 2.374.179 2.061-1.919-3.879-2.002-.556 3.742Z" fill="#9F9F9F"/></g><path fill-rule="evenodd" clip-rule="evenodd" d="M296.36 131.247v.292h-.762v2.152h-.309v-2.152h-.762v-.292h1.833ZM296.572 131.462h.476l.705 2.065.7-2.065h.473v2.441h-.318v-1.44c0-.05 0-.132.004-.248.002-.115.003-.239.003-.371l-.7 2.059h-.33l-.705-2.059v.075c0 .061.002.152.005.273.003.123.005.212.005.271v1.44h-.318v-2.441ZM60.688 165.459a1.425 1.425 0 0 1-.25.543 1.178 1.178 0 0 1-.47.364 1.805 1.805 0 0 1-.729.129h-1.636v-3.271h1.62c.55 0 .945.145 1.183.437.236.292.355.675.355 1.15 0 .227-.024.443-.073.648Zm-3.085-6.763h1.458c.54 0 .931.129 1.174.386.242.258.365.613.365 1.065 0 .439-.123.797-.365 1.07-.243.275-.629.412-1.157.412h-1.475v-2.933Zm4.607 4.691a2.056 2.056 0 0 0-.478-.59 1.967 1.967 0 0 0-.696-.379v-.081c.518-.235.877-.553 1.077-.95.2-.397.3-.833.3-1.305 0-.945-.267-1.693-.802-2.239-.534-.549-1.335-.824-2.404-.824H55.76v11.217h3.626c.971 0 1.746-.284 2.324-.854.577-.57.865-1.391.865-2.466 0-.268-.029-.534-.089-.798a2.775 2.775 0 0 0-.275-.731ZM66.071 164.175l.582-2.256.535-2.352h.082c.01.096.043.255.096.475.055.22.111.452.17.699.06.249.114.485.162.711l.106.483.566 2.24h-2.299Zm.258-7.154-3.253 11.215h1.926a8.42 8.42 0 0 0 .138-.484c.059-.226.124-.466.195-.724.07-.26.137-.5.201-.725.065-.228.108-.388.13-.486h3.125l.632 2.419h1.958l-3.27-11.215h-1.782ZM73.972 159.76c.065-.194.162-.368.292-.525.129-.155.293-.281.494-.377.2-.098.439-.146.72-.146.237 0 .447.038.631.113a1.494 1.494 0 0 1 .777.709c.076.151.13.307.163.466l1.764-.579a3.348 3.348 0 0 0-1.126-1.773c-.566-.471-1.303-.708-2.21-.708-.593 0-1.106.096-1.537.289a3.144 3.144 0 0 0-1.077.773 3.193 3.193 0 0 0-.64 1.114 4.03 4.03 0 0 0-.21 1.288v4.351c0 .506.07.976.21 1.41.141.435.356.814.648 1.135a2.98 2.98 0 0 0 1.084.757c.432.183.94.275 1.523.275.841 0 1.56-.217 2.153-.653.593-.434.982-1.044 1.165-1.829l-1.764-.565c-.076.4-.254.711-.534.937-.28.224-.621.338-1.02.338-.27 0-.505-.046-.705-.137a1.383 1.383 0 0 1-.5-.379 1.57 1.57 0 0 1-.301-.564 2.335 2.335 0 0 1-.097-.677v-4.465c0-.192.032-.386.097-.578ZM84.285 161.5l3.01-4.48h-2.12l-3.302 5.077h-.05v-5.077h-1.845v11.215h1.845v-3.077c.216-.31.432-.631.648-.96.216-.327.432-.652.648-.973.41.836.818 1.673 1.222 2.505.405.832.812 1.668 1.223 2.505h2.072a740.073 740.073 0 0 0-1.684-3.36 218.208 218.208 0 0 1-1.667-3.375ZM93.327 161.72c-.264.315-.671.473-1.222.473H90.55v-3.465h1.539c.55 0 .96.147 1.23.441.27.294.404.719.404 1.275 0 .535-.132.96-.396 1.276Zm2.226-1.236c0-.59-.081-1.104-.243-1.538a2.784 2.784 0 0 0-.696-1.08 2.884 2.884 0 0 0-1.084-.637 4.564 4.564 0 0 0-1.425-.209h-3.4v11.215h1.845v-4.302h1.652c.56 0 1.052-.089 1.473-.266.422-.177.77-.421 1.045-.732a3.15 3.15 0 0 0 .622-1.097c.141-.418.211-.87.211-1.354ZM97.853 164.175l.582-2.256.535-2.352h.08c.011.096.044.255.098.475l.17.699c.059.249.114.485.162.711.048.226.083.387.105.483l.567 2.24h-2.3Zm.258-7.154-3.254 11.215h1.927a8.42 8.42 0 0 0 .138-.484c.058-.226.123-.466.194-.724.07-.26.137-.5.202-.725.064-.228.108-.388.13-.486h3.124l.632 2.419h1.958l-3.27-11.215h-1.781ZM105.753 159.76c.065-.194.162-.368.292-.525.128-.155.293-.281.494-.377.199-.098.439-.146.72-.146.237 0 .447.038.631.113a1.486 1.486 0 0 1 .777.709c.076.151.13.307.162.466l1.765-.579a3.353 3.353 0 0 0-1.126-1.773c-.566-.471-1.303-.708-2.209-.708-.594 0-1.107.096-1.538.289a3.144 3.144 0 0 0-1.077.773 3.194 3.194 0 0 0-.64 1.114c-.14.418-.21.847-.21 1.288v4.351c0 .506.07.976.21 1.41.141.435.356.814.648 1.135a2.98 2.98 0 0 0 1.084.757c.432.183.939.275 1.523.275.841 0 1.559-.217 2.153-.653.593-.434.982-1.044 1.165-1.829l-1.764-.565c-.076.4-.254.711-.534.937a1.587 1.587 0 0 1-1.02.338c-.27 0-.505-.046-.705-.137a1.39 1.39 0 0 1-.501-.379 1.57 1.57 0 0 1-.3-.564 2.328 2.328 0 0 1-.097-.677v-4.465c0-.192.032-.386.097-.578ZM116.066 161.5l3.011-4.48h-2.12l-3.303 5.077h-.049v-5.077h-1.846v11.215h1.846v-3.077c.216-.31.432-.631.648-.96.216-.327.432-.652.648-.973.409.836.818 1.673 1.222 2.505a631.7 631.7 0 0 0 1.222 2.505h2.073a875.356 875.356 0 0 0-1.684-3.36 220.957 220.957 0 0 1-1.668-3.375ZM120.421 168.236h6.266v-1.741h-4.42v-3.094h3.805v-1.675h-3.805v-2.998h4.42v-1.709h-6.266v11.217ZM132.458 161.484c-.286.279-.671.418-1.157.418h-1.62v-3.206h1.635c.508 0 .896.126 1.166.378.27.254.405.642.405 1.169 0 .547-.143.962-.429 1.241Zm1.789.596c.302-.516.454-1.129.454-1.837 0-.537-.082-1.008-.244-1.41a2.816 2.816 0 0 0-.671-1.008 2.782 2.782 0 0 0-1.028-.604 4.054 4.054 0 0 0-1.295-.201h-3.627v11.216h1.845v-4.674h1.441l1.684 4.674h2.024l-1.926-4.98c.593-.268 1.041-.661 1.343-1.176ZM144.625 161.726h-3.174v-4.707h-1.861v11.216h1.861v-4.849h3.174v4.849h1.845v-11.216h-1.845v4.707ZM152.995 164.993c0 .496-.153.886-.462 1.172a1.558 1.558 0 0 1-1.092.427c-.594 0-1.016-.183-1.263-.55-.248-.365-.374-.816-.374-1.355l-.014-4.296c0-.172.026-.354.08-.549.054-.193.143-.374.267-.54.125-.167.292-.307.502-.42.211-.114.473-.17.785-.17.313 0 .57.062.77.185a1.608 1.608 0 0 1 .728.986c.049.187.073.353.073.493v4.617Zm1.044-6.95a3.245 3.245 0 0 0-1.076-.796c-.432-.206-.945-.307-1.539-.307-.636 0-1.173.107-1.611.322a3.155 3.155 0 0 0-1.067.821 3.182 3.182 0 0 0-.6 1.112 4.182 4.182 0 0 0-.186 1.21v4.237c0 .494.065.965.194 1.41.13.446.332.839.607 1.177a2.89 2.89 0 0 0 1.077.805c.442.199.971.298 1.586.298.507 0 .971-.079 1.393-.242a3.089 3.089 0 0 0 1.092-.7c.307-.306.546-.674.713-1.104.168-.43.251-.913.251-1.451v-4.43c0-.421-.068-.836-.202-1.25a3.188 3.188 0 0 0-.632-1.112ZM162.434 163.014a3.118 3.118 0 0 0-.85-.716 5.925 5.925 0 0 0-1.32-.556c-.314-.098-.61-.197-.891-.299a3.828 3.828 0 0 1-.728-.346 1.674 1.674 0 0 1-.485-.444.975.975 0 0 1-.178-.587c0-.398.129-.728.388-.991s.632-.395 1.118-.395c.409 0 .771.08 1.083.241.313.162.594.414.843.758l1.408-1.177a3.323 3.323 0 0 0-1.255-1.142c-.524-.281-1.206-.421-2.048-.421-.517 0-.985.08-1.4.234a3.197 3.197 0 0 0-1.077.662 2.909 2.909 0 0 0-.696 1.018 3.341 3.341 0 0 0-.243 1.282c0 .421.053.794.162 1.122.107.328.284.619.527.872.242.253.553.477.93.67.378.194.836.376 1.377.548.291.086.56.178.809.274.248.098.459.213.632.35.172.132.307.291.404.474.097.183.146.404.146.662 0 .42-.121.772-.364 1.057-.243.285-.661.428-1.255.428-.497 0-.917-.116-1.263-.346a3.15 3.15 0 0 1-.891-.927l-1.521 1.095a3.944 3.944 0 0 0 1.392 1.384c.594.357 1.344.534 2.25.534 1.145 0 2.03-.293 2.655-.878.627-.584.94-1.389.94-2.409 0-.419-.046-.795-.138-1.129a2.493 2.493 0 0 0-.461-.902ZM163.745 158.696h2.477v9.539h1.846v-9.539h2.493v-1.677h-6.816v1.677ZM171.694 168.236h6.267v-1.741h-4.421v-3.094h3.805v-1.675h-3.805v-2.998h4.421v-1.709h-6.267v11.217ZM180.954 157.02h-1.845v11.216h6.2v-1.74h-4.355v-9.476ZM193.332 163.917a2.482 2.482 0 0 0-.461-.903 3.133 3.133 0 0 0-.85-.716 5.952 5.952 0 0 0-1.32-.556 22.04 22.04 0 0 1-.89-.298 3.892 3.892 0 0 1-.728-.346 1.699 1.699 0 0 1-.487-.445.988.988 0 0 1-.177-.588c0-.396.13-.727.389-.989.259-.264.632-.396 1.116-.396.409 0 .772.08 1.084.242.314.16.594.413.844.757l1.408-1.176a3.323 3.323 0 0 0-1.256-1.144c-.524-.281-1.206-.419-2.047-.419-.517 0-.984.078-1.401.234a3.127 3.127 0 0 0-1.076.662 2.884 2.884 0 0 0-.696 1.016c-.162.393-.244.82-.244 1.284 0 .419.054.794.163 1.12.107.33.282.621.525.874.244.251.553.476.932.668.377.195.835.377 1.376.549.291.086.56.178.81.275.248.098.458.213.63.347.173.135.309.293.406.477.096.182.145.402.145.662 0 .418-.121.772-.363 1.056-.244.286-.663.427-1.255.427-.498 0-.919-.114-1.265-.347a3.09 3.09 0 0 1-.889-.925l-1.522 1.095a3.971 3.971 0 0 0 1.392 1.385c.594.356 1.344.533 2.252.533 1.144 0 2.027-.293 2.655-.877.624-.586.939-1.389.939-2.41 0-.419-.046-.795-.139-1.128Z" fill="#9F9F9F"/></g><defs><linearGradient id="p" x1="776.78" y1="440.563" x2="1342.47" y2="218.222" gradientUnits="userSpaceOnUse"><stop stop-color="#DF4D11"/><stop offset="1" stop-color="#CD4217"/></linearGradient><linearGradient id="r" x1="350.14" y1="708.911" x2="553.8" y2="2274.43" gradientUnits="userSpaceOnUse"><stop stop-color="#EB752F"/><stop offset="1" stop-color="#F6AA3D"/></linearGradient><linearGradient id="t" x1="336.303" y1="478.507" x2="585.042" y2="1142.04" gradientUnits="userSpaceOnUse"><stop stop-color="#EB752F"/><stop offset="1" stop-color="#F6AA3D"/></linearGradient><linearGradient id="v" x1="524.937" y1="1309.38" x2="495.906" y2="6.618" gradientUnits="userSpaceOnUse"><stop stop-color="#EB752F"/><stop offset="1" stop-color="#F6AA3D"/></linearGradient><linearGradient id="x" x1="196.012" y1="398.779" x2="957.34" y2="115.76" gradientUnits="userSpaceOnUse"><stop stop-color="#DF4D11"/><stop offset="1" stop-color="#CD4217"/></linearGradient><linearGradient id="z" x1="203.428" y1="295.128" x2="681.611" y2="803.768" gradientUnits="userSpaceOnUse"><stop stop-color="#DF4D11"/><stop offset="1" stop-color="#CD4217"/></linearGradient><linearGradient id="B" x1="441.194" y1="266.561" x2="236.067" y2="547.873" gradientUnits="userSpaceOnUse"><stop stop-color="#EB752F"/><stop offset="1" stop-color="#F6AA3D"/></linearGradient><linearGradient id="D" x1="311.619" y1="560.73" x2="194.268" y2="587.604" gradientUnits="userSpaceOnUse"><stop stop-color="#EB752F"/><stop offset="1" stop-color="#F6AA3D"/></linearGradient><linearGradient id="F" x1="528.818" y1="554.721" x2="1520.18" y2="115.851" gradientUnits="userSpaceOnUse"><stop stop-color="#CD4217"/><stop offset="1" stop-color="#DF4D11"/></linearGradient><linearGradient id="H" x1="289.423" y1="1020.3" x2="483.91" y2="377.415" gradientUnits="userSpaceOnUse"><stop stop-color="#DF4D11"/><stop offset="1" stop-color="#CD4217"/></linearGradient><linearGradient id="J" x1="344.124" y1="462.893" x2="123.592" y2="1362.74" gradientUnits="userSpaceOnUse"><stop stop-color="#EB752F"/><stop offset="1" stop-color="#F6AA3D"/></linearGradient><linearGradient id="L" x1="343.259" y1="1411.57" x2="-98.788" y2="709.376" gradientUnits="userSpaceOnUse"><stop stop-color="#EB752F"/><stop offset="1" stop-color="#F6AA3D"/></linearGradient><linearGradient id="N" x1="838.649" y1="1705.9" x2="408.516" y2="811.521" gradientUnits="userSpaceOnUse"><stop stop-color="#EB752F"/><stop offset="1" stop-color="#F6AA3D"/></linearGradient><linearGradient id="P" x1="970.442" y1="962.112" x2="463.226" y2="138.323" gradientUnits="userSpaceOnUse"><stop stop-color="#EB752F"/><stop offset="1" stop-color="#F6AA3D"/></linearGradient><linearGradient id="R" x1="488.027" y1="442.1" x2="677.99" y2="761.226" gradientUnits="userSpaceOnUse"><stop stop-color="#EB752F"/><stop offset="1" stop-color="#F6AA3D"/></linearGradient><linearGradient id="T" x1="314.104" y1="1741.86" x2="148.244" y2="593.247" gradientUnits="userSpaceOnUse"><stop stop-color="#DF4D11"/><stop offset="1" stop-color="#CD4217"/></linearGradient><linearGradient id="V" x1="244.339" y1="1147.84" x2="672.828" y2="840.574" gradientUnits="userSpaceOnUse"><stop stop-color="#EB752F"/><stop offset="1" stop-color="#F6AA3D"/></linearGradient><linearGradient id="X" x1="1130.53" y1="521.663" x2="407.956" y2="1028.16" gradientUnits="userSpaceOnUse"><stop stop-color="#EB752F"/><stop offset="1" stop-color="#F6AA3D"/></linearGradient><linearGradient id="Z" x1="370.442" y1="980.696" x2="-36.786" y2="492.558" gradientUnits="userSpaceOnUse"><stop stop-color="#EB752F"/><stop offset="1" stop-color="#F6AA3D"/></linearGradient><linearGradient id="ab" x1="587.699" y1="381.336" x2="-354.017" y2="470.47" gradientUnits="userSpaceOnUse"><stop stop-color="#EB752F"/><stop offset="1" stop-color="#F6AA3D"/></linearGradient><linearGradient id="ad" x1="337.5" y1="361.222" x2="829.565" y2="559.327" gradientUnits="userSpaceOnUse"><stop stop-color="#DF4D11"/><stop offset="1" stop-color="#CD4217"/></linearGradient><linearGradient id="af" x1="649.897" y1="365.579" x2="48.352" y2="328.423" gradientUnits="userSpaceOnUse"><stop stop-color="#EB752F"/><stop offset="1" stop-color="#F6AA3D"/></linearGradient><linearGradient id="ah" x1="308.389" y1="446.91" x2="235.008" y2="203.185" gradientUnits="userSpaceOnUse"><stop stop-color="#DF4D11"/><stop offset="1" stop-color="#CD4217"/></linearGradient><linearGradient id="aj" x1="331.912" y1="204.579" x2="100.407" y2="327.324" gradientUnits="userSpaceOnUse"><stop stop-color="#DF4D11"/><stop offset="1" stop-color="#CD4217"/></linearGradient><linearGradient id="al" x1="513.394" y1="187.43" x2="-190.201" y2="622.346" gradientUnits="userSpaceOnUse"><stop stop-color="#DF4D11"/><stop offset="1" stop-color="#CD4217"/></linearGradient><linearGradient id="an" x1="429.769" y1="275.491" x2="38.513" y2="493.308" gradientUnits="userSpaceOnUse"><stop stop-color="#EB752F"/><stop offset="1" stop-color="#F6AA3D"/></linearGradient><clipPath id="a"><path fill="#fff" transform="translate(0 130)" d="M0 0h300v40.909H0z"/></clipPath></defs></svg>