<svg width="300" height="300" fill="none" xmlns="http://www.w3.org/2000/svg"><g clip-path="url(#a)" fill="#9F9F9F"><path d="M37.607 128.729v.968c-1.257.228-2.21.629-2.855 1.205-.926.856-1.746 2.165-2.462 3.928l-12.387 30.222h-.969L5.631 134.438c-.681-1.572-1.162-2.532-1.44-2.881a4.588 4.588 0 0 0-1.611-1.27c-.638-.305-1.498-.502-2.58-.59v-.968h14.508v.968c-1.641.158-2.706.437-3.195.838a1.912 1.912 0 0 0-.733 1.546c0 .873.402 2.235 1.205 4.085l9.035 20.82 8.38-20.558c.82-2.025 1.231-3.431 1.231-4.217 0-.506-.253-.99-.76-1.453-.506-.462-1.361-.79-2.566-.982a24.537 24.537 0 0 0-.445-.079v-.969l10.947.001ZM45.484 160.783c-2.462 1.903-4.007 3.003-4.635 3.3a7.09 7.09 0 0 1-3.012.655c-1.659 0-3.025-.568-4.099-1.703-1.073-1.134-1.61-2.627-1.61-4.478 0-1.169.262-2.182.786-3.038.715-1.187 1.96-2.304 3.731-3.352 1.772-1.047 4.718-2.321 8.84-3.823v-.943c0-2.392-.38-4.033-1.14-4.924-.76-.89-1.864-1.335-3.313-1.335-1.1 0-1.973.297-2.619.89-.663.594-.995 1.275-.995 2.043l.052 1.519c0 .803-.205 1.423-.615 1.86-.41.436-.947.654-1.61.654-.647 0-1.175-.227-1.585-.681-.41-.454-.615-1.074-.615-1.859 0-1.501.768-2.881 2.304-4.138 1.536-1.257 3.693-1.886 6.469-1.886 2.13 0 3.876.359 5.237 1.074 1.03.542 1.79 1.388 2.279 2.541.314.751.471 2.287.471 4.609v8.144c0 2.288.043 3.689.13 4.203.088.516.232.861.433 1.035.2.175.432.262.694.262.28 0 .524-.061.733-.184.367-.226 1.074-.864 2.122-1.911v1.466c-1.956 2.619-3.824 3.929-5.605 3.929-.855 0-1.536-.297-2.042-.891-.507-.593-.769-1.606-.786-3.038Zm0-1.702v-9.14c-2.636 1.048-4.339 1.79-5.107 2.226-1.38.768-2.366 1.571-2.96 2.41-.593.838-.89 1.754-.89 2.749 0 1.257.376 2.301 1.127 3.13.75.829 1.614 1.244 2.592 1.244 1.327 0 3.073-.873 5.238-2.619ZM61.909 127v31.819c0 1.502.109 2.497.327 2.986.218.489.554.86 1.008 1.113.454.253 1.3.379 2.54.379v.943H54.026v-.943c1.1 0 1.85-.113 2.252-.34.401-.227.716-.603.943-1.126.227-.524.34-1.528.34-3.012V137.03c0-2.706-.061-4.368-.183-4.988-.122-.62-.319-1.043-.59-1.27-.27-.227-.615-.341-1.034-.341-.454 0-1.03.14-1.728.419l-.445-.916 7.15-2.933 1.178-.001Z"/><path d="M73.62 127v23.858l6.102-5.552c1.291-1.187 2.042-1.938 2.252-2.252.14-.209.21-.419.21-.629 0-.349-.145-.65-.433-.903-.288-.253-.764-.397-1.427-.432v-.838h10.422v.838c-1.431.035-2.623.253-3.574.654-.952.402-1.995 1.118-3.13 2.148l-6.154 5.683 6.154 7.778c1.711 2.147 2.863 3.509 3.457 4.085.838.821 1.571 1.353 2.2 1.598.436.175 1.196.262 2.278.262v.943H80.324v-.943c.663-.017 1.113-.118 1.349-.301.236-.184.353-.441.353-.773 0-.401-.349-1.047-1.047-1.938l-7.36-9.401v7.961c0 1.554.11 2.575.328 3.064.218.489.528.838.93 1.047.4.21 1.274.323 2.618.341v.942H65.291v-.942c1.223 0 2.139-.148 2.75-.445.367-.192.646-.489.839-.891.262-.576.392-1.571.392-2.985v-21.842c0-2.776-.061-4.474-.183-5.094-.122-.619-.323-1.047-.603-1.283-.279-.236-.646-.353-1.1-.353-.366 0-.916.148-1.65.445l-.445-.917L72.415 127h1.205ZM57.125 173.222h-3.268v-5.862h3.268v.605H54.54v1.889h2.43v.601h-2.43v2.157h2.586v.61ZM62.21 173.222h-.773l-1.576-2.578-1.604 2.578h-.722l1.949-3.064-1.817-2.798h.755l1.455 2.321 1.468-2.321h.725l-1.816 2.774 1.957 3.088ZM65.28 167.885c-.645 0-1.153.214-1.526.643-.373.43-.56 1.017-.56 1.763 0 .767.18 1.36.54 1.778.359.419.872.628 1.537.628.41 0 .876-.074 1.4-.221v.598c-.407.152-.908.228-1.504.228-.863 0-1.53-.262-1.999-.786-.469-.523-.703-1.268-.703-2.233 0-.604.112-1.133.338-1.588a2.44 2.44 0 0 1 .979-1.051c.426-.245.928-.369 1.505-.369.615 0 1.152.113 1.612.337l-.288.585a3.113 3.113 0 0 0-1.332-.312ZM67.835 173.222v-5.862h.681v5.244h2.587v.618h-3.268ZM76.327 167.36v3.793c0 .668-.202 1.193-.605 1.576-.404.382-.959.573-1.664.573-.706 0-1.252-.192-1.638-.577-.387-.385-.58-.915-.58-1.588v-3.778h.682v3.826c0 .489.134.864.4 1.126.268.262.66.393 1.18.393.494 0 .875-.131 1.142-.395.267-.263.401-.64.401-1.132v-3.818l.682.001ZM81.072 171.662c0 .516-.187.918-.562 1.207-.374.289-.882.433-1.523.433-.696 0-1.23-.09-1.604-.269v-.657a4.284 4.284 0 0 0 1.627.329c.455 0 .797-.086 1.027-.259.23-.172.345-.412.345-.72a.924.924 0 0 0-.123-.499 1.148 1.148 0 0 0-.409-.359 5.81 5.81 0 0 0-.872-.372c-.545-.195-.935-.427-1.169-.694-.234-.267-.35-.616-.35-1.047 0-.451.17-.811.509-1.078.339-.267.788-.401 1.347-.401.583 0 1.119.107 1.608.321l-.213.593a3.638 3.638 0 0 0-1.41-.305c-.362 0-.644.078-.847.233a.765.765 0 0 0-.305.645c0 .204.038.37.112.5.075.129.201.248.38.356.177.109.45.229.816.359.614.219 1.037.455 1.269.706.231.251.347.577.347.978ZM82.156 173.222v-5.862h.681v5.862h-.681ZM87.598 173.222H84.33v-5.862h3.268v.605h-2.586v1.889h2.43v.601h-2.43v2.157h2.586v.61ZM89.464 173.222h-.682v-5.862h3.268v.605h-2.586v2.145h2.43v.606h-2.43v2.506ZM117.068 164.261h-1.691v-11.802h-14.018v11.802h-1.674v-23.998h1.674v10.653h14.018v-10.653h1.691v23.998ZM137.201 155.315c0 2.911-.705 5.184-2.117 6.82-1.411 1.636-3.359 2.454-5.843 2.454-1.565 0-2.944-.378-4.136-1.133-1.193-.755-2.107-1.838-2.742-3.25-.634-1.411-.952-3.042-.952-4.891 0-2.911.705-5.179 2.118-6.804 1.411-1.625 3.348-2.438 5.811-2.438 2.451 0 4.374.824 5.769 2.471 1.395 1.647 2.092 3.904 2.092 6.771Zm-14.083 0c0 2.451.539 4.364 1.616 5.737 1.078 1.373 2.602 2.06 4.572 2.06 1.97 0 3.494-.687 4.571-2.06 1.078-1.374 1.617-3.286 1.617-5.737 0-2.462-.544-4.372-1.633-5.729-1.089-1.357-2.618-2.035-4.588-2.035-1.97 0-3.488.676-4.555 2.027-1.067 1.352-1.6 3.264-1.6 5.737ZM145.845 163.145c1.029 0 1.927-.088 2.693-.263v1.314c-.788.262-1.697.393-2.725.393-1.577 0-2.739-.421-3.489-1.264-.749-.842-1.124-2.166-1.124-3.972V147.83h-2.642v-.952l2.642-.739.821-4.038h.837v4.318h5.236v1.411h-5.236v11.293c0 1.368.24 2.381.721 3.037.483.656 1.237.985 2.266.985ZM158.592 164.589c-2.593 0-4.615-.798-6.065-2.396-1.45-1.598-2.175-3.836-2.175-6.714 0-2.845.7-5.124 2.101-6.837 1.401-1.712 3.288-2.569 5.663-2.569 2.101 0 3.76.734 4.974 2.2 1.215 1.466 1.822 3.458 1.822 5.975v1.313h-12.853c.023 2.451.594 4.323 1.716 5.614 1.121 1.291 2.727 1.937 4.818 1.937 1.018 0 1.912-.071 2.684-.214.77-.142 1.747-.448 2.929-.919v1.477c-1.007.438-1.937.737-2.791.895-.853.158-1.794.238-2.823.238Zm-.476-17.071c-1.718 0-3.097.566-4.136 1.699-1.04 1.132-1.648 2.766-1.822 4.9h11.03c0-2.069-.448-3.685-1.345-4.851-.898-1.165-2.14-1.748-3.727-1.748ZM170.453 164.261h-1.625V138.72h1.625v25.541ZM200.937 164.261h-1.691v-11.802h-14.018v11.802h-1.674v-23.998h1.674v10.653h14.018v-10.653h1.691v23.998ZM217.148 164.261l-.411-2.823h-.131c-.897 1.149-1.819 1.961-2.766 2.437-.947.476-2.066.714-3.357.714-1.751 0-3.114-.448-4.087-1.346-.974-.897-1.461-2.139-1.461-3.726 0-1.74.724-3.092 2.175-4.055 1.45-.962 3.548-1.471 6.295-1.526l3.398-.099v-1.181c0-1.697-.345-2.977-1.035-3.842-.689-.864-1.8-1.296-3.331-1.296-1.653 0-3.366.459-5.138 1.378l-.608-1.411c1.959-.919 3.896-1.379 5.811-1.379 1.959 0 3.423.509 4.391 1.527.969 1.017 1.453 2.604 1.453 4.76v11.868h-1.198Zm-6.566-1.149c1.904 0 3.406-.544 4.505-1.633 1.1-1.089 1.65-2.602 1.65-4.539v-1.757l-3.119.132c-2.506.12-4.292.512-5.359 1.174-1.067.662-1.6 1.693-1.6 3.094 0 1.116.342 1.983 1.026 2.602.683.618 1.649.927 2.897.927ZM233.949 164.261l-.41-2.823h-.131c-.898 1.149-1.82 1.961-2.766 2.437-.947.476-2.066.714-3.357.714-1.752 0-3.114-.448-4.088-1.346-.973-.897-1.46-2.139-1.46-3.726 0-1.74.724-3.092 2.175-4.055 1.45-.962 3.548-1.471 6.295-1.526l3.398-.099v-1.181c0-1.697-.345-2.977-1.035-3.842-.689-.864-1.8-1.296-3.331-1.296-1.653 0-3.366.459-5.138 1.378l-.608-1.411c1.959-.919 3.896-1.379 5.811-1.379 1.959 0 3.423.509 4.391 1.527.969 1.017 1.453 2.604 1.453 4.76v11.868h-1.199Zm-6.565-1.149c1.904 0 3.405-.544 4.505-1.633s1.65-2.602 1.65-4.539v-1.757l-3.119.132c-2.506.12-4.292.512-5.359 1.174-1.067.662-1.601 1.693-1.601 3.094 0 1.116.342 1.983 1.026 2.602.684.618 1.65.927 2.898.927ZM246.942 146.073c.756 0 1.565.077 2.429.23l-.311 1.56a9.51 9.51 0 0 0-2.314-.279c-1.522 0-2.77.646-3.743 1.937-.974 1.291-1.461 2.922-1.461 4.892v9.848h-1.625v-17.843h1.379l.164 3.218h.114c.733-1.313 1.517-2.235 2.348-2.766.832-.531 1.839-.797 3.02-.797ZM253.616 164.261h-1.626V138.72h1.626v25.541ZM265.788 164.589c-2.593 0-4.615-.798-6.065-2.396-1.45-1.598-2.175-3.836-2.175-6.714 0-2.845.7-5.124 2.101-6.837 1.4-1.712 3.288-2.569 5.663-2.569 2.102 0 3.759.734 4.974 2.2 1.215 1.466 1.822 3.458 1.822 5.975v1.313h-12.853c.022 2.451.593 4.323 1.716 5.614 1.121 1.291 2.727 1.937 4.817 1.937 1.018 0 1.912-.071 2.684-.214.772-.142 1.748-.448 2.93-.919v1.477c-1.007.438-1.936.737-2.79.895-.854.158-1.795.238-2.824.238Zm-.475-17.071c-1.719 0-3.098.566-4.137 1.699-1.04 1.132-1.647 2.766-1.822 4.9h11.031c0-2.069-.45-3.685-1.347-4.851-.897-1.165-2.139-1.748-3.725-1.748ZM298.316 164.261v-11.704c0-1.74-.34-3.009-1.019-3.808-.678-.799-1.718-1.198-3.119-1.198-1.827 0-3.178.503-4.054 1.51-.876 1.007-1.313 2.588-1.313 4.744v10.456h-1.658v-12.196c0-3.009-1.378-4.514-4.136-4.514-1.872 0-3.234.545-4.087 1.633-.854 1.089-1.28 2.832-1.28 5.228v9.849h-1.626v-17.843h1.346l.345 2.446h.099a5.115 5.115 0 0 1 2.1-2.06c.909-.487 1.91-.73 3.004-.73 2.813 0 4.618 1.056 5.418 3.168h.065c.58-1.018 1.359-1.8 2.34-2.348.978-.547 2.092-.82 3.34-.82 1.948 0 3.408.52 4.382 1.559.974 1.04 1.461 2.692 1.461 4.957v11.671h-1.608Z"/></g><defs><clipPath id="a"><path fill="#fff" transform="translate(0 127)" d="M0 0h300v46.302H0z"/></clipPath></defs></svg>