<svg width="300" height="300" fill="none" xmlns="http://www.w3.org/2000/svg"><g clip-path="url(#a)"><path d="M14.414 142.558v18.558a2.569 2.569 0 0 1-2.553 2.554 2.531 2.531 0 0 1-1.81-.744 2.54 2.54 0 0 1-.744-1.81v-18.558H2.233a2.414 2.414 0 0 1 0-4.814h19.255a2.458 2.458 0 0 1 2.414 2.442 2.428 2.428 0 0 1-2.414 2.372h-7.074Zm31.423 18.558v-8.567h-11.61v8.567a2.542 2.542 0 0 1-2.553 2.554 2.57 2.57 0 0 1-2.54-2.554v-21.153a2.569 2.569 0 0 1 2.54-2.568 2.544 2.544 0 0 1 2.554 2.596v7.772h11.61v-7.8a2.583 2.583 0 0 1 3.088-2.514c.5.1.958.345 1.318.705.48.489.743 1.152.728 1.837v21.125a2.542 2.542 0 0 1-2.553 2.554 2.57 2.57 0 0 1-2.381-1.572 2.571 2.571 0 0 1-.2-.982ZM60 163.363a2.57 2.57 0 0 1-2.54-2.582v-20.497a2.53 2.53 0 0 1 1.563-2.363 2.52 2.52 0 0 1 .977-.191h13.954a2.41 2.41 0 0 1 2.395 1.441 2.416 2.416 0 0 1-2.395 3.373H62.512v5.582h6.349a2.387 2.387 0 0 1 2.385 2.386 2.388 2.388 0 0 1-2.385 2.386h-6.35v5.707h12.015a2.466 2.466 0 0 1 2.428 2.428 2.398 2.398 0 0 1-2.428 2.386L60 163.363Zm46.047.544a13.286 13.286 0 0 1-12.424-13.256 13.28 13.28 0 0 1 12.424-13.256 11.903 11.903 0 0 1 8.553 3.168 2.66 2.66 0 0 1 .823 1.856 2.37 2.37 0 0 1-2.4 2.19c-1.758 0-3.125-2.581-6.976-2.581-4.856 0-7.982 3.865-7.982 8.512 0 4.646 3.126 8.595 7.982 8.595 4.855 0 5.888-3.823 7.981-3.823a2.704 2.704 0 0 1 2.553 2.553 2.215 2.215 0 0 1-.544 1.395 13.08 13.08 0 0 1-9.99 4.647Zm16.339-13.367a13.147 13.147 0 0 1 15.838-12.642 13.149 13.149 0 0 1 9.431 17.935 13.148 13.148 0 0 1-12.111 8.074 13.08 13.08 0 0 1-9.4-3.907 13.09 13.09 0 0 1-3.758-9.46Zm5.135 0c0 4.73 3.209 8.595 8.023 8.595s8.023-3.879 8.023-8.595c0-4.717-3.209-8.512-8.023-8.512s-8.023 3.739-8.023 8.512Zm48.223 10.73v-11.4s-6.209 12.474-6.209 12.558a2.123 2.123 0 0 1-2.065 1.284 2.055 2.055 0 0 1-2.023-1.326l-6.252-12.474v11.358a2.406 2.406 0 1 1-4.814 0v-21.517a2.447 2.447 0 0 1 2.386-2.358 2.517 2.517 0 0 1 2.303 1.493l8.372 17.205 8.372-17.205a2.431 2.431 0 0 1 2.722-1.498 2.43 2.43 0 0 1 1.966 2.405v21.475a2.456 2.456 0 0 1-2.428 2.386 2.392 2.392 0 0 1-1.651-.718 2.39 2.39 0 0 1-.679-1.668Zm31.996 0v-11.4s-6.21 12.474-6.21 12.558a2.105 2.105 0 0 1-2.051 1.284 2.055 2.055 0 0 1-2.023-1.326l-6.293-12.516v11.358a2.407 2.407 0 0 1-.637 1.824 2.417 2.417 0 0 1-4.177-1.824v-21.475a2.445 2.445 0 0 1 2.428-2.358 2.527 2.527 0 0 1 2.26 1.521l8.372 17.205 8.372-17.205a2.431 2.431 0 0 1 2.722-1.498 2.43 2.43 0 0 1 1.967 2.405v21.447a2.456 2.456 0 0 1-2.428 2.386 2.387 2.387 0 0 1-2.302-2.386Zm10.73-10.73a13.147 13.147 0 0 1 8.263-11.982 13.138 13.138 0 0 1 14.246 2.984 13.143 13.143 0 0 1-9.351 22.365 13.088 13.088 0 0 1-13.158-13.367Zm5.149 0c0 4.73 3.209 8.595 8.023 8.595s8.023-3.879 8.023-8.595c0-4.717-3.209-8.512-8.023-8.512s-8.023 3.739-8.023 8.512Zm44.176 12.251-12.558-16.382v14.861a2.416 2.416 0 0 1-2.407 2.23 2.414 2.414 0 0 1-2.407-2.23v-21.475a2.443 2.443 0 0 1 2.512-2.428c.337.016.666.106.965.263.299.156.56.376.765.644 4.688 6.182 12.558 16.368 12.558 16.368v-14.847a2.458 2.458 0 0 1 2.428-2.4c.635.017 1.24.274 1.693.72.454.445.721 1.046.749 1.68v21.475a2.456 2.456 0 0 1-2.428 2.386 2.203 2.203 0 0 1-1.87-.865Zm9.628-3.656a2.47 2.47 0 0 1 2.344-2.386c.405.007.8.107 1.159.293a14.99 14.99 0 0 0 7.73 2.093c1.814 0 5.581-.335 5.581-2.791 0-4.814-15.349-2.26-15.349-12.014 0-5.721 5.679-6.977 10.368-6.977 2.862-.006 5.701.52 8.372 1.549a2.364 2.364 0 0 1 1.521 2.149 2.458 2.458 0 0 1-2.428 2.428 3.549 3.549 0 0 1-.907-.167 18.351 18.351 0 0 0-6.544-1.228c-1.605 0-5.303 0-5.303 2.372s6.21 3.795 7.898 4.284c3.949 1.186 7.437 2.79 7.437 7.409 0 6.042-5.679 7.772-10.73 7.772-2.595-.014-11.149-1.409-11.149-4.786Z" fill="#9F9F9F"/></g><defs><clipPath id="a"><path fill="#fff" transform="translate(0 136)" d="M0 0h300v27.907H0z"/></clipPath></defs></svg>