<svg width="300" height="300" fill="none" xmlns="http://www.w3.org/2000/svg"><path fill-rule="evenodd" clip-rule="evenodd" d="M204.786 91.75c-9.605.762-20.013 2.36-27.67 3.773-12.354 2.214-17.221 3.835-16.6 6.762.419 1.965 3.098 2.011 19.176 2.263l-.014-.046c3.179.082 5.911.16 9.141.293 6.743.279 10.751 1.569 5.057 9.635-5.708 8.088-20.768 25.708-27.925 32.237-4.702 4.288-4.381 1.322-2.802-6.098 1.878-7.904 4.937-16.341-7.198-17.485-15.256-1.436-31.892-1.431-38.4-2.098-6.51-.669-10.27-4.263-6.443-11.716 7.422-14.46 31.989-41.753 48.154-61.465 11.335-13.308 11.503-17.062 9.438-19.168-1.781-1.788-4.849-.607-6.589.366-14.003 9.817-28.249 23.057-52.714 49.206-7.486 8.004-16.784 18.886-20.648 23.881-14.795 19.111-6.133 35.191 9.302 36.725 13.273 1.32 30.114 1.867 36.419 2.277 5.968.387 9.698 2.509 7.776 12.833-1.911 10.259-2.197 12.804-2.981 17.799-1.519 9.67 3.84 14.554 12.303 9.451 8.464-5.104 49.278-46.285 62.089-70.45 4.511-8.505 7.762-20.292-8.871-18.975ZM110.587 236.578h22.611v6.286h-15.825v7.702h12.689v6.288h-12.689v10.113h16.349v6.285h-23.135v-36.674ZM32.265 253.7H17.9v.011h-.065v6.291h8.362c-.694 3.388-3.297 7.339-8.76 7.339-6.261 0-10.202-5.873-10.202-12.424 0-7.768 4.268-12.427 9.738-12.427 4.87 0 7.376 2.136 8.627 5.34l6.673-2.141c-1.64-4.031-5.319-9.703-15.3-9.703C6.633 235.986 0 245.111 0 254.917c0 9.804 6.632 18.927 16.973 18.927 3.381 0 6.454-.822 9.032-2.475v1.884h6.268v-19.542h-.008v-.011ZM195.862 273.253l-2.665-8.643h-11.592l-2.662 8.643h-7.314l12.379-36.674h6.786l12.376 36.674h-7.308Zm-8.463-27.664-3.862 12.733h7.727l-3.865-12.733ZM202.106 242.865v-6.286h27.049v6.286h-10.13v30.388h-6.789v-30.388h-10.13ZM249.764 235.983c6.383 0 11.71 2.488 14.932 8.364 1.632 2.911 2.478 6.457 2.478 10.587 0 8.258-3.64 14.292-8.756 16.994-2.587 1.32-5.438 1.957-8.654 1.957-6.387 0-11.663-2.491-14.984-8.364-1.635-2.911-2.427-6.459-2.427-10.587 0-8.258 3.64-14.346 8.756-16.94 2.587-1.322 5.433-2.011 8.655-2.011Zm0 6.351c-3.009 0-5.49 1.062-7.492 3.176-1.952 2.12-2.957 5.242-2.957 9.424 0 4.182 1.005 7.307 2.957 9.421 2.002 2.12 4.483 3.179 7.492 3.179 3.005 0 5.483-1.059 7.44-3.179 2.003-2.114 3.005-5.239 3.005-9.421 0-4.182-1.002-7.304-3.005-9.424-1.957-2.114-4.435-3.176-7.44-3.176ZM298.41 247.027c-.014-6.28-4.041-10.411-11.143-10.411h-13.338l.002 36.636h6.8V257.47h1.917l8.175 15.782h7.587l-8.319-16.026c5.335-.971 8.305-4.776 8.319-10.167v-.032Zm-11.089 4.147h-6.59l-.002-8.262h6.592c2.873 0 4.283 1.361 4.289 4.131-.006 2.77-1.416 4.131-4.289 4.131ZM167.106 246.947c-.013-6.299-4.051-10.443-11.175-10.443h-13.379l.003 36.75h6.819v-15.831h1.924l8.2 15.831h7.608l-8.345-16.078c5.351-.97 8.332-4.789 8.345-10.196v-.033Zm-11.121 4.161h-6.611l-.003-8.286h6.614c2.881 0 4.297 1.363 4.303 4.142-.006 2.778-1.422 4.144-4.303 4.144ZM41.71 236.578h22.61v6.286H48.496v7.702h12.69v6.288h-12.69v10.113h16.349v6.285H41.709v-36.674ZM94.431 236.578h6.787v36.674h-7.154l-13.42-24.203v24.203h-6.789v-36.674h7.154l13.422 24.206v-24.206Z" fill="#9F9F9F"/></svg>