<svg xmlns="http://www.w3.org/2000/svg" xmlns:xlink="http://www.w3.org/1999/xlink"><defs>
<filter id="filter0_d" x="26.75" y="21.343" width="36.25" height="40.3139" filterUnits="userSpaceOnUse" color-interpolation-filters="sRGB">
<feFlood flood-opacity="0" result="BackgroundImageFix"/>
<feColorMatrix in="SourceAlpha" type="matrix" values="0 0 0 0 0 0 0 0 0 0 0 0 0 0 0 0 0 0 127 0" result="hardAlpha"/>
<feOffset dy="1"/>
<feGaussianBlur stdDeviation="2"/>
<feColorMatrix type="matrix" values="0 0 0 0 0 0 0 0 0 0 0 0 0 0 0 0 0 0 0.852218 0"/>
<feBlend mode="normal" in2="BackgroundImageFix" result="effect1_dropShadow"/>
<feBlend mode="normal" in="SourceGraphic" in2="effect1_dropShadow" result="shape"/>
</filter>
</defs><symbol id="angle-left-blog" viewBox="0 0 12 23">
<path opacity="0.700126" fill-rule="evenodd" clip-rule="evenodd" d="M0.253179 10.8688L10.5303 0.260092C10.867 -0.0872877 11.4122 -0.0867037 11.7483 0.261889C12.0842 0.610436 12.0833 1.17506 11.7466 1.52271L2.08119 11.5L11.7469 21.4773C12.0836 21.825 12.0845 22.3893 11.7487 22.7379C11.5801 22.9126 11.3594 23 11.1386 23C10.9184 23 10.6985 22.9132 10.5303 22.7397L0.253179 12.1312C0.0910044 11.9642 0 11.7369 0 11.5C0 11.2632 0.0912647 11.0362 0.253179 10.8688Z" fill="#363838"/>
</symbol><symbol id="angle-left-pagination" viewBox="0 0 6 12">
<path d="M0.126589 6.3293L5.26514 11.8643C5.4335 12.0455 5.70608 12.0452 5.87415 11.8634C6.0421 11.6815 6.04167 11.3869 5.87329 11.2055L1.0406 5.99998L5.87346 0.794435C6.04182 0.613029 6.04225 0.318631 5.87433 0.136757C5.79007 0.0455856 5.67969 0 5.56931 0C5.45921 0 5.34927 0.0452805 5.26516 0.135819L0.126589 5.67068C0.0455022 5.75782 0 5.87642 0 5.99998C0 6.12354 0.0456324 6.24199 0.126589 6.3293Z" fill="black"/>
</symbol><symbol id="angle-left" viewBox="0 0 10 17">
<path d="M0.470814 7.29199C0.555523 7.206 0.647415 7.13343 0.744097 7.07031L7.21188 0.481925C7.84285 -0.16054 8.86654 -0.160845 9.49781 0.48223C10.1291 1.125 10.1291 2.16752 9.49781 2.8109L3.9277 8.48514L9.52655 14.189C10.1578 14.8317 10.1578 15.8739 9.52655 16.5176C9.21076 16.8396 8.79679 17 8.38373 17C7.97066 17 7.5564 16.8396 7.24091 16.5176L0.744097 9.89874C0.647415 9.83562 0.554924 9.76305 0.470814 9.67706C0.148144 9.34836 -0.00750451 8.91538 0.000277895 8.48453C-0.00750451 8.05367 0.148144 7.62099 0.470814 7.29199Z" fill="black"/>
</symbol><symbol id="angle-right-blog" viewBox="0 0 12 23">
<path opacity="0.700126" fill-rule="evenodd" clip-rule="evenodd" d="M11.7468 10.8688L1.46972 0.260092C1.133 -0.0872877 0.587846 -0.0867037 0.251693 0.261889C-0.0842001 0.610436 -0.0833322 1.17506 0.253429 1.52271L9.91881 11.5L0.253081 21.4773C-0.0836359 21.825 -0.0845039 22.3893 0.251346 22.7379C0.419856 22.9126 0.640617 23 0.861377 23C1.08157 23 1.30147 22.9132 1.46967 22.7397L11.7468 12.1312C11.909 11.9642 12 11.7369 12 11.5C12 11.2632 11.9087 11.0362 11.7468 10.8688Z" fill="#363838"/>
</symbol><symbol id="angle-right-pagination" viewBox="0 0 6 12">
<path d="M5.87341 5.6707L0.734858 0.1357C0.5665 -0.0455414 0.293923 -0.0452368 0.125846 0.136638C-0.0421 0.318488 -0.0416661 0.613073 0.126714 0.794455L4.9594 6.00002L0.126541 11.2056C-0.041818 11.387 -0.0422519 11.6814 0.125673 11.8632C0.209928 11.9544 0.320308 12 0.430689 12C0.540787 12 0.650733 11.9547 0.734837 11.8642L5.87341 6.32932C5.9545 6.24218 6 6.12358 6 6.00002C6 5.87646 5.95437 5.75801 5.87341 5.6707Z" fill="black"/>
</symbol><symbol id="angle-right" viewBox="0 0 10 17">
<path d="M9.52862 7.29242C9.44481 7.20643 9.35202 7.13386 9.25564 7.07074L2.78769 0.481933C2.15643 -0.160543 1.13336 -0.160848 0.501805 0.482238C-0.129455 1.12502 -0.129455 2.16756 0.501805 2.81095L6.0724 8.48529L0.47367 14.1895C-0.15789 14.832 -0.15789 15.8748 0.47367 16.5182C0.789449 16.8393 1.20281 17 1.61616 17C2.02952 17 2.44378 16.8393 2.75866 16.5176L9.25564 9.89983C9.35202 9.83671 9.44451 9.76445 9.52862 9.67815C9.85188 9.34883 10.0069 8.91645 9.99974 8.48529C10.0072 8.05382 9.85188 7.62083 9.52862 7.29242Z" fill="black"/>
</symbol><symbol id="close-btn" viewBox="0 0 26 26">
<path fill-rule="evenodd" clip-rule="evenodd" d="M14.4364 13.0001L25.7025 1.73384C26.0992 1.33718 26.0992 0.69409 25.7025 0.297489C25.3059 -0.0991123 24.6628 -0.0991631 24.2662 0.297489L13 11.5637L1.73383 0.297489C1.33718 -0.0991631 0.694089 -0.0991631 0.297488 0.297489C-0.099112 0.694141 -0.0991628 1.33723 0.297488 1.73384L11.5636 13L0.297488 24.2662C-0.0991628 24.6629 -0.0991628 25.306 0.297488 25.7026C0.495789 25.9009 0.755737 26 1.01569 26C1.27563 26 1.53553 25.9009 1.73388 25.7026L13 14.4364L24.2661 25.7026C24.4644 25.9009 24.7244 26 24.9843 26C25.2443 26 25.5042 25.9009 25.7025 25.7026C26.0992 25.3059 26.0992 24.6628 25.7025 24.2662L14.4364 13.0001Z" fill="#363838"/>
</symbol><symbol id="envelope" viewBox="0 0 16 12">
<path d="M14.5 0H1.5C0.65625 0 0 0.6875 0 1.5V10.5C0 11.3438 0.65625 12 1.5 12H14.5C15.3125 12 16 11.3438 16 10.5V1.5C16 0.6875 15.3125 0 14.5 0ZM14.5 1.5V2.78125C13.7812 3.375 12.6562 4.25 10.2812 6.125C9.75 6.53125 8.71875 7.53125 8 7.5C7.25 7.53125 6.21875 6.53125 5.6875 6.125C3.3125 4.25 2.1875 3.375 1.5 2.78125V1.5H14.5ZM1.5 10.5V4.71875C2.1875 5.28125 3.21875 6.09375 4.75 7.3125C5.4375 7.84375 6.65625 9.03125 8 9C9.3125 9.03125 10.5 7.84375 11.2188 7.3125C12.75 6.09375 13.7812 5.28125 14.5 4.71875V10.5H1.5Z" fill="#363838"/>
</symbol><symbol id="facebook" viewBox="0 0 16 16">
<path d="M15.75 8C15.75 3.71875 12.2812 0.25 8 0.25C3.71875 0.25 0.25 3.71875 0.25 8C0.25 11.875 3.0625 15.0938 6.78125 15.6562V10.25H4.8125V8H6.78125V6.3125C6.78125 4.375 7.9375 3.28125 9.6875 3.28125C10.5625 3.28125 11.4375 3.4375 11.4375 3.4375V5.34375H10.4688C9.5 5.34375 9.1875 5.9375 9.1875 6.5625V8H11.3438L11 10.25H9.1875V15.6562C12.9062 15.0938 15.75 11.875 15.75 8Z" fill="#707070"/>
</symbol><symbol id="graphic-tools" viewBox="0 0 41 42">
<path fill-rule="evenodd" clip-rule="evenodd" d="M38.5429 35.0134C38.5429 35.0134 7.36406 35.0007 7.35797 35.0008C6.74437 34.9927 6.41299 35.0395 5.5963 35.4054L0.548091 37.6655C0.209739 37.8157 -0.000319602 38.1374 3.65018e-07 38.505C0.000321064 38.8687 0.215825 39.1989 0.545688 39.3446C2.20133 40.0881 5.59606 41.6079 5.59606 41.6079C6.36038 41.9503 6.69168 41.9887 7.23472 41.9887L19.4558 42C19.7875 42 20.0564 41.7302 20.0564 41.3974C20.0564 41.0647 19.7875 40.7949 19.4558 40.7949C19.4558 40.7949 8.02611 40.7952 7.97662 40.7956V39.1092H34.515V40.7949H22.4381C22.1063 40.7949 21.8375 41.0647 21.8375 41.3974C21.8375 41.7302 22.1063 42 22.4381 42H38.543C39.8977 42 41 40.8961 41 39.5393V37.4741C40.9999 36.1173 39.8977 35.0134 38.5429 35.0134ZM3.48523 37.6702V39.3424L2.90687 39.0833L2.90676 39.0833L2.90664 39.0832L2.90653 39.0832C2.47737 38.891 2.04823 38.6988 1.61848 38.506L3.48523 37.6702ZM4.68647 37.1324V39.8806C5.12493 40.0769 6.59662 40.7243 6.77537 40.7655V36.248C6.59662 36.2893 4.68647 37.1324 4.68647 37.1324ZM7.9767 37.9042V36.2178C8.02619 36.2182 8.07712 36.2185 8.13118 36.2185H34.5151V37.9042H7.9767ZM38.5429 40.7949C39.2354 40.7949 39.7987 40.2317 39.7987 39.5393V37.474C39.7987 36.7817 39.2353 36.2185 38.5429 36.2185H35.7163V40.7949H38.5429Z" fill="black"/>
<path fill-rule="evenodd" clip-rule="evenodd" d="M1.06259 32L19.9413 31.9977C20.2828 31.9977 20.5596 31.7241 20.5596 31.3867C20.5595 31.0493 20.2826 30.7758 19.9412 30.7759L1.23662 30.7781V5.84759H3.70863V26.2707C3.70863 26.8252 4.16552 27.2762 4.72719 27.2762H30.3662C30.79 27.2762 31.1583 27.0502 31.3048 26.7004C31.4508 26.3515 31.3541 25.9619 31.0459 25.6581L10.9531 5.84759H33.6949V25.2193C33.6949 25.7901 34.1653 26.2544 34.7435 26.2544H37.469C38.7342 26.2544 39.7635 27.2686 39.7635 28.5151C39.7635 29.7617 38.7342 30.7758 37.469 30.7758H22.78C22.4384 30.7758 22.1616 31.0493 22.1616 31.3867C22.1616 31.7241 22.4384 31.9976 22.78 31.9976H37.4689C39.4159 31.9976 41 30.4354 41 28.5151V5.61079C41 3.68923 39.4159 2.12599 37.4689 2.12599H34.7434C34.1652 2.12599 33.6948 2.58932 33.6948 3.15886V4.62582H9.71374L5.34674 0.320096C5.03775 0.0154475 4.64178 -0.0787979 4.28736 0.0678242C3.93287 0.214609 3.70566 0.579047 3.70863 0.992032V4.62574H1.0625C0.476676 4.62574 0 5.09729 0 5.67693V30.9489C0 31.5284 0.476676 32 1.06259 32ZM34.9315 3.34776H37.4689C38.7341 3.34776 39.7634 4.36287 39.7634 5.61071V25.87C39.1458 25.3481 38.344 25.0325 37.4689 25.0325H34.9315V3.34776ZM29.6968 26.0545L4.94525 1.65045V26.0545H7.5978V25.1965C7.5978 24.8591 7.87464 24.5856 8.21611 24.5856C8.55758 24.5856 8.83442 24.8591 8.83442 25.1965V26.0545H11.4891V24.3891C11.4891 24.0517 11.766 23.7782 12.1074 23.7782C12.4489 23.7782 12.7257 24.0517 12.7257 24.3891V26.0545H15.3782V25.1965C15.3782 24.8591 15.655 24.5856 15.9965 24.5856C16.338 24.5856 16.6148 24.8591 16.6148 25.1965V26.0545H19.2697V24.3891C19.2697 24.0517 19.5465 23.7782 19.888 23.7782C20.2295 23.7782 20.5063 24.0517 20.5063 24.3891V26.0545H23.1588V25.1965C23.1588 24.8591 23.4355 24.5856 23.7771 24.5856C24.1186 24.5856 24.3954 24.8591 24.3954 25.1965V26.0545H29.6968Z" fill="black"/>
<path fill-rule="evenodd" clip-rule="evenodd" d="M16.6877 22H10.4888C10.0471 22 9.76179 21.7074 9.76172 21.2544V14.9056C9.76172 14.666 9.76172 14.2202 10.1646 14.0496C10.561 13.8818 10.8466 14.1763 11.055 14.3914L17.1918 20.6744C17.4006 20.8881 17.6864 21.1808 17.5227 21.587C17.3562 22 16.9213 22 16.6877 22ZM15.7808 20.8518L10.8808 15.8349V20.8518H15.7808Z" fill="black"/>
</symbol><symbol id="instagram" viewBox="0 0 14 15">
<path d="M7 3.40625C5 3.40625 3.40625 5.03125 3.40625 7C3.40625 9 5 10.5938 7 10.5938C8.96875 10.5938 10.5938 9 10.5938 7C10.5938 5.03125 8.96875 3.40625 7 3.40625ZM7 9.34375C5.71875 9.34375 4.65625 8.3125 4.65625 7C4.65625 5.71875 5.6875 4.6875 7 4.6875C8.28125 4.6875 9.3125 5.71875 9.3125 7C9.3125 8.3125 8.28125 9.34375 7 9.34375ZM11.5625 3.28125C11.5625 2.8125 11.1875 2.4375 10.7188 2.4375C10.25 2.4375 9.875 2.8125 9.875 3.28125C9.875 3.75 10.25 4.125 10.7188 4.125C11.1875 4.125 11.5625 3.75 11.5625 3.28125ZM13.9375 4.125C13.875 3 13.625 2 12.8125 1.1875C12 0.375 11 0.125 9.875 0.0625C8.71875 0 5.25 0 4.09375 0.0625C2.96875 0.125 2 0.375 1.15625 1.1875C0.34375 2 0.09375 3 0.03125 4.125C-0.03125 5.28125 -0.03125 8.75 0.03125 9.90625C0.09375 11.0312 0.34375 12 1.15625 12.8438C2 13.6562 2.96875 13.9062 4.09375 13.9688C5.25 14.0312 8.71875 14.0312 9.875 13.9688C11 13.9062 12 13.6562 12.8125 12.8438C13.625 12 13.875 11.0312 13.9375 9.90625C14 8.75 14 5.28125 13.9375 4.125ZM12.4375 11.125C12.2188 11.75 11.7188 12.2188 11.125 12.4688C10.1875 12.8438 8 12.75 7 12.75C5.96875 12.75 3.78125 12.8438 2.875 12.4688C2.25 12.2188 1.78125 11.75 1.53125 11.125C1.15625 10.2188 1.25 8.03125 1.25 7C1.25 6 1.15625 3.8125 1.53125 2.875C1.78125 2.28125 2.25 1.8125 2.875 1.5625C3.78125 1.1875 5.96875 1.28125 7 1.28125C8 1.28125 10.1875 1.1875 11.125 1.5625C11.7188 1.78125 12.1875 2.28125 12.4375 2.875C12.8125 3.8125 12.7188 6 12.7188 7C12.7188 8.03125 12.8125 10.2188 12.4375 11.125Z" fill="#707070"/>
</symbol><symbol id="magnifying-glass" viewBox="0 0 17 17">
<path fill-rule="evenodd" clip-rule="evenodd" d="M11.9579 10.9565L16.7923 15.7909C17.0692 16.0678 17.0692 16.5155 16.7923 16.7924C16.6542 16.9306 16.4729 17 16.2915 17C16.1101 17 15.9288 16.9306 15.7907 16.7924L10.9564 11.9581C9.7997 12.8945 8.32991 13.4583 6.7291 13.4583C3.01889 13.4583 0 10.4394 0 6.72914C0 3.01889 3.01886 0 6.72907 0C10.4393 0 13.4582 3.01893 13.4582 6.72918C13.4582 8.33 12.8944 9.7998 11.9579 10.9565ZM1.41666 6.72914C1.41666 9.65882 3.79946 12.0416 6.7291 12.0416C9.65872 12.0416 12.0415 9.65882 12.0415 6.72914C12.0415 3.79947 9.65875 1.41664 6.7291 1.41664C3.79946 1.41664 1.41666 3.79947 1.41666 6.72914Z" fill="#5A5A5A"/>
</symbol><symbol id="measuring-tape" viewBox="0 0 38 26">
<path fill-rule="evenodd" clip-rule="evenodd" d="M23.6698 19.1299H37.1837C37.6337 19.1299 38 19.5272 38 20.0156V22.1081V22.8288V25.3956C38 25.7295 37.7508 26 37.4434 26C37.1359 26 36.8867 25.7295 36.8867 25.3956V23.4332H30.9103C30.6028 23.4332 30.3537 23.1627 30.3537 22.8288C30.3537 22.495 30.6028 22.2245 30.9103 22.2245H36.8867V22.1081V20.3387H23.6698V22.2245H28.644C28.9515 22.2245 29.2006 22.495 29.2006 22.8288C29.2006 23.1627 28.9515 23.4332 28.644 23.4332H23.6698V24.54C23.6698 25.1489 23.2122 25.6442 22.6496 25.6442H11.8349C5.30916 25.6442 0 19.8922 0 12.8221C0 5.75199 5.30916 0 11.8349 0C17.0478 0 21.484 3.67052 23.0581 8.75128H25.0704C25.5548 8.75128 25.9487 9.13581 26.0506 9.70825L26.8125 14.0052C26.8774 14.367 26.8109 14.702 26.6249 14.9471C26.4463 15.1824 26.174 15.312 25.8582 15.312H23.6698V19.1299ZM25.6962 14.1033L24.9615 9.9599H23.3723C23.5668 10.8805 23.6698 11.8386 23.6698 12.8221V14.1033H25.6962ZM1.12768 13.4265H3.15563L3.22852 13.427C3.24225 13.4271 3.25664 13.4273 3.27164 13.4273C3.42186 13.4273 3.62744 13.4122 3.79763 13.2245C3.98228 13.0209 3.97679 12.7793 3.97375 12.6495C3.97278 12.6075 3.97182 12.5641 3.97375 12.507C4.02815 10.8882 4.5033 9.33025 5.34791 8.00148C5.52254 7.72678 5.45894 7.35039 5.20593 7.16078C4.95299 6.97117 4.60616 7.04023 4.4316 7.31493C3.50906 8.76643 2.97216 10.4569 2.87227 12.2177H1.12768C1.40941 6.29357 5.8088 1.52861 11.2783 1.22418V3.11355C9.52509 3.22918 7.86073 3.89099 6.45154 5.03539C6.20536 5.23523 6.15504 5.61404 6.33917 5.88132C6.4485 6.04007 6.61586 6.12371 6.78538 6.12371C6.90138 6.12371 7.01835 6.08455 7.11832 6.00332C8.40483 4.9586 9.9344 4.37302 11.5423 4.30976C11.5952 4.30765 11.6369 4.30866 11.6699 4.30945L11.6728 4.30952L11.6754 4.30957C11.7967 4.31193 12.019 4.31626 12.2051 4.11669C12.395 3.91325 12.3932 3.67147 12.3919 3.49484V3.49477L12.3916 1.22418C18.0458 1.53901 22.5565 6.62065 22.5565 12.822V19.7341V21.3362H12.262C11.7195 21.3362 11.2783 21.8149 11.2783 22.4032V24.4199C5.80888 24.1155 1.40949 19.3506 1.12768 13.4265ZM12.3916 24.4355H22.5566V22.8288V22.545H12.3916V24.4355Z" fill="black"/>
<path fill-rule="evenodd" clip-rule="evenodd" d="M17.1984 19.9333H11.8759C8.38314 19.9333 5.5415 17.0169 5.5415 13.4322C5.5415 9.84872 8.38314 6.93333 11.8759 6.93333C15.3676 6.93333 18.2082 9.8488 18.2082 13.4322V18.8937C18.2082 19.4669 17.7552 19.9333 17.1984 19.9333ZM17.0827 13.4322C17.0827 10.487 14.7469 8.09082 11.8759 8.09082C9.00375 8.09082 6.66702 10.487 6.66702 13.4322C6.66702 16.3787 9.00375 18.7759 11.8759 18.7759H17.0827V13.4322Z" fill="black"/>
<path fill-rule="evenodd" clip-rule="evenodd" d="M13.8987 15.6H9.85167C9.22134 15.6 8.7085 15.1112 8.7085 14.5103V12.354C8.7085 11.7545 9.22134 11.2667 9.85167 11.2667H13.8987C14.529 11.2667 15.0418 11.7545 15.0418 12.354V14.5103C15.0418 15.1112 14.529 15.6 13.8987 15.6ZM13.7703 12.4773H9.98001V14.3894H13.7703V12.4773Z" fill="black"/>
</symbol><symbol id="pinterest" viewBox="0 0 16 16">
<path d="M15.5 8C15.5 3.71875 12.0312 0.25 7.75 0.25C3.46875 0.25 0 3.71875 0 8C0 11.3125 2.03125 14.0938 4.90625 15.2188C4.84375 14.625 4.78125 13.6875 4.9375 13C5.09375 12.4062 5.84375 9.15625 5.84375 9.15625C5.84375 9.15625 5.625 8.6875 5.625 8C5.625 6.9375 6.25 6.125 7.03125 6.125C7.6875 6.125 8 6.625 8 7.21875C8 7.875 7.5625 8.875 7.34375 9.8125C7.1875 10.5625 7.75 11.1875 8.5 11.1875C9.875 11.1875 10.9375 9.75 10.9375 7.65625C10.9375 5.78125 9.59375 4.5 7.71875 4.5C5.5 4.5 4.21875 6.15625 4.21875 7.84375C4.21875 8.53125 4.46875 9.25 4.78125 9.625C4.84375 9.6875 4.84375 9.78125 4.84375 9.84375C4.78125 10.0938 4.625 10.625 4.625 10.7188C4.59375 10.875 4.5 10.9062 4.34375 10.8438C3.375 10.375 2.78125 8.96875 2.78125 7.8125C2.78125 5.375 4.5625 3.125 7.90625 3.125C10.5938 3.125 12.6875 5.0625 12.6875 7.625C12.6875 10.2812 11 12.4375 8.65625 12.4375C7.875 12.4375 7.125 12.0312 6.875 11.5312C6.875 11.5312 6.5 13.0312 6.40625 13.375C6.21875 14.0625 5.75 14.9062 5.4375 15.4062C6.15625 15.6562 6.9375 15.75 7.75 15.75C12.0312 15.75 15.5 12.2812 15.5 8Z" fill="#707070"/>
</symbol><symbol id="play-button" viewBox="0 0 80 80">
<path fill-rule="evenodd" clip-rule="evenodd" d="M40 80C62.0914 80 80 62.0914 80 40C80 17.9086 62.0914 0 40 0C17.9086 0 0 17.9086 0 40C0 62.0914 17.9086 80 40 80Z" fill="#363838" fill-opacity="0.4"/>
<g filter="url(#filter0_d)">
<path fill-rule="evenodd" clip-rule="evenodd" d="M58.5 39.634C59.1667 40.0189 59.1667 40.9811 58.5 41.366L32.25 56.5215C31.5833 56.9064 30.75 56.4252 30.75 55.6554L30.75 25.3446C30.75 24.5748 31.5833 24.0936 32.25 24.4785L58.5 39.634Z" fill="white" fill-opacity="0.93"/>
</g>

</symbol><symbol id="sofa" viewBox="0 0 38 34">
<path fill-rule="evenodd" clip-rule="evenodd" d="M35.7416 9.63027H36.3301C37.2509 9.63027 38 10.4676 38 11.4969V23.0395C38 24.755 36.7515 26.1506 35.2168 26.1506H33.4832V32.2521C33.4832 33.2158 32.7817 34 31.9194 34C31.1027 34 30.4175 33.2866 30.3596 32.3759L29.9637 26.1505H13.8053C13.4979 26.1505 13.2486 25.8719 13.2486 25.5283C13.2486 25.1847 13.4979 24.9061 13.8053 24.9061H35.2167C36.1376 24.9061 36.8866 24.0687 36.8866 23.0394V11.4968C36.8866 11.1537 36.637 10.8746 36.33 10.8746H34.0398C33.7713 10.8746 33.5466 11.0882 33.4946 11.3716C33.4871 11.412 33.4832 11.4539 33.4832 11.4968V14.4762H34.3797C35.1277 14.4762 35.7363 15.1565 35.7363 15.9927V19.5853C35.7363 20.4215 35.1277 21.1018 34.3797 21.1018H3.62032C2.87227 21.1018 2.26367 20.4216 2.26367 19.5854V15.9928C2.26367 15.1566 2.87227 14.4763 3.62032 14.4763H4.51673V11.4969C4.51673 11.454 4.5128 11.4121 4.50537 11.3716C4.45342 11.0884 4.22861 10.8747 3.96009 10.8747H1.66992C1.36295 10.8747 1.11328 11.1538 1.11328 11.4969V23.0394C1.11328 24.0687 1.86237 24.9061 2.7832 24.9061H11.2077C11.5151 24.9061 11.7643 25.1847 11.7643 25.5283C11.7643 25.8719 11.5151 26.1505 11.2077 26.1505H8.03618L7.64023 32.3759C7.58234 33.2866 6.89715 34 6.08045 34C5.21825 34 4.51673 33.2159 4.51673 32.2521V26.1506H2.7832C1.24851 26.1506 0 24.755 0 23.0395V11.4969C0 10.4676 0.74909 9.63027 1.66992 9.63027H2.2584V2.86218C2.2584 1.284 3.40709 0 4.81895 0H16.9961C17.807 0 18.5305 0.424017 19 1.08356C19.4695 0.424017 20.193 0 21.0039 0H33.181C34.431 0 35.4922 0.998028 35.7043 2.37328C35.7565 2.71193 35.5532 3.03374 35.2503 3.09215C34.9472 3.15038 34.6594 2.92332 34.6072 2.58467C34.4874 1.80798 33.8877 1.24442 33.181 1.24442H21.0038C20.2058 1.24442 19.5566 1.97017 19.5566 2.86218V14.5007L19.5664 14.4986L19.5817 14.4951C19.6767 14.4733 19.7767 14.4734 24.7254 14.4749H24.7258H24.7261H24.7264H24.727H24.7278H24.7287C26.5441 14.4755 29.0116 14.4763 32.3699 14.4763V11.4969C32.3699 10.4676 33.119 9.63027 34.0398 9.63027H34.6283V5.38064C34.6283 5.03702 34.8775 4.75843 35.185 4.75843C35.4924 4.75843 35.7416 5.03702 35.7416 5.38064V9.63027ZM6.67484 32.2862L7.00971 26.122H5.90291V32.2504C5.90291 32.5292 6.07624 32.7561 6.28936 32.7561C6.4912 32.7561 6.66052 32.5497 6.67484 32.2862ZM34.6796 19.6298C34.6796 19.7802 34.57 19.9024 34.4353 19.9024H19.5534V18.2513V16.0287C19.5534 15.8783 19.663 15.7561 19.7977 15.7561H34.4353C34.57 15.7561 34.6796 15.8784 34.6796 16.0287V19.6298ZM3.32039 9.63735H3.911C4.83516 9.63735 5.58695 10.4754 5.58695 11.5057V14.4878C8.96849 14.4878 11.4515 14.487 13.2767 14.4865H13.2807H13.2808C18.2558 14.485 18.3405 14.4849 18.4198 14.5057C18.4274 14.5077 18.4349 14.5098 18.4466 14.5122V2.86312C18.4466 1.97031 17.795 1.2439 16.9941 1.2439H4.77288C3.972 1.2439 3.32039 1.97031 3.32039 2.86312V9.63735ZM3.32039 19.6299V16.0288C3.32039 15.8784 3.43 15.7561 3.56472 15.7561H18.2023C18.337 15.7561 18.4466 15.8784 18.4466 16.0288V18.2514V19.9024H3.56472C3.43 19.9024 3.32039 19.7802 3.32039 19.6299ZM31.7106 32.7561C31.9237 32.7561 32.0971 32.5293 32.0971 32.2504V26.122H30.9903L31.3251 32.2862C31.3395 32.5497 31.5088 32.7561 31.7106 32.7561Z" fill="black"/>
</symbol><symbol id="whatsapp" viewBox="0 0 14 14">
<path d="M11.875 2.0625C10.5938 0.75 8.84375 0 6.96875 0C3.15625 0 0.03125 3.125 0.03125 6.9375C0.03125 8.1875 0.375 9.375 0.96875 10.4062L0 14L3.65625 13.0625C4.6875 13.5938 5.8125 13.9062 6.96875 13.9062C10.8125 13.9062 14 10.7812 14 6.96875C14 5.09375 13.1875 3.375 11.875 2.0625ZM6.96875 12.7188C5.9375 12.7188 4.9375 12.4375 4.03125 11.9062L3.84375 11.7812L1.65625 12.375L2.25 10.25L2.09375 10.0312C1.53125 9.09375 1.21875 8.03125 1.21875 6.9375C1.21875 3.78125 3.8125 1.1875 7 1.1875C8.53125 1.1875 9.96875 1.78125 11.0625 2.875C12.1562 3.96875 12.8125 5.40625 12.8125 6.96875C12.8125 10.125 10.1562 12.7188 6.96875 12.7188ZM10.1562 8.40625C9.96875 8.3125 9.125 7.90625 8.96875 7.84375C8.8125 7.78125 8.6875 7.75 8.5625 7.9375C8.46875 8.09375 8.125 8.5 8.03125 8.625C7.90625 8.71875 7.8125 8.75 7.65625 8.65625C6.625 8.15625 5.96875 7.75 5.28125 6.59375C5.09375 6.28125 5.46875 6.3125 5.78125 5.65625C5.84375 5.53125 5.8125 5.4375 5.78125 5.34375C5.75 5.25 5.375 4.40625 5.25 4.0625C5.09375 3.71875 4.96875 3.75 4.84375 3.75C4.75 3.75 4.625 3.75 4.53125 3.75C4.40625 3.75 4.21875 3.78125 4.0625 3.96875C3.90625 4.15625 3.46875 4.5625 3.46875 5.40625C3.46875 6.28125 4.0625 7.09375 4.15625 7.21875C4.25 7.3125 5.375 9.0625 7.125 9.8125C8.21875 10.3125 8.65625 10.3438 9.21875 10.25C9.53125 10.2188 10.2188 9.84375 10.375 9.4375C10.5312 9.03125 10.5312 8.6875 10.4688 8.625C10.4375 8.53125 10.3125 8.5 10.1562 8.40625Z" fill="#707070"/>
</symbol><symbol id="youtube" viewBox="0 0 18 12">
<path d="M17.1562 1.90625C16.9688 1.15625 16.375 0.5625 15.6562 0.375C14.3125 0 9 0 9 0C9 0 3.65625 0 2.3125 0.375C1.59375 0.5625 1 1.15625 0.8125 1.90625C0.4375 3.21875 0.4375 6.03125 0.4375 6.03125C0.4375 6.03125 0.4375 8.8125 0.8125 10.1562C1 10.9062 1.59375 11.4688 2.3125 11.6562C3.65625 12 9 12 9 12C9 12 14.3125 12 15.6562 11.6562C16.375 11.4688 16.9688 10.9062 17.1562 10.1562C17.5312 8.8125 17.5312 6.03125 17.5312 6.03125C17.5312 6.03125 17.5312 3.21875 17.1562 1.90625ZM7.25 8.5625V3.5L11.6875 6.03125L7.25 8.5625Z" fill="#707070"/>
</symbol></svg>