<?xml version="1.0" standalone="no"?>
<!DOCTYPE svg PUBLIC "-//W3C//DTD SVG 20010904//EN"
 "http://www.w3.org/TR/2001/REC-SVG-20010904/DTD/svg10.dtd">
<svg version="1.0" xmlns="http://www.w3.org/2000/svg"
 width="330.000000pt" height="330.000000pt" viewBox="0 0 330.000000 330.000000"
 preserveAspectRatio="xMidYMid meet">
<metadata>
Created by potrace 1.14, written by Peter Selinger 2001-2017
</metadata>
<g transform="translate(0.000000,330.000000) scale(0.100000,-0.100000)"
fill="#000000" stroke="none">
<path d="M1466 3286 c5 -14 -77 -26 -182 -26 -34 0 -67 -8 -100 -25 -27 -14
-76 -29 -108 -35 -32 -5 -75 -20 -95 -34 -20 -13 -48 -26 -63 -30 -14 -3 -40
-17 -56 -31 -17 -14 -37 -25 -46 -25 -8 0 -31 -13 -49 -30 -19 -16 -42 -30
-51 -30 -8 0 -25 -13 -38 -30 -12 -16 -28 -30 -35 -30 -7 0 -39 -21 -71 -46
-31 -25 -72 -57 -91 -72 -18 -15 -42 -46 -53 -69 -11 -23 -28 -45 -39 -48 -10
-4 -19 -11 -19 -16 0 -5 -13 -23 -30 -41 -16 -17 -30 -39 -30 -48 0 -9 -11
-22 -25 -28 -14 -7 -30 -23 -35 -37 -5 -14 -21 -42 -35 -63 -14 -20 -25 -44
-25 -53 0 -8 -13 -30 -29 -48 -16 -18 -32 -45 -36 -59 -4 -15 -12 -34 -19 -42
-21 -24 -36 -79 -36 -127 0 -36 -4 -46 -20 -50 -20 -5 -20 -14 -20 -469 0
-303 3 -464 10 -464 6 0 10 8 10 17 0 13 3 14 11 6 6 -6 12 -47 13 -91 1 -68
5 -84 28 -118 16 -22 28 -48 28 -58 0 -9 13 -29 29 -44 17 -16 31 -42 35 -64
4 -21 15 -43 25 -50 10 -7 26 -30 34 -51 9 -20 20 -37 25 -37 5 0 23 -21 40
-47 69 -105 83 -123 95 -123 7 0 18 -13 24 -30 8 -20 18 -30 32 -30 13 0 25
-9 31 -24 4 -13 20 -26 33 -30 14 -3 27 -15 30 -25 3 -11 22 -27 43 -36 22 -9
51 -28 66 -43 52 -51 70 -64 114 -79 24 -8 50 -23 57 -32 6 -10 28 -23 49 -30
20 -7 39 -18 42 -26 5 -15 66 -35 105 -35 14 0 41 -11 61 -25 22 -15 62 -30
100 -36 35 -5 68 -13 73 -16 19 -12 65 -14 366 -20 254 -5 306 -3 315 8 6 8
49 22 95 32 47 9 92 24 101 32 9 8 40 19 69 25 57 11 66 14 96 40 11 10 32 20
48 24 15 4 36 15 46 25 10 10 35 24 54 30 19 7 41 19 48 27 7 8 29 22 48 30
20 8 47 26 61 39 14 13 39 38 57 55 17 16 36 30 42 30 6 0 18 11 27 25 9 13
25 27 36 30 10 4 24 18 30 31 6 13 19 26 29 29 11 4 22 17 25 30 3 13 17 31
30 40 13 8 24 21 24 27 0 6 16 26 35 44 26 23 35 40 35 63 0 24 6 34 23 40 15
6 27 23 35 48 6 22 23 50 37 63 14 13 25 29 25 35 0 7 11 24 24 40 26 30 36
65 36 129 0 29 8 53 24 74 13 18 29 59 35 92 8 40 17 60 27 60 12 0 14 48 14
330 0 287 -2 330 -15 330 -8 0 -15 2 -15 4 0 31 -35 164 -46 172 -8 6 -18 42
-23 83 -7 53 -17 83 -40 118 -17 25 -31 52 -31 59 0 7 -9 18 -19 24 -11 5 -27
32 -36 60 -9 27 -21 50 -26 50 -6 0 -16 15 -24 33 -7 18 -25 38 -39 45 -14 6
-26 20 -26 30 0 10 -16 33 -35 52 -19 19 -35 40 -35 47 0 7 -11 20 -25 29 -13
9 -27 25 -30 36 -4 10 -17 24 -30 30 -12 5 -29 21 -36 34 -7 13 -18 24 -26 24
-7 0 -23 10 -35 22 -49 49 -129 108 -146 108 -10 0 -29 11 -42 25 -12 13 -39
30 -58 36 -20 7 -44 20 -54 29 -10 9 -37 23 -60 29 -23 7 -53 21 -67 31 -14
11 -55 24 -91 30 -36 7 -72 17 -80 24 -27 23 -81 36 -150 36 -90 0 -130 9
-131 29 0 10 -2 11 -6 4 -6 -15 -63 -18 -63 -3 0 6 -52 10 -135 10 -109 0
-133 -3 -129 -14z m458 -220 c54 -14 113 -26 132 -26 20 0 44 -9 61 -24 16
-13 47 -28 68 -31 22 -4 49 -15 60 -25 28 -25 60 -40 84 -40 12 0 31 -11 43
-25 12 -14 39 -30 60 -36 23 -6 38 -16 38 -25 0 -9 14 -21 30 -27 17 -6 33
-19 36 -29 3 -10 20 -26 37 -34 17 -9 57 -44 89 -78 32 -33 72 -75 88 -92 17
-16 30 -35 30 -42 0 -6 11 -19 25 -28 14 -9 25 -24 25 -33 0 -9 14 -34 30 -55
17 -22 30 -47 30 -56 0 -10 14 -34 30 -55 17 -21 30 -46 30 -57 0 -10 10 -29
23 -42 18 -18 26 -44 36 -110 10 -64 19 -94 36 -112 20 -22 22 -37 29 -185 4
-89 4 -232 0 -318 -6 -142 -8 -159 -30 -192 -16 -23 -27 -59 -33 -108 -6 -49
-16 -80 -29 -94 -11 -12 -25 -40 -32 -62 -7 -22 -21 -46 -30 -52 -10 -7 -23
-35 -30 -63 -7 -27 -16 -50 -22 -50 -5 0 -16 -16 -24 -35 -8 -19 -18 -35 -22
-35 -5 0 -33 -32 -63 -72 -30 -39 -66 -83 -81 -97 -16 -14 -28 -31 -28 -38 0
-8 -12 -18 -26 -24 -15 -5 -36 -18 -48 -29 -64 -58 -119 -100 -130 -100 -7 0
-25 -11 -40 -25 -15 -14 -33 -25 -41 -25 -24 0 -65 -23 -65 -36 0 -13 -22 -24
-49 -24 -9 0 -43 -13 -76 -30 -33 -16 -72 -30 -87 -30 -36 0 -80 -17 -95 -37
-21 -28 -324 -41 -573 -26 -115 8 -140 12 -165 31 -17 12 -55 26 -85 32 -30 6
-73 19 -95 30 -22 11 -59 25 -82 30 -27 7 -44 17 -48 30 -7 21 -76 46 -101 36
-8 -3 -11 0 -8 8 7 17 -22 40 -41 32 -9 -3 -14 -2 -12 2 3 4 -7 16 -21 27 -14
11 -37 31 -52 45 -38 35 -87 70 -99 70 -5 0 -13 13 -19 28 -5 16 -37 57 -71
93 -101 105 -108 113 -115 137 -4 12 -16 27 -26 32 -12 6 -23 30 -30 65 -6 30
-22 68 -34 83 -13 15 -27 42 -31 60 -3 18 -17 45 -29 60 -17 19 -25 46 -30 96
-4 38 -17 92 -29 120 -21 48 -22 66 -22 291 0 226 1 243 22 291 13 29 27 89
32 135 5 46 14 85 20 87 15 5 41 56 41 79 0 10 14 38 30 62 17 24 30 54 30 66
0 12 13 39 30 60 17 21 30 43 30 50 0 14 26 44 132 155 43 44 82 80 87 80 5 0
13 9 16 20 3 11 13 20 21 20 8 0 23 13 32 30 9 16 24 30 33 30 9 0 27 11 41
25 14 14 40 31 59 39 19 8 43 24 53 35 11 12 28 21 38 21 26 0 60 19 76 42 7
10 24 18 38 18 31 0 94 26 94 39 0 5 21 12 48 16 57 7 169 33 197 46 29 13
120 17 295 13 126 -2 173 -8 254 -28z m1193 -1658 c-3 -8 -6 -5 -6 6 -1 11 2
17 5 13 3 -3 4 -12 1 -19z m59 -265 c-10 -10 -19 5 -10 18 6 11 8 11 12 0 2
-7 1 -15 -2 -18z"/>
<path d="M1692 2943 c-13 -3 -32 -19 -43 -36 -19 -31 -19 -60 -17 -1285 3
-1240 3 -1254 23 -1269 30 -23 228 -12 281 15 22 11 59 23 84 27 60 9 112 25
130 40 8 7 33 18 55 25 22 7 49 20 60 30 11 10 41 27 68 38 26 12 47 26 47 32
0 6 11 15 24 21 13 6 29 22 35 35 6 13 16 24 24 24 23 0 177 137 177 158 0 7
6 12 13 12 19 0 50 37 42 49 -3 6 2 11 12 11 24 0 43 19 43 42 0 10 9 26 21
36 11 9 28 34 36 55 8 21 24 42 34 47 10 6 23 28 29 51 6 22 22 61 35 86 14
25 25 58 25 73 0 15 9 38 19 52 36 45 44 104 44 323 0 225 -11 311 -43 340
-11 10 -20 31 -20 47 0 35 -25 98 -39 98 -6 0 -13 16 -17 36 -4 20 -19 50 -34
68 -15 17 -30 43 -34 59 -3 15 -15 36 -26 47 -10 10 -26 32 -34 49 -9 16 -24
32 -35 36 -10 3 -21 14 -24 25 -3 11 -16 24 -30 29 -13 5 -27 21 -31 35 -3 13
-14 27 -24 30 -10 4 -28 20 -40 36 -13 17 -29 30 -37 30 -7 0 -16 9 -20 19 -3
11 -21 29 -40 40 -19 11 -35 24 -35 30 0 5 -19 16 -42 26 -23 9 -52 27 -65 41
-12 13 -31 24 -41 24 -10 0 -31 11 -46 23 -15 13 -51 29 -79 36 -28 6 -61 21
-73 32 -15 14 -45 22 -109 30 -49 5 -94 14 -99 18 -12 10 -120 32 -145 30 -9
-1 -26 -4 -39 -6z m28 -33 c17 -10 13 -17 -15 -22 -12 -2 -21 3 -23 15 -4 18
14 22 38 7z m170 -185 c0 -19 -11 -19 -36 0 -18 14 -18 14 9 15 17 0 27 -5 27
-15z m100 -79 c0 -41 -9 -49 -45 -40 -19 5 -25 13 -25 34 0 30 10 38 48 39 19
1 22 -4 22 -33z m-120 -132 c0 -29 -3 -35 -16 -30 -9 3 -24 6 -35 6 -14 0 -19
7 -19 30 0 28 3 30 35 30 34 0 35 -2 35 -36z m240 2 c0 -24 -5 -35 -19 -39
-16 -4 -18 1 -17 34 0 30 5 39 18 39 14 0 18 -8 18 -34z m250 -27 c0 -5 -7 -9
-15 -9 -15 0 -20 12 -9 23 8 8 24 -1 24 -14z m-70 -53 c0 -3 -4 -8 -10 -11 -5
-3 -10 -1 -10 4 0 6 5 11 10 11 6 0 10 -2 10 -4z m-300 -46 c0 -28 -3 -30 -37
-30 l-36 0 29 30 c37 37 44 37 44 0z m290 -17 c0 -8 -14 -13 -35 -13 -32 0
-43 8 -30 22 11 10 65 3 65 -9z m-80 -43 c0 -5 -5 -10 -11 -10 -5 0 -7 5 -4
10 3 6 8 10 11 10 2 0 4 -4 4 -10z m-330 -77 l0 -57 -20 22 c-12 12 -27 22
-35 22 -8 0 -15 5 -15 10 0 6 9 10 20 10 13 0 20 7 20 18 0 10 3 22 7 25 16
17 23 3 23 -50z m516 7 c23 0 16 -14 -16 -32 -27 -15 -32 -16 -36 -3 -9 23 4
48 22 41 9 -3 22 -6 30 -6z m-276 -13 c0 -8 -11 -19 -25 -25 -14 -7 -28 -19
-31 -27 -4 -8 -11 -15 -16 -15 -13 0 1 63 16 72 19 13 56 9 56 -5z m430 -107
c-12 -11 -27 -17 -32 -14 -14 9 12 34 35 34 19 0 19 -1 -3 -20z m-267 3 c3 -5
8 -23 12 -40 5 -26 3 -33 -9 -33 -9 0 -16 5 -16 10 0 6 -9 10 -19 10 -19 0
-31 18 -31 46 0 15 55 21 63 7z m-283 -10 c0 -5 -4 -14 -9 -22 -7 -10 -13 -11
-30 -2 -12 7 -19 16 -16 22 7 11 55 12 55 2z m479 -74 c-16 -10 -23 -4 -14 10
3 6 11 8 17 5 6 -4 5 -9 -3 -15z m-51 -99 c7 0 12 -7 12 -16 0 -13 -7 -15 -31
-10 -17 3 -40 6 -51 6 -16 0 -19 6 -17 33 4 49 9 51 43 18 18 -17 37 -31 44
-31z m238 34 c-3 -9 -6 -24 -6 -35 0 -16 -7 -19 -41 -19 -24 0 -38 4 -34 10 3
6 15 10 26 10 10 0 19 6 19 13 0 15 20 37 33 37 5 0 6 -7 3 -16z m-776 -19
c13 -16 6 -35 -15 -35 -18 0 -28 17 -21 35 7 19 20 19 36 0z m193 -21 c11 -11
-5 -34 -24 -34 -12 0 -19 7 -19 20 0 19 28 28 43 14z m101 -45 c-6 -11 -24 -2
-24 11 0 5 7 7 15 4 8 -4 12 -10 9 -15z m623 -63 c15 -13 26 -26 23 -29 -3 -2
-24 -7 -47 -10 -47 -6 -54 5 -31 43 16 25 21 25 55 -4z m-536 -7 c16 -11 29
-27 29 -35 0 -17 -5 -17 -30 -4 -13 7 -24 5 -43 -10 -30 -24 -37 -25 -37 -5 0
15 39 75 48 75 2 0 17 -9 33 -21z m267 -1 c-2 -18 -10 -23 -35 -23 -38 -1 -39
2 -15 26 25 26 54 24 50 -3z m-540 -5 c2 -9 -7 -13 -27 -13 -30 0 -39 9 -24
24 11 10 46 3 51 -11z m62 -43 c0 -5 -4 -10 -10 -10 -5 0 -10 5 -10 10 0 6 5
10 10 10 6 0 10 -4 10 -10z m326 -70 c13 0 24 -4 24 -9 0 -5 3 -16 6 -25 3 -9
1 -16 -5 -16 -6 0 -11 6 -11 14 0 9 -8 12 -24 9 -27 -6 -41 10 -31 35 5 12 9
13 12 5 3 -7 16 -13 29 -13z m284 -9 c-13 -26 -27 -34 -35 -21 -11 18 3 40 25
40 17 0 19 -3 10 -19z m-792 -15 c9 -19 8 -27 -4 -36 -12 -10 -14 -8 -14 14 0
20 -5 26 -22 26 -19 0 -20 2 -8 10 24 15 36 12 48 -14z m242 13 c0 -11 -60
-69 -72 -69 -21 0 -4 40 25 58 37 24 47 26 47 11z m-305 -49 c3 -5 1 -10 -4
-10 -6 0 -11 5 -11 10 0 6 2 10 4 10 3 0 8 -4 11 -10z m905 0 c0 -5 -4 -10
-10 -10 -5 0 -10 5 -10 10 0 6 5 10 10 10 6 0 10 -4 10 -10z m-90 -10 c0 -5
-5 -10 -11 -10 -5 0 -7 5 -4 10 3 6 8 10 11 10 2 0 4 -4 4 -10z m-630 -85 c0
-33 -2 -35 -32 -35 -29 0 -33 3 -33 28 -1 31 10 42 43 42 19 0 22 -5 22 -35z
m278 19 c12 -8 22 -24 22 -36 0 -17 -4 -19 -25 -14 -14 4 -35 2 -46 -4 -11 -6
-30 -10 -42 -8 -21 4 -21 5 6 18 18 9 27 21 27 37 0 27 25 31 58 7z m521 7 c9
-6 10 -11 2 -15 -6 -4 -9 -12 -6 -17 4 -5 -1 -9 -9 -9 -19 0 -29 17 -22 35 6
17 15 18 35 6z m-269 -16 c0 -7 8 -19 18 -24 15 -9 15 -12 2 -21 -8 -5 -21 -8
-28 -5 -7 3 -21 -1 -32 -7 -22 -14 -35 -6 -27 17 4 8 17 15 31 15 19 0 23 4
19 20 -3 11 0 20 6 20 6 0 11 -7 11 -15z m308 -52 c2 -8 -6 -13 -21 -13 -34 0
-58 10 -51 22 8 13 67 6 72 -9z m-437 -50 c24 -7 12 -60 -15 -67 -40 -11 -46
-7 -46 32 0 44 7 55 29 46 9 -3 23 -8 32 -11z m-520 -36 c3 -20 4 -38 2 -40
-2 -2 -19 1 -37 7 -26 8 -35 17 -38 38 -4 23 0 28 21 31 41 6 46 3 52 -36z
m239 2 c0 -39 -1 -41 -26 -35 -20 5 -27 3 -31 -14 -3 -11 -9 -20 -14 -20 -17
0 -9 23 17 47 14 13 23 30 20 38 -4 12 6 22 27 24 4 1 7 -17 7 -40z m545 1 c9
-50 4 -57 -45 -62 -46 -4 -51 5 -15 28 14 9 25 26 25 38 0 23 8 36 21 36 4 0
10 -18 14 -40z m-475 -66 c0 -9 -5 -14 -12 -12 -18 6 -21 28 -4 28 9 0 16 -7
16 -16z m130 -14 c0 -5 -9 -14 -20 -20 -15 -8 -20 -8 -20 3 0 8 3 17 7 20 10
10 33 8 33 -3z m169 -9 c9 -6 10 -10 2 -16 -16 -9 -44 2 -36 15 8 12 16 12 34
1z m-489 -36 c0 -32 -2 -35 -29 -35 -40 0 -48 17 -19 45 34 34 48 31 48 -10z
m550 31 c0 -3 -4 -8 -10 -11 -5 -3 -10 -1 -10 4 0 6 5 11 10 11 6 0 10 -2 10
-4z m237 -21 c-5 -37 -17 -42 -17 -7 0 18 5 32 10 32 6 0 9 -11 7 -25z m-528
-4 c19 -12 6 -41 -19 -41 -13 0 -20 7 -20 18 0 31 14 39 39 23z m262 -30 c-7
-5 -11 -13 -8 -18 6 -10 -33 -33 -54 -33 -18 0 10 38 39 53 28 14 47 12 23 -2z
m160 -64 c-13 -12 -21 -15 -17 -7 3 8 9 23 12 33 5 13 10 15 17 8 8 -8 5 -18
-12 -34z m-761 1 c0 -4 -9 -8 -19 -8 -13 0 -21 -9 -26 -30 -6 -25 -11 -30 -38
-30 -26 0 -29 2 -15 13 9 6 18 24 22 39 5 22 11 26 41 25 19 -1 35 -5 35 -9z
m468 -23 c-4 -17 -1 -25 8 -25 24 0 15 -18 -11 -24 -35 -9 -42 -3 -43 39 -1
31 1 35 24 35 23 0 26 -4 22 -25z m237 6 c-8 -13 -35 -15 -35 -2 0 5 8 11 18
13 21 5 26 2 17 -11z m-795 -1 c0 -5 -5 -10 -11 -10 -5 0 -7 5 -4 10 3 6 8 10
11 10 2 0 4 -4 4 -10z m825 -50 c-5 -8 -11 -8 -17 -2 -6 6 -7 16 -3 22 5 8 11
8 17 2 6 -6 7 -16 3 -22z m-535 12 c0 -13 -12 -22 -22 -16 -10 6 -1 24 13 24
5 0 9 -4 9 -8z m480 -46 c0 -14 -29 -31 -38 -22 -2 3 -2 12 1 21 8 19 37 20
37 1z m-520 -11 c0 -16 -27 -32 -37 -21 -7 7 16 36 28 36 5 0 9 -7 9 -15z
m100 11 c0 -3 -4 -8 -10 -11 -5 -3 -10 -1 -10 4 0 6 5 11 10 11 6 0 10 -2 10
-4z m180 -16 c0 -5 -5 -10 -11 -10 -5 0 -7 5 -4 10 3 6 8 10 11 10 2 0 4 -4 4
-10z m-360 -67 c0 -27 -12 -38 -42 -41 -24 -2 -28 1 -28 21 0 31 7 37 42 37
20 0 28 -5 28 -17z m268 -9 c2 -16 -2 -20 -20 -19 -16 1 -24 9 -26 24 -3 19 0
22 20 19 14 -2 24 -11 26 -24z m272 22 c0 -2 -3 -11 -6 -20 -5 -12 -10 -13
-25 -5 -23 12 -16 29 12 29 10 0 19 -2 19 -4z m-60 -28 c0 -7 -4 -19 -9 -27
-11 -17 -23 1 -15 23 7 19 24 21 24 4z m-94 -114 c-3 -7 4 -16 15 -19 18 -6
23 -28 6 -26 -4 1 -23 1 -42 1 -34 0 -35 1 -29 28 10 39 12 41 35 35 11 -3 18
-11 15 -19z m-476 6 c0 -5 -10 -10 -22 -9 -22 0 -22 1 -3 9 11 5 21 9 23 9 1
1 2 -3 2 -9z m204 -25 c-4 -8 -8 -15 -10 -15 -2 0 -4 7 -4 15 0 8 4 15 10 15
5 0 7 -7 4 -15z m-234 -20 c0 -8 -4 -15 -10 -15 -5 0 -10 7 -10 15 0 8 5 15
10 15 6 0 10 -7 10 -15z m204 -11 c21 -8 20 -20 -1 -27 -10 -2 -26 -8 -35 -12
-21 -8 -25 14 -6 33 14 14 20 14 42 6z m198 -96 c13 3 19 1 15 -5 -9 -15 -58
-26 -68 -16 -5 5 -1 20 9 33 17 25 17 25 20 4 2 -17 8 -21 24 -16z m-284 -16
c4 -26 -23 -30 -54 -8 -18 14 -18 15 6 25 33 13 44 9 48 -17z m-83 -62 c3 -5
1 -10 -4 -10 -6 0 -11 5 -11 10 0 6 2 10 4 10 3 0 8 -4 11 -10z m191 -22 c10
-36 7 -78 -6 -78 -4 0 -10 10 -14 23 -9 33 -7 87 2 87 5 0 13 -15 18 -32z
m-232 -25 c4 -9 2 -21 -3 -26 -13 -13 -61 0 -61 17 0 27 54 35 64 9z"/>
</g>
</svg>
