<svg width="300" height="300" viewBox="0 0 300 300" xmlns="http://www.w3.org/2000/svg">
<path d="M27.7969 116.498L21.1235 139.758C23.1551 137.546 24.8524 136.08 26.2153 135.36C27.5783 134.615 29.057 134.242 30.6514 134.242C33.7373 134.242 36.0389 135.36 37.5562 137.598C39.0991 139.809 39.8706 142.368 39.8706 145.274C39.8706 152.217 37.3504 158.415 32.3101 163.867C27.8354 168.676 22.7437 171.08 17.0347 171.08C12.7915 171.08 8.30404 169.833 3.57227 167.338L15.376 126.411C15.9417 124.482 16.2246 123.158 16.2246 122.438C16.2246 121.821 15.9674 121.332 15.4531 120.972C14.7331 120.458 13.6401 120.239 12.1743 120.316L12.5986 118.773L25.4824 116.498H27.7969ZM12.9844 167.724C14.193 168.496 15.286 168.881 16.2632 168.881C17.6261 168.881 18.7705 168.611 19.6963 168.071C21.1621 167.197 22.6922 165.615 24.2866 163.327C25.9067 161.038 27.2568 158.273 28.3369 155.033C29.417 151.793 29.957 148.566 29.957 145.351C29.957 143.525 29.5456 142.137 28.7227 141.185C27.8997 140.234 26.9482 139.758 25.8682 139.758C24.068 139.758 22.4993 140.632 21.1621 142.381C20.262 143.512 19.2848 145.917 18.2305 149.594L12.9844 167.724ZM54.6831 155.535C54.4517 157.206 54.3359 158.582 54.3359 159.662C54.3359 161.591 54.8888 163.134 55.9946 164.291C57.1261 165.448 58.6305 166.027 60.5078 166.027C62.3079 166.027 64.1081 165.59 65.9082 164.715C67.734 163.841 69.8428 162.311 72.2344 160.125L73.3916 161.167C70.4342 164.741 67.554 167.287 64.751 168.804C61.9479 170.321 58.8491 171.08 55.4546 171.08C51.16 171.08 48.1898 170.051 46.5439 167.994C44.8981 165.937 44.0752 163.558 44.0752 160.858C44.0752 156.64 45.2967 152.423 47.7397 148.206C50.2085 143.988 53.5516 140.606 57.769 138.061C62.0122 135.515 66.2682 134.242 70.5371 134.242C72.6973 134.242 74.3302 134.756 75.436 135.785C76.5418 136.813 77.0947 138.112 77.0947 139.681C77.0947 141.558 76.5547 143.384 75.4746 145.158C73.9831 147.576 72.1058 149.53 69.8428 151.021C67.5798 152.487 65.0467 153.606 62.2437 154.377C60.3664 154.892 57.8462 155.278 54.6831 155.535ZM55.0303 153.529C57.2933 153.194 59.042 152.744 60.2764 152.179C61.5365 151.587 62.758 150.661 63.9409 149.401C65.1496 148.116 66.1911 146.508 67.0654 144.58C67.9398 142.625 68.377 140.799 68.377 139.102C68.377 138.382 68.1712 137.816 67.7598 137.405C67.374 136.993 66.8726 136.788 66.2554 136.788C65.021 136.788 63.6323 137.649 62.0894 139.372C59.2606 142.509 56.9076 147.228 55.0303 153.529ZM100.085 124.83L96.999 135.322H102.052L100.702 139.758H95.7261L89.2842 162.131C88.8727 163.52 88.667 164.574 88.667 165.294C88.667 165.628 88.7827 165.924 89.0142 166.181C89.2456 166.413 89.5028 166.528 89.7856 166.528C90.2228 166.528 90.6729 166.348 91.1357 165.988C92.3187 165.088 93.6945 163.52 95.2632 161.282L96.6133 162.131C94.8389 165.217 92.8844 167.48 90.75 168.92C88.6156 170.36 86.5197 171.08 84.4624 171.08C82.7137 171.08 81.3507 170.643 80.3735 169.769C79.422 168.868 78.9463 167.737 78.9463 166.374C78.9463 164.882 79.2806 162.967 79.9492 160.626L86.0439 139.758H80.7979L81.5693 136.903C84.861 135.695 87.6383 134.28 89.9014 132.66C92.1644 131.04 94.8903 128.43 98.0791 124.83H100.085ZM137.271 134.782L129.787 160.434L129.016 163.558C128.938 163.944 128.9 164.227 128.9 164.407C128.9 164.715 129.003 164.985 129.208 165.217C129.44 165.448 129.671 165.564 129.903 165.564C130.443 165.564 131.189 165.153 132.14 164.33C132.526 163.995 133.452 162.812 134.917 160.781L136.268 161.475C134.442 164.818 132.487 167.261 130.404 168.804C128.347 170.321 126.123 171.08 123.731 171.08C122.265 171.08 121.146 170.707 120.375 169.961C119.604 169.19 119.218 168.226 119.218 167.068C119.218 166.065 119.629 164.201 120.452 161.475L121.378 158.351C118.395 163.468 115.528 167.094 112.776 169.229C111.181 170.463 109.484 171.08 107.684 171.08C105.318 171.08 103.608 170.116 102.554 168.187C101.499 166.233 100.972 164.034 100.972 161.591C100.972 157.965 102.078 153.812 104.29 149.131C106.501 144.425 109.407 140.645 113.007 137.791C115.965 135.425 118.742 134.242 121.339 134.242C122.779 134.242 123.937 134.666 124.811 135.515C125.685 136.338 126.328 137.855 126.74 140.066L128.128 135.322L137.271 134.782ZM124.927 142.111C124.927 140.028 124.605 138.523 123.962 137.598C123.5 136.955 122.869 136.633 122.072 136.633C121.275 136.633 120.452 137.019 119.604 137.791C117.881 139.385 116.016 142.625 114.01 147.511C112.03 152.372 111.04 156.576 111.04 160.125C111.04 161.488 111.259 162.478 111.696 163.095C112.159 163.687 112.66 163.982 113.2 163.982C114.357 163.982 115.528 163.314 116.71 161.977C118.408 160.074 119.938 157.746 121.301 154.995C123.718 150.16 124.927 145.865 124.927 142.111ZM164.89 116.498L154.86 151.253C158.332 146.135 160.852 142.677 162.421 140.876C164.761 138.279 166.767 136.53 168.438 135.63C170.136 134.705 171.756 134.242 173.299 134.242C174.61 134.242 175.729 134.743 176.655 135.746C177.606 136.723 178.082 138.035 178.082 139.681C178.082 141.069 177.773 142.805 177.156 144.888L172.257 161.321C171.82 162.761 171.602 163.725 171.602 164.214C171.602 164.445 171.692 164.664 171.872 164.87C172.052 165.05 172.257 165.14 172.489 165.14C172.797 165.14 173.106 165.011 173.415 164.754C174.237 164.111 175.112 163.082 176.038 161.668C176.269 161.308 176.642 160.768 177.156 160.048L178.661 160.896C176.449 164.548 174.353 167.056 172.373 168.418C170.393 169.781 168.516 170.463 166.741 170.463C165.147 170.463 163.9 170.051 163 169.229C162.099 168.406 161.649 167.377 161.649 166.143C161.649 165.011 161.958 163.404 162.575 161.321L167.358 144.888C167.667 143.757 167.821 142.934 167.821 142.419C167.821 142.137 167.706 141.892 167.474 141.687C167.268 141.455 167.024 141.339 166.741 141.339C165.815 141.339 164.542 142.111 162.922 143.654C159.579 146.817 156.236 151.78 152.893 158.543L149.46 170H139.894L152.546 126.411C153.06 124.56 153.317 123.235 153.317 122.438C153.317 121.795 153.06 121.294 152.546 120.934C151.877 120.445 150.849 120.239 149.46 120.316L149.73 118.773L162.575 116.498H164.89ZM220.745 134.782L213.262 160.434L212.49 163.558C212.413 163.944 212.375 164.227 212.375 164.407C212.375 164.715 212.477 164.985 212.683 165.217C212.915 165.448 213.146 165.564 213.377 165.564C213.917 165.564 214.663 165.153 215.615 164.33C216 163.995 216.926 162.812 218.392 160.781L219.742 161.475C217.916 164.818 215.962 167.261 213.879 168.804C211.822 170.321 209.597 171.08 207.206 171.08C205.74 171.08 204.621 170.707 203.85 169.961C203.078 169.19 202.692 168.226 202.692 167.068C202.692 166.065 203.104 164.201 203.927 161.475L204.853 158.351C201.869 163.468 199.002 167.094 196.25 169.229C194.656 170.463 192.959 171.08 191.159 171.08C188.793 171.08 187.083 170.116 186.028 168.187C184.974 166.233 184.447 164.034 184.447 161.591C184.447 157.965 185.553 153.812 187.764 149.131C189.976 144.425 192.882 140.645 196.482 137.791C199.439 135.425 202.217 134.242 204.814 134.242C206.254 134.242 207.411 134.666 208.286 135.515C209.16 136.338 209.803 137.855 210.214 140.066L211.603 135.322L220.745 134.782ZM208.401 142.111C208.401 140.028 208.08 138.523 207.437 137.598C206.974 136.955 206.344 136.633 205.547 136.633C204.75 136.633 203.927 137.019 203.078 137.791C201.355 139.385 199.491 142.625 197.485 147.511C195.505 152.372 194.515 156.576 194.515 160.125C194.515 161.488 194.733 162.478 195.17 163.095C195.633 163.687 196.135 163.982 196.675 163.982C197.832 163.982 199.002 163.314 200.185 161.977C201.882 160.074 203.412 157.746 204.775 154.995C207.193 150.16 208.401 145.865 208.401 142.111ZM243.388 134.242L235.905 160.472C235.545 161.681 235.365 162.517 235.365 162.979C235.365 163.211 235.455 163.391 235.635 163.52C235.84 163.725 236.085 163.828 236.368 163.828C237.551 163.828 239.132 162.774 241.112 160.665C243.941 157.605 246.911 153.207 250.023 147.473L253.533 135.669L263.292 135.322L255.886 160.781C255.269 162.941 254.96 164.175 254.96 164.484C254.96 164.69 255.05 164.908 255.23 165.14C255.436 165.345 255.642 165.448 255.848 165.448C256.208 165.448 256.555 165.294 256.889 164.985C257.815 164.24 259.036 162.735 260.554 160.472L261.865 161.398C258.291 167.853 254.356 171.08 250.062 171.08C248.467 171.08 247.207 170.681 246.281 169.884C245.381 169.061 244.931 167.994 244.931 166.683C244.931 165.294 245.253 163.532 245.896 161.398L247.786 154.879C244.443 159.739 242.012 163.018 240.495 164.715C238.181 167.261 236.226 168.958 234.632 169.807C233.063 170.656 231.559 171.08 230.119 171.08C228.756 171.08 227.573 170.579 226.57 169.576C225.593 168.573 225.104 167.3 225.104 165.757C225.104 164.445 225.425 162.684 226.068 160.472L230.427 145.042C231.147 142.522 231.507 140.825 231.507 139.951C231.507 139.565 231.404 139.231 231.199 138.948C230.993 138.639 230.646 138.408 230.157 138.253C229.694 138.073 228.82 137.983 227.534 137.983L227.92 136.518L241.074 134.242H243.388ZM295.772 134.242L294.075 146.161H292.647C292.442 143.075 291.49 140.645 289.793 138.871C288.121 137.096 286.321 136.209 284.393 136.209C283.21 136.209 282.232 136.556 281.461 137.25C280.689 137.945 280.304 138.781 280.304 139.758C280.304 140.581 280.471 141.352 280.805 142.072C281.139 142.792 281.885 143.77 283.042 145.004C287.106 149.376 289.574 152.384 290.449 154.03C291.323 155.676 291.76 157.438 291.76 159.315C291.76 161.347 291.246 163.275 290.217 165.101C289.189 166.901 287.646 168.354 285.588 169.46C283.557 170.54 281.435 171.08 279.224 171.08C277.732 171.08 275.893 170.784 273.708 170.193C272.267 169.781 271.187 169.576 270.467 169.576C269.824 169.576 269.323 169.679 268.963 169.884C268.603 170.064 268.204 170.463 267.767 171.08H266.34L268.23 158.235H269.464C270.364 161.347 271.2 163.571 271.972 164.908C272.769 166.22 273.823 167.274 275.135 168.071C276.446 168.843 277.706 169.229 278.915 169.229C280.329 169.229 281.5 168.791 282.425 167.917C283.351 167.017 283.814 165.95 283.814 164.715C283.814 163.507 283.505 162.337 282.888 161.205C282.297 160.074 280.908 158.312 278.722 155.92C275.713 152.654 273.733 150.134 272.782 148.36C272.113 147.074 271.779 145.608 271.779 143.962C271.779 141.185 272.782 138.871 274.788 137.019C276.819 135.167 279.661 134.242 283.312 134.242C284.907 134.242 286.861 134.525 289.176 135.09C290.333 135.373 291.259 135.515 291.953 135.515C292.956 135.515 293.766 135.09 294.383 134.242H295.772Z" fill="#9F9F9F"/>
</svg>
