<svg width="300" height="300" viewBox="0 0 300 300" xmlns="http://www.w3.org/2000/svg">
<g clip-path="url(#clip0_1_9)">
<path d="M274.161 159.804H257.547L255.507 164.436H276.078L274.161 159.804Z" fill="#9F9F9F"/>
<path d="M237.021 187.44H231.711L263.298 112.8H268.287L300 187.599H294.609L266.094 120.39H265.575L237.021 187.44ZM197.325 163.719H191.37L209.022 187.44H214.971L197.325 163.719ZM13.779 150.498H47.244V155.37H13.779V150.498ZM13.779 112.479H53.91V117.351H13.779V112.479ZM0 112.479H5.031V187.479H0V112.479ZM160.104 112.479H165.135V187.479H160.104V112.479Z" fill="#9F9F9F"/>
<path fill-rule="evenodd" clip-rule="evenodd" d="M99.48 111.57C81.192 113.586 66.93 130.02 66.93 150C66.93 169.977 81.192 186.414 99.48 188.43V182.634C84.621 180.636 72.684 167.07 72.684 150C72.684 132.93 84.618 119.364 99.48 117.366V111.57ZM107.19 182.616C121.992 180.564 133.866 167.022 133.866 150C133.866 132.978 121.992 119.436 107.187 117.381V111.582C125.418 113.658 139.62 130.065 139.62 150C139.62 169.935 125.421 186.342 107.19 188.418V182.616ZM178.434 118.23H192.492C196.559 118.23 200.46 119.846 203.336 122.722C206.212 125.598 207.828 129.499 207.828 133.566V134.526C207.827 138.593 206.211 142.493 203.335 145.368C200.459 148.244 196.559 149.859 192.492 149.859H172.686V155.61H192.492C195.261 155.61 198.003 155.065 200.562 154.006C203.12 152.947 205.445 151.394 207.404 149.436C209.362 147.478 210.916 145.154 211.976 142.595C213.036 140.037 213.582 137.295 213.582 134.526V133.566C213.582 130.797 213.036 128.054 211.977 125.496C210.917 122.937 209.363 120.612 207.405 118.654C205.446 116.696 203.121 115.143 200.563 114.083C198.004 113.024 195.261 112.479 192.492 112.479H172.686V118.236H178.434V118.23Z" fill="#9F9F9F"/>
</g>
<defs>
<clipPath id="clip0_1_9">
<rect width="300" height="78" fill="white" transform="translate(0 111)"/>
</clipPath>
</defs>
</svg>
