<svg width="300" height="300" viewBox="0 0 300 300" fill="none" xmlns="http://www.w3.org/2000/svg">
<g clip-path="url(#clip0_2_17)">
<path d="M37.6066 128.729V129.697C36.3497 129.925 35.3979 130.326 34.752 130.902C33.8263 131.758 33.0059 133.067 32.2902 134.83L19.903 165.052H18.9341L5.63054 134.438C4.94972 132.866 4.46932 131.906 4.19012 131.557C3.75361 131.016 3.21675 130.592 2.57956 130.287C1.94211 129.982 1.08243 129.785 0 129.697V128.729H14.5083V129.697C12.867 129.855 11.8021 130.134 11.3134 130.535C10.8246 130.937 10.5803 131.452 10.5803 132.081C10.5803 132.954 10.9816 134.316 11.7848 136.166L20.82 156.986L29.2002 136.428C30.0206 134.403 30.431 132.997 30.431 132.211C30.431 131.705 30.1777 131.221 29.6716 130.758C29.165 130.296 28.3098 129.968 27.1051 129.776C27.0177 129.759 26.8696 129.733 26.6599 129.697V128.728L37.6066 128.729Z" fill="#9F9F9F"/>
<path d="M45.4841 160.783C43.0222 162.686 41.4772 163.786 40.8486 164.083C39.9058 164.519 38.9017 164.738 37.8369 164.738C36.1782 164.738 34.8122 164.17 33.7384 163.035C32.6647 161.901 32.1279 160.408 32.1279 158.557C32.1279 157.388 32.3899 156.375 32.9137 155.519C33.6294 154.332 34.8732 153.215 36.6454 152.167C38.4172 151.12 41.3634 149.846 45.4841 148.344V147.401C45.4841 145.009 45.1042 143.368 44.3449 142.477C43.5853 141.587 42.4811 141.142 41.0319 141.142C39.932 141.142 39.0587 141.439 38.413 142.032C37.7495 142.626 37.4179 143.307 37.4179 144.075L37.4702 145.594C37.4702 146.397 37.2649 147.017 36.8549 147.454C36.4443 147.89 35.9077 148.108 35.2443 148.108C34.5981 148.108 34.07 147.881 33.6599 147.427C33.2494 146.973 33.0446 146.353 33.0446 145.568C33.0446 144.067 33.8126 142.687 35.349 141.43C36.8851 140.173 39.0416 139.544 41.8177 139.544C43.9476 139.544 45.6937 139.903 47.0553 140.618C48.0854 141.16 48.8447 142.006 49.3336 143.159C49.648 143.91 49.805 145.446 49.805 147.768V155.912C49.805 158.2 49.8484 159.601 49.9359 160.115C50.0231 160.631 50.1671 160.976 50.3683 161.15C50.5687 161.325 50.8004 161.412 51.0622 161.412C51.3412 161.412 51.586 161.351 51.7953 161.228C52.1621 161.002 52.8691 160.364 53.9166 159.317V160.783C51.9612 163.402 50.0932 164.712 48.3123 164.712C47.4566 164.712 46.7759 164.415 46.2696 163.821C45.7632 163.228 45.5012 162.215 45.4841 160.783ZM45.4841 159.081V149.941C42.8477 150.989 41.1453 151.731 40.3772 152.167C38.9979 152.935 38.0112 153.738 37.4179 154.577C36.8243 155.415 36.5274 156.331 36.5274 157.326C36.5274 158.583 36.9026 159.627 37.6535 160.456C38.4039 161.285 39.2682 161.7 40.2461 161.7C41.5731 161.7 43.3191 160.827 45.4841 159.081Z" fill="#9F9F9F"/>
<path d="M61.9087 127V158.819C61.9087 160.321 62.0177 161.316 62.2361 161.805C62.4542 162.294 62.7899 162.665 63.2443 162.918C63.6984 163.171 64.5447 163.297 65.7844 163.297V164.24H54.026V163.297C55.1259 163.297 55.8763 163.184 56.2782 162.957C56.6794 162.73 56.9938 162.354 57.221 161.831C57.4476 161.307 57.5612 160.303 57.5612 158.819V137.03C57.5612 134.324 57.4999 132.662 57.378 132.042C57.2556 131.422 57.0593 130.999 56.7888 130.772C56.5178 130.545 56.1734 130.431 55.7544 130.431C55.2999 130.431 54.7238 130.571 54.026 130.85L53.5808 129.934L60.7302 127.001L61.9087 127Z" fill="#9F9F9F"/>
<path d="M73.6196 127V150.858L79.7216 145.306C81.0134 144.119 81.7644 143.368 81.9737 143.054C82.1134 142.845 82.1831 142.635 82.1831 142.425C82.1831 142.076 82.0389 141.775 81.751 141.522C81.4628 141.269 80.9868 141.125 80.3237 141.09V140.252H90.7463V141.09C89.3146 141.125 88.1231 141.343 87.1716 141.744C86.2198 142.146 85.1768 142.862 84.0421 143.892L77.8881 149.575L84.0421 157.353C85.753 159.5 86.9053 160.862 87.4991 161.438C88.3372 162.259 89.0704 162.791 89.6988 163.036C90.1351 163.211 90.8947 163.298 91.9774 163.298V164.241H80.3242V163.298C80.9873 163.281 81.4372 163.18 81.6727 162.997C81.9086 162.813 82.0264 162.556 82.0264 162.224C82.0264 161.823 81.6771 161.177 80.9788 160.286L73.6196 150.885V158.846C73.6196 160.4 73.7287 161.421 73.9471 161.91C74.1652 162.399 74.475 162.748 74.8766 162.957C75.2779 163.167 76.151 163.28 77.4954 163.298V164.24H65.2915V163.298C66.5136 163.298 67.43 163.15 68.0414 162.853C68.4082 162.661 68.6872 162.364 68.8796 161.962C69.1416 161.386 69.2722 160.391 69.2722 158.977V137.135C69.2722 134.359 69.2109 132.661 69.089 132.041C68.9666 131.422 68.7657 130.994 68.4864 130.758C68.207 130.522 67.8403 130.405 67.3866 130.405C67.0199 130.405 66.4702 130.553 65.7368 130.85L65.2915 129.933L72.4148 127L73.6196 127Z" fill="#9F9F9F"/>
<path d="M57.1251 173.222H53.8572V167.36H57.1251V167.965H54.5388V169.854H56.9688V170.455H54.5388V172.612H57.1251V173.222Z" fill="#9F9F9F"/>
<path d="M62.2105 173.222H61.4365L59.8606 170.644L58.2568 173.222H57.5352L59.4839 170.158L57.6675 167.36H58.4215L59.8771 169.681L61.3447 167.36H62.0704L60.2541 170.134L62.2105 173.222Z" fill="#9F9F9F"/>
<path d="M65.2794 167.885C64.6349 167.885 64.1266 168.099 63.7538 168.528C63.3809 168.958 63.1944 169.545 63.1944 170.291C63.1944 171.058 63.374 171.651 63.7338 172.069C64.093 172.488 64.6057 172.697 65.2714 172.697C65.6805 172.697 66.1467 172.623 66.6708 172.476V173.074C66.2643 173.226 65.7631 173.302 65.1672 173.302C64.3037 173.302 63.6375 173.04 63.1684 172.516C62.6993 171.993 62.4647 171.248 62.4647 170.283C62.4647 169.679 62.5774 169.15 62.8035 168.695C63.0293 168.241 63.3553 167.891 63.7817 167.644C64.208 167.399 64.7099 167.275 65.2873 167.275C65.9022 167.275 66.4393 167.388 66.8991 167.612L66.6105 168.197C66.1668 167.989 65.723 167.885 65.2794 167.885Z" fill="#9F9F9F"/>
<path d="M67.835 173.222V167.36H68.5165V172.604H71.1028V173.222H67.835Z" fill="#9F9F9F"/>
<path d="M76.327 167.36V171.153C76.327 171.821 76.1251 172.346 75.7216 172.729C75.3179 173.111 74.7634 173.302 74.0577 173.302C73.352 173.302 72.8059 173.11 72.4197 172.725C72.0332 172.34 71.8403 171.81 71.8403 171.137V167.359H72.5218V171.185C72.5218 171.674 72.6556 172.049 72.9227 172.311C73.1898 172.573 73.5827 172.704 74.1015 172.704C74.5961 172.704 74.977 172.573 75.2443 172.309C75.5115 172.046 75.6451 171.669 75.6451 171.177V167.359L76.327 167.36Z" fill="#9F9F9F"/>
<path d="M81.0718 171.662C81.0718 172.178 80.8847 172.58 80.5104 172.869C80.1359 173.158 79.628 173.302 78.9865 173.302C78.2913 173.302 77.7567 173.212 77.3826 173.033V172.376C77.6233 172.477 77.8851 172.558 78.1684 172.617C78.4517 172.675 78.7322 172.705 79.0104 172.705C79.4648 172.705 79.8069 172.619 80.0368 172.446C80.2668 172.274 80.3818 172.034 80.3818 171.726C80.3818 171.523 80.341 171.357 80.2594 171.227C80.1778 171.098 80.0413 170.978 79.8503 170.868C79.6591 170.759 79.3683 170.635 78.9782 170.496C78.4329 170.301 78.0431 170.069 77.8094 169.802C77.5754 169.535 77.4586 169.186 77.4586 168.755C77.4586 168.304 77.6282 167.944 77.9677 167.677C78.3069 167.41 78.7561 167.276 79.315 167.276C79.8977 167.276 80.4336 167.383 80.9229 167.597L80.7105 168.19C80.2265 167.987 79.7561 167.885 79.2991 167.885C78.9382 167.885 78.6559 167.963 78.453 168.118C78.2497 168.273 78.1481 168.488 78.1481 168.763C78.1481 168.967 78.1856 169.133 78.2605 169.263C78.3352 169.392 78.4615 169.511 78.6396 169.619C78.8171 169.728 79.0892 169.848 79.4556 169.978C80.0705 170.197 80.4934 170.433 80.7246 170.684C80.956 170.935 81.0718 171.261 81.0718 171.662Z" fill="#9F9F9F"/>
<path d="M82.1556 173.222V167.36H82.8371V173.222H82.1556Z" fill="#9F9F9F"/>
<path d="M87.5981 173.222H84.33V167.36H87.5979V167.965H85.0116V169.854H87.4415V170.455H85.0116V172.612H87.5979L87.5981 173.222Z" fill="#9F9F9F"/>
<path d="M89.4641 173.222H88.7824V167.36H92.0503V167.965H89.4641V170.11H91.894V170.716H89.4641V173.222Z" fill="#9F9F9F"/>
<path d="M117.068 164.261H115.377V152.459H101.359V164.261H99.6849V140.263H101.359V150.916H115.377V140.263H117.068V164.261Z" fill="#9F9F9F"/>
<path d="M137.201 155.315C137.201 158.226 136.496 160.499 135.084 162.135C133.673 163.771 131.725 164.589 129.241 164.589C127.676 164.589 126.297 164.211 125.105 163.456C123.912 162.701 122.998 161.618 122.363 160.206C121.729 158.795 121.411 157.164 121.411 155.315C121.411 152.404 122.116 150.136 123.529 148.511C124.94 146.886 126.877 146.073 129.34 146.073C131.791 146.073 133.714 146.897 135.109 148.544C136.504 150.191 137.201 152.448 137.201 155.315ZM123.118 155.315C123.118 157.766 123.657 159.679 124.734 161.052C125.812 162.425 127.336 163.112 129.306 163.112C131.276 163.112 132.8 162.425 133.877 161.052C134.955 159.678 135.494 157.766 135.494 155.315C135.494 152.853 134.95 150.943 133.861 149.586C132.772 148.229 131.243 147.551 129.273 147.551C127.303 147.551 125.785 148.227 124.718 149.578C123.651 150.93 123.118 152.842 123.118 155.315Z" fill="#9F9F9F"/>
<path d="M145.845 163.145C146.874 163.145 147.772 163.057 148.538 162.882V164.196C147.75 164.458 146.841 164.589 145.813 164.589C144.236 164.589 143.074 164.168 142.324 163.325C141.575 162.483 141.2 161.159 141.2 159.353V147.83H138.558V146.878L141.2 146.139L142.021 142.101H142.858V146.419H148.094V147.83H142.858V159.123C142.858 160.491 143.098 161.504 143.579 162.16C144.062 162.816 144.816 163.145 145.845 163.145Z" fill="#9F9F9F"/>
<path d="M158.592 164.589C155.999 164.589 153.977 163.791 152.527 162.193C151.077 160.595 150.352 158.357 150.352 155.479C150.352 152.634 151.052 150.355 152.453 148.642C153.854 146.93 155.741 146.073 158.116 146.073C160.217 146.073 161.876 146.807 163.09 148.273C164.305 149.739 164.912 151.731 164.912 154.248V155.561H152.059C152.082 158.012 152.653 159.884 153.775 161.175C154.896 162.466 156.502 163.112 158.593 163.112C159.611 163.112 160.505 163.041 161.277 162.898C162.047 162.756 163.024 162.45 164.206 161.979V163.456C163.199 163.894 162.269 164.193 161.415 164.351C160.562 164.509 159.621 164.589 158.592 164.589ZM158.116 147.518C156.398 147.518 155.019 148.084 153.98 149.217C152.94 150.349 152.332 151.983 152.158 154.117H163.188C163.188 152.048 162.74 150.432 161.843 149.266C160.945 148.101 159.703 147.518 158.116 147.518Z" fill="#9F9F9F"/>
<path d="M170.453 164.261H168.828V138.72H170.453V164.261Z" fill="#9F9F9F"/>
<path d="M200.937 164.261H199.246V152.459H185.228V164.261H183.554V140.263H185.228V150.916H199.246V140.263H200.937V164.261Z" fill="#9F9F9F"/>
<path d="M217.148 164.261L216.737 161.438H216.606C215.709 162.587 214.787 163.399 213.84 163.875C212.893 164.351 211.774 164.589 210.483 164.589C208.732 164.589 207.369 164.141 206.396 163.243C205.422 162.346 204.935 161.104 204.935 159.517C204.935 157.777 205.659 156.425 207.11 155.462C208.56 154.5 210.658 153.991 213.405 153.936L216.803 153.837V152.656C216.803 150.959 216.458 149.679 215.768 148.814C215.079 147.95 213.968 147.518 212.437 147.518C210.784 147.518 209.071 147.977 207.299 148.896L206.691 147.485C208.65 146.566 210.587 146.106 212.502 146.106C214.461 146.106 215.925 146.615 216.893 147.633C217.862 148.65 218.346 150.237 218.346 152.393V164.261H217.148ZM210.582 163.112C212.486 163.112 213.988 162.568 215.087 161.479C216.187 160.39 216.737 158.877 216.737 156.94V155.183L213.618 155.315C211.112 155.435 209.326 155.827 208.259 156.489C207.192 157.151 206.659 158.182 206.659 159.583C206.659 160.699 207.001 161.566 207.685 162.185C208.368 162.803 209.334 163.112 210.582 163.112Z" fill="#9F9F9F"/>
<path d="M233.949 164.261L233.539 161.438H233.408C232.51 162.587 231.588 163.399 230.642 163.875C229.695 164.351 228.576 164.589 227.285 164.589C225.533 164.589 224.171 164.141 223.197 163.243C222.224 162.346 221.737 161.104 221.737 159.517C221.737 157.777 222.461 156.425 223.912 155.462C225.362 154.5 227.46 153.991 230.207 153.936L233.605 153.837V152.656C233.605 150.959 233.26 149.679 232.57 148.814C231.881 147.95 230.77 147.518 229.239 147.518C227.586 147.518 225.873 147.977 224.101 148.896L223.493 147.485C225.452 146.566 227.389 146.106 229.304 146.106C231.263 146.106 232.727 146.615 233.695 147.633C234.664 148.65 235.148 150.237 235.148 152.393V164.261H233.949ZM227.384 163.112C229.288 163.112 230.789 162.568 231.889 161.479C232.989 160.39 233.539 158.877 233.539 156.94V155.183L230.42 155.315C227.914 155.435 226.128 155.827 225.061 156.489C223.994 157.151 223.46 158.182 223.46 159.583C223.46 160.699 223.802 161.566 224.486 162.185C225.17 162.803 226.136 163.112 227.384 163.112Z" fill="#9F9F9F"/>
<path d="M246.942 146.073C247.698 146.073 248.507 146.15 249.371 146.303L249.06 147.863C248.316 147.677 247.544 147.584 246.746 147.584C245.224 147.584 243.976 148.23 243.003 149.521C242.029 150.812 241.542 152.443 241.542 154.413V164.261H239.917V146.418H241.296L241.46 149.636H241.574C242.307 148.323 243.091 147.401 243.922 146.87C244.754 146.339 245.761 146.073 246.942 146.073Z" fill="#9F9F9F"/>
<path d="M253.616 164.261H251.99V138.72H253.616V164.261Z" fill="#9F9F9F"/>
<path d="M265.788 164.589C263.195 164.589 261.173 163.791 259.723 162.193C258.273 160.595 257.548 158.357 257.548 155.479C257.548 152.634 258.248 150.355 259.649 148.642C261.049 146.93 262.937 146.073 265.312 146.073C267.414 146.073 269.071 146.807 270.286 148.273C271.501 149.739 272.108 151.731 272.108 154.248V155.561H259.255C259.277 158.012 259.848 159.884 260.971 161.175C262.092 162.466 263.698 163.112 265.788 163.112C266.806 163.112 267.7 163.041 268.472 162.898C269.244 162.756 270.22 162.45 271.402 161.979V163.456C270.395 163.894 269.466 164.193 268.612 164.351C267.758 164.509 266.817 164.589 265.788 164.589ZM265.313 147.518C263.594 147.518 262.215 148.084 261.176 149.217C260.136 150.349 259.529 151.983 259.354 154.117H270.385C270.385 152.048 269.935 150.432 269.038 149.266C268.141 148.101 266.899 147.518 265.313 147.518Z" fill="#9F9F9F"/>
<path d="M298.316 164.261V152.557C298.316 150.817 297.976 149.548 297.297 148.749C296.619 147.95 295.579 147.551 294.178 147.551C292.351 147.551 291 148.054 290.124 149.061C289.248 150.068 288.811 151.649 288.811 153.805V164.261H287.153V152.065C287.153 149.056 285.775 147.551 283.017 147.551C281.145 147.551 279.783 148.096 278.93 149.184C278.076 150.273 277.65 152.016 277.65 154.412V164.261H276.024V146.418H277.37L277.715 148.864H277.814C278.306 147.978 279.006 147.291 279.914 146.804C280.823 146.317 281.824 146.074 282.918 146.074C285.731 146.074 287.536 147.13 288.336 149.242H288.401C288.981 148.224 289.76 147.442 290.741 146.894C291.719 146.347 292.833 146.074 294.081 146.074C296.029 146.074 297.489 146.594 298.463 147.633C299.437 148.673 299.924 150.325 299.924 152.59V164.261L298.316 164.261Z" fill="#9F9F9F"/>
</g>
<defs>
<clipPath id="clip0_2_17">
<rect width="300" height="46.3022" fill="white" transform="translate(0 127)"/>
</clipPath>
</defs>
</svg>
