<svg width="300" height="300" viewBox="0 0 300 300" fill="none" xmlns="http://www.w3.org/2000/svg">
<g clip-path="url(#clip0_1_2)">
<path d="M14.414 142.558V161.116C14.4103 161.792 14.1401 162.44 13.662 162.918C13.1839 163.396 12.5366 163.666 11.8605 163.67C11.5246 163.672 11.1918 163.607 10.8811 163.479C10.5705 163.351 10.2882 163.163 10.0508 162.926C9.81328 162.689 9.62526 162.406 9.49759 162.096C9.36992 161.785 9.30514 161.452 9.30699 161.116V142.558H2.23257C1.62586 142.512 1.05898 142.238 0.645391 141.792C0.231802 141.346 0.00201416 140.76 0.00201416 140.151C0.00201416 139.543 0.231802 138.957 0.645391 138.51C1.05898 138.064 1.62586 137.79 2.23257 137.744H21.4884C22.13 137.755 22.7419 138.017 23.193 138.473C23.6442 138.929 23.8988 139.544 23.9023 140.186C23.8878 140.818 23.6275 141.419 23.1768 141.862C22.726 142.305 22.1203 142.555 21.4884 142.558H14.414ZM45.8372 161.116V152.549H34.2279V161.116C34.2298 161.452 34.165 161.785 34.0373 162.096C33.9096 162.406 33.7216 162.689 33.4841 162.926C33.2467 163.163 32.9644 163.351 32.6538 163.479C32.3432 163.607 32.0103 163.672 31.6744 163.67C31.0008 163.662 30.357 163.391 29.8819 162.913C29.4068 162.435 29.1385 161.79 29.1349 161.116V139.963C29.1349 139.287 29.4015 138.638 29.877 138.157C30.3525 137.676 30.9984 137.403 31.6744 137.395C32.0138 137.393 32.3502 137.46 32.6636 137.59C32.9771 137.72 33.2612 137.912 33.4993 138.154C33.7373 138.396 33.9244 138.683 34.0496 138.998C34.1747 139.314 34.2354 139.651 34.2279 139.991V147.763H45.8372V139.963C45.8406 139.454 45.9944 138.957 46.2793 138.535C46.5642 138.113 46.9675 137.785 47.4385 137.592C47.9095 137.398 48.4271 137.349 48.9262 137.449C49.4253 137.549 49.8837 137.794 50.2437 138.154C50.7237 138.643 50.9875 139.306 50.9721 139.991V161.116C50.974 161.452 50.9092 161.785 50.7815 162.096C50.6538 162.406 50.4658 162.689 50.2283 162.926C49.9908 163.163 49.7086 163.351 49.398 163.479C49.0873 163.607 48.7545 163.672 48.4186 163.67C48.0815 163.672 47.7472 163.607 47.435 163.48C47.1228 163.352 46.8388 163.165 46.5991 162.928C46.3594 162.691 46.1687 162.409 46.038 162.098C45.9073 161.787 45.839 161.453 45.8372 161.116ZM60 163.363C59.3215 163.355 58.6735 163.08 58.1976 162.596C57.7218 162.112 57.4567 161.46 57.4605 160.781V140.284C57.4568 139.949 57.5198 139.616 57.646 139.305C57.7721 138.995 57.9588 138.712 58.1952 138.475C58.4315 138.237 58.7129 138.049 59.0227 137.921C59.3326 137.793 59.6648 137.728 60 137.73H73.9535C74.285 137.705 74.6181 137.748 74.932 137.858C75.2459 137.967 75.5338 138.141 75.7777 138.367C76.0215 138.593 76.2161 138.867 76.3491 139.171C76.4822 139.476 76.5508 139.805 76.5508 140.137C76.5508 140.47 76.4822 140.799 76.3491 141.103C76.2161 141.408 76.0215 141.682 75.7777 141.908C75.5338 142.134 75.2459 142.307 74.932 142.416C74.6181 142.526 74.285 142.569 73.9535 142.544H62.5116V148.126H68.8605C69.4933 148.126 70.1002 148.377 70.5477 148.824C70.9951 149.272 71.2465 149.879 71.2465 150.512C71.2465 151.144 70.9951 151.751 70.5477 152.199C70.1002 152.646 69.4933 152.898 68.8605 152.898H62.5116V158.605H74.5256C75.1662 158.615 75.7775 158.875 76.2305 159.328C76.6835 159.781 76.9427 160.392 76.9535 161.033C76.9517 161.349 76.8873 161.662 76.7642 161.953C76.641 162.245 76.4614 162.509 76.2358 162.731C76.0101 162.952 75.7429 163.127 75.4494 163.245C75.1559 163.363 74.8419 163.422 74.5256 163.419L60 163.363ZM106.047 163.907C102.68 163.688 99.5219 162.197 97.2146 159.735C94.9074 157.273 93.6234 154.025 93.6234 150.651C93.6234 147.277 94.9074 144.029 97.2146 141.568C99.5219 139.106 102.68 137.614 106.047 137.395C107.61 137.335 109.171 137.584 110.639 138.127C112.106 138.671 113.453 139.498 114.6 140.563C115.108 141.048 115.405 141.715 115.423 142.419C115.377 143.021 115.103 143.582 114.657 143.989C114.211 144.396 113.627 144.618 113.023 144.609C111.265 144.609 109.898 142.028 106.047 142.028C101.191 142.028 98.0651 145.893 98.0651 150.54C98.0651 155.186 101.191 159.135 106.047 159.135C110.902 159.135 111.935 155.312 114.028 155.312C114.693 155.348 115.322 155.629 115.793 156.1C116.264 156.571 116.545 157.2 116.581 157.865C116.567 158.379 116.375 158.872 116.037 159.26C114.81 160.715 113.281 161.885 111.555 162.688C109.83 163.49 107.95 163.906 106.047 163.907ZM122.386 150.54C122.43 147.95 123.238 145.432 124.708 143.3C126.178 141.169 128.245 139.519 130.65 138.558C133.054 137.596 135.689 137.367 138.224 137.898C140.758 138.429 143.079 139.697 144.896 141.542C146.712 143.388 147.943 145.728 148.434 148.271C148.925 150.813 148.654 153.444 147.655 155.833C146.656 158.222 144.974 160.263 142.819 161.7C140.665 163.136 138.134 163.904 135.544 163.907C133.796 163.917 132.063 163.576 130.449 162.905C128.834 162.234 127.37 161.246 126.144 160C124.917 158.754 123.953 157.275 123.307 155.65C122.662 154.025 122.349 152.288 122.386 150.54ZM127.521 150.54C127.521 155.27 130.73 159.135 135.544 159.135C140.358 159.135 143.567 155.256 143.567 150.54C143.567 145.823 140.358 142.028 135.544 142.028C130.73 142.028 127.521 145.767 127.521 150.54ZM175.744 161.27V149.87C175.744 149.87 169.535 162.344 169.535 162.428C169.364 162.828 169.074 163.165 168.705 163.395C168.335 163.625 167.904 163.735 167.47 163.712C167.036 163.734 166.606 163.617 166.242 163.379C165.878 163.141 165.6 162.793 165.447 162.386L159.195 149.912V161.27C159.195 161.908 158.942 162.52 158.49 162.972C158.039 163.423 157.427 163.677 156.788 163.677C156.15 163.677 155.538 163.423 155.086 162.972C154.635 162.52 154.381 161.908 154.381 161.27V139.753C154.403 139.13 154.662 138.538 155.105 138.1C155.549 137.661 156.144 137.409 156.767 137.395C157.255 137.394 157.732 137.535 158.141 137.8C158.549 138.065 158.872 138.443 159.07 138.888L167.442 156.093L175.814 138.888C176.021 138.36 176.407 137.921 176.904 137.647C177.401 137.373 177.978 137.283 178.536 137.39C179.093 137.498 179.595 137.798 179.954 138.237C180.313 138.677 180.507 139.228 180.502 139.795V161.27C180.484 161.904 180.221 162.507 179.769 162.952C179.316 163.397 178.709 163.649 178.074 163.656C177.451 163.641 176.859 163.383 176.423 162.938C175.988 162.492 175.744 161.893 175.744 161.27ZM207.74 161.27V149.87C207.74 149.87 201.53 162.344 201.53 162.428C201.362 162.827 201.074 163.164 200.707 163.394C200.34 163.623 199.911 163.734 199.479 163.712C199.045 163.734 198.615 163.617 198.251 163.379C197.888 163.141 197.609 162.793 197.456 162.386L191.163 149.87V161.228C191.188 161.559 191.145 161.893 191.035 162.206C190.926 162.52 190.752 162.808 190.526 163.052C190.3 163.296 190.026 163.49 189.722 163.624C189.417 163.757 189.088 163.825 188.756 163.825C188.423 163.825 188.094 163.757 187.79 163.624C187.485 163.49 187.211 163.296 186.985 163.052C186.759 162.808 186.586 162.52 186.477 162.206C186.367 161.893 186.324 161.559 186.349 161.228V139.753C186.37 139.123 186.635 138.525 187.088 138.086C187.541 137.646 188.146 137.399 188.777 137.395C189.259 137.406 189.729 137.555 190.13 137.825C190.53 138.094 190.845 138.473 191.037 138.916L199.409 156.121L207.781 138.916C207.988 138.388 208.374 137.949 208.871 137.675C209.369 137.401 209.946 137.311 210.503 137.418C211.06 137.526 211.562 137.826 211.921 138.265C212.281 138.704 212.475 139.256 212.47 139.823V161.27C212.452 161.904 212.189 162.507 211.736 162.952C211.284 163.397 210.676 163.649 210.042 163.656C209.424 163.634 208.838 163.373 208.409 162.928C207.979 162.483 207.739 161.888 207.74 161.27ZM218.47 150.54C218.514 147.95 219.322 145.432 220.792 143.3C222.262 141.169 224.329 139.519 226.733 138.558C229.138 137.596 231.773 137.367 234.307 137.898C236.842 138.429 239.163 139.697 240.979 141.542C242.796 143.388 244.027 145.728 244.518 148.271C245.009 150.813 244.738 153.444 243.739 155.833C242.74 158.222 241.058 160.263 238.903 161.7C236.748 163.136 234.217 163.904 231.628 163.907C229.88 163.917 228.147 163.576 226.532 162.905C224.918 162.234 223.454 161.246 222.228 160C221.001 158.754 220.037 157.275 219.391 155.65C218.746 154.025 218.432 152.288 218.47 150.54ZM223.619 150.54C223.619 155.27 226.828 159.135 231.642 159.135C236.456 159.135 239.665 155.256 239.665 150.54C239.665 145.823 236.456 142.028 231.642 142.028C226.828 142.028 223.619 145.767 223.619 150.54ZM267.795 162.791L255.237 146.409V161.27C255.191 161.876 254.917 162.443 254.471 162.857C254.025 163.271 253.439 163.5 252.83 163.5C252.222 163.5 251.636 163.271 251.189 162.857C250.743 162.443 250.469 161.876 250.423 161.27V139.795C250.425 139.47 250.492 139.148 250.62 138.849C250.748 138.55 250.934 138.279 251.168 138.053C251.402 137.826 251.679 137.649 251.982 137.532C252.286 137.414 252.61 137.358 252.935 137.367C253.272 137.383 253.601 137.473 253.9 137.63C254.199 137.786 254.46 138.006 254.665 138.274C259.353 144.456 267.223 154.642 267.223 154.642V139.795C267.238 139.159 267.499 138.552 267.952 138.104C268.405 137.657 269.014 137.402 269.651 137.395C270.286 137.412 270.891 137.669 271.344 138.115C271.798 138.56 272.065 139.161 272.093 139.795V161.27C272.075 161.904 271.812 162.507 271.36 162.952C270.907 163.397 270.3 163.649 269.665 163.656C269.307 163.675 268.949 163.606 268.623 163.455C268.297 163.304 268.013 163.076 267.795 162.791ZM277.423 159.135C277.443 158.516 277.696 157.927 278.13 157.485C278.564 157.043 279.149 156.78 279.767 156.749C280.172 156.756 280.567 156.856 280.926 157.042C283.265 158.428 285.937 159.151 288.656 159.135C290.47 159.135 294.237 158.8 294.237 156.344C294.237 151.53 278.888 154.084 278.888 144.33C278.888 138.609 284.567 137.353 289.256 137.353C292.118 137.347 294.957 137.873 297.628 138.902C298.066 139.069 298.445 139.362 298.716 139.745C298.987 140.128 299.138 140.582 299.149 141.051C299.142 141.693 298.883 142.306 298.43 142.76C297.976 143.214 297.363 143.472 296.721 143.479C296.413 143.463 296.108 143.407 295.814 143.312C293.726 142.507 291.508 142.091 289.27 142.084C287.665 142.084 283.967 142.084 283.967 144.456C283.967 146.828 290.177 148.251 291.865 148.74C295.814 149.926 299.302 151.53 299.302 156.149C299.302 162.191 293.623 163.921 288.572 163.921C285.977 163.907 277.423 162.512 277.423 159.135Z" fill="#9F9F9F"/>
</g>
<defs>
<clipPath id="clip0_1_2">
<rect width="300" height="27.907" fill="white" transform="translate(0 136)"/>
</clipPath>
</defs>
</svg>
