<svg width="300" height="300" viewBox="0 0 300 300" fill="none" xmlns="http://www.w3.org/2000/svg">
<path fill-rule="evenodd" clip-rule="evenodd" d="M204.786 91.7501C195.181 92.5117 184.773 94.1108 177.116 95.5229C164.762 97.7372 159.895 99.358 160.516 102.285C160.935 104.25 163.614 104.296 179.692 104.548L179.678 104.502C182.857 104.584 185.589 104.662 188.819 104.795C195.562 105.074 199.57 106.364 193.876 114.43C188.168 122.518 173.108 140.138 165.951 146.667C161.249 150.955 161.57 147.989 163.149 140.569C165.027 132.665 168.086 124.228 155.951 123.084C140.695 121.648 124.059 121.653 117.551 120.986C111.041 120.317 107.281 116.723 111.108 109.27C118.53 94.8101 143.097 67.517 159.262 47.8047C170.597 34.497 170.765 30.7432 168.7 28.6373C166.919 26.8485 163.851 28.0302 162.111 29.0032C148.108 38.82 133.862 52.06 109.397 78.2093C101.911 86.2129 92.6135 97.0949 88.7486 102.09C73.9541 121.201 82.6162 137.281 98.0514 138.815C111.324 140.135 128.165 140.682 134.47 141.092C140.438 141.479 144.168 143.601 142.246 153.925C140.335 164.184 140.049 166.729 139.265 171.724C137.746 181.394 143.105 186.278 151.568 181.175C160.032 176.071 200.846 134.89 213.657 110.725C218.168 102.22 221.419 90.4329 204.786 91.7501Z" fill="#9F9F9F"/>
<path fill-rule="evenodd" clip-rule="evenodd" d="M110.587 236.578H133.198V242.864H117.373V250.566H130.062V256.854H117.373V266.967H133.722V273.252H110.587V236.578Z" fill="#9F9F9F"/>
<path fill-rule="evenodd" clip-rule="evenodd" d="M32.2649 253.7H17.9V253.711H17.8351V260.002H26.1973C25.5027 263.39 22.9 267.341 17.4378 267.341C11.1757 267.341 7.23514 261.468 7.23514 254.917C7.23514 247.149 11.5027 242.49 16.973 242.49C21.8432 242.49 24.3487 244.626 25.6 247.83L32.273 245.689C30.6324 241.658 26.9541 235.986 16.973 235.986C6.63243 235.986 0 245.111 0 254.917C0 264.721 6.63243 273.844 16.973 273.844C20.3541 273.844 23.427 273.022 26.0054 271.369V273.253H32.273V253.711H32.2649V253.7Z" fill="#9F9F9F"/>
<path fill-rule="evenodd" clip-rule="evenodd" d="M195.862 273.253L193.197 264.61H181.605L178.943 273.253H171.629L184.008 236.579H190.794L203.17 273.253H195.862ZM187.399 245.589L183.537 258.322H191.264L187.399 245.589Z" fill="#9F9F9F"/>
<path fill-rule="evenodd" clip-rule="evenodd" d="M202.106 242.865V236.579H229.155V242.865H219.025V273.253H212.236V242.865H202.106Z" fill="#9F9F9F"/>
<path fill-rule="evenodd" clip-rule="evenodd" d="M249.764 235.983C256.147 235.983 261.474 238.471 264.696 244.347C266.328 247.258 267.174 250.804 267.174 254.934C267.174 263.192 263.534 269.226 258.418 271.928C255.831 273.248 252.98 273.885 249.764 273.885C243.377 273.885 238.101 271.394 234.78 265.521C233.145 262.61 232.353 259.062 232.353 254.934C232.353 246.676 235.993 240.588 241.109 237.994C243.696 236.672 246.542 235.983 249.764 235.983ZM249.764 242.334C246.755 242.334 244.274 243.396 242.272 245.51C240.32 247.63 239.315 250.752 239.315 254.934C239.315 259.116 240.32 262.241 242.272 264.355C244.274 266.475 246.755 267.534 249.764 267.534C252.769 267.534 255.247 266.475 257.204 264.355C259.207 262.241 260.209 259.116 260.209 254.934C260.209 250.752 259.207 247.63 257.204 245.51C255.247 243.396 252.769 242.334 249.764 242.334Z" fill="#9F9F9F"/>
<path fill-rule="evenodd" clip-rule="evenodd" d="M298.41 247.027C298.396 240.747 294.369 236.616 287.267 236.616H273.929L273.931 273.252H280.731V257.47H282.648L290.823 273.252H298.41L290.091 257.226C295.426 256.255 298.396 252.45 298.41 247.059V247.043V247.027ZM287.321 251.174H280.731L280.729 242.912H287.321C290.194 242.912 291.604 244.273 291.61 247.043C291.604 249.813 290.194 251.174 287.321 251.174Z" fill="#9F9F9F"/>
<path fill-rule="evenodd" clip-rule="evenodd" d="M167.106 246.947C167.093 240.648 163.055 236.504 155.931 236.504H142.552L142.555 273.254H149.374V257.423H151.298L159.498 273.254H167.106L158.761 257.176C164.112 256.206 167.093 252.387 167.106 246.98V246.964V246.947ZM155.985 251.108H149.374L149.371 242.822H155.985C158.866 242.822 160.282 244.185 160.288 246.964C160.282 249.742 158.866 251.108 155.985 251.108Z" fill="#9F9F9F"/>
<path fill-rule="evenodd" clip-rule="evenodd" d="M41.7095 236.578H64.3203V242.864H48.496V250.566H61.1851V256.854H48.496V266.967H64.8446V273.252H41.7095V236.578Z" fill="#9F9F9F"/>
<path fill-rule="evenodd" clip-rule="evenodd" d="M94.4311 236.578H101.218V273.252H94.0635L80.6446 249.049V273.252H73.8554V236.578H81.0095L94.4311 260.784V236.578Z" fill="#9F9F9F"/>
</svg>
