<svg width="300" height="300" viewBox="0 0 300 300" fill="none" xmlns="http://www.w3.org/2000/svg">
<g clip-path="url(#clip0_1_15)">
<path fill-rule="evenodd" clip-rule="evenodd" d="M66.6706 145.858C66.6706 147.496 66.1641 148.769 65.1541 149.676C64.1442 150.586 62.7089 151.04 60.8524 151.04C60.1291 151.04 59.4767 150.966 58.8932 150.819C58.3086 150.67 57.7846 150.472 57.3151 150.217C56.8466 149.963 56.4233 149.66 56.0442 149.309C55.6682 148.957 55.3302 148.568 55.0343 148.142L57.8442 145.882C58.2891 146.506 58.7524 146.965 59.2374 147.257C59.7213 147.553 60.2761 147.697 60.9017 147.697C61.6579 147.697 62.1788 147.537 62.4675 147.207C62.7541 146.882 62.898 146.481 62.898 146.006C62.898 145.679 62.8199 145.397 62.6637 145.158C62.5086 144.921 62.2949 144.712 62.0247 144.532C61.7504 144.353 61.435 144.196 61.0743 144.066C60.7127 143.935 60.3182 143.811 59.8908 143.697C59.1017 143.451 58.4288 143.173 57.8699 142.862C57.311 142.552 56.8548 142.2 56.5014 141.807C56.148 141.414 55.8891 140.963 55.7247 140.457C55.5613 139.949 55.4781 139.376 55.4781 138.737C55.4781 137.998 55.6096 137.325 55.8726 136.709C56.1356 136.097 56.5055 135.565 56.9822 135.114C57.4589 134.663 58.0302 134.317 58.6959 134.071C59.3617 133.826 60.0963 133.703 60.9017 133.703C62.1994 133.703 63.2637 133.904 64.0949 134.305C64.924 134.706 65.6267 135.299 66.2011 136.085L63.6387 138.49C62.8158 137.527 61.9045 137.043 60.9017 137.043C60.3757 137.043 59.9442 137.182 59.6083 137.46C59.2702 137.738 59.1017 138.107 59.1017 138.565C59.1017 138.81 59.1839 139.032 59.3493 139.228C59.5127 139.425 59.7346 139.604 60.0141 139.768C60.2915 139.931 60.6223 140.087 60.9993 140.234C61.3774 140.383 61.7812 140.521 62.2076 140.653C63.0624 140.915 63.7764 141.214 64.3538 141.549C64.9281 141.884 65.3874 142.269 65.7336 142.703C66.0788 143.136 66.3202 143.615 66.461 144.138C66.6007 144.664 66.6706 145.236 66.6706 145.858Z" fill="#9F9F9F"/>
<path fill-rule="evenodd" clip-rule="evenodd" d="M74.5337 137.067V150.917H70.984V137.067H67.3111V133.826H78.2076V137.067H74.5337Z" fill="#9F9F9F"/>
<path fill-rule="evenodd" clip-rule="evenodd" d="M96.2524 146.817C96.0059 148.141 95.3966 149.182 94.4278 149.935C93.4569 150.687 92.2743 151.065 90.8771 151.065C89.8918 151.065 89.0493 150.909 88.3507 150.597C87.6531 150.287 87.085 149.866 86.6493 149.333C86.2148 148.802 85.8942 148.183 85.6877 147.479C85.4843 146.775 85.3795 146.039 85.3795 145.268V139.179C85.3795 138.54 85.4802 137.898 85.6764 137.251C85.8737 136.604 86.1911 136.02 86.6257 135.496C87.0613 134.971 87.6285 134.541 88.3261 134.206C89.0247 133.871 89.8754 133.704 90.8771 133.704C91.6682 133.704 92.373 133.822 92.9987 134.059C93.6213 134.296 94.1565 134.61 94.6004 135.004C95.0442 135.397 95.4048 135.852 95.6843 136.367C95.9637 136.882 96.162 137.419 96.2761 137.975L92.899 138.983C92.8661 138.82 92.8137 138.626 92.7398 138.405C92.6648 138.184 92.5456 137.985 92.3822 137.804C92.2168 137.624 92.0113 137.466 91.7658 137.337C91.5192 137.206 91.2233 137.14 90.8771 137.14C90.5165 137.14 90.2124 137.201 89.9658 137.326C89.7192 137.447 89.5219 137.603 89.374 137.792C89.2261 137.979 89.1192 138.184 89.0535 138.405C88.9877 138.626 88.9548 138.834 88.9548 139.032V145.367C88.9548 146.023 89.0987 146.561 89.3863 146.988C89.673 147.413 90.1713 147.625 90.8771 147.625C91.3713 147.625 91.8059 147.466 92.1839 147.148C92.562 146.828 92.785 146.39 92.8497 145.834L96.2524 146.817Z" fill="#9F9F9F"/>
<path fill-rule="evenodd" clip-rule="evenodd" d="M105.497 150.917V143.894H101.601V150.917H98.0274V133.826H101.601V140.653H105.497V133.826H109.021V150.917H105.497Z" fill="#9F9F9F"/>
<path fill-rule="evenodd" clip-rule="evenodd" d="M119.449 138.885C119.449 138.229 119.264 137.763 118.894 137.484C118.524 137.206 118.052 137.067 117.476 137.067H115.454V140.922H117.377C117.953 140.922 118.442 140.771 118.845 140.468C119.248 140.165 119.449 139.637 119.449 138.885ZM119.265 150.917L116.963 144.165H115.454V150.917H111.88V133.826H117.563C118.288 133.826 118.976 133.924 119.625 134.121C120.277 134.317 120.845 134.62 121.331 135.028C121.818 135.439 122.199 135.959 122.48 136.587C122.76 137.219 122.9 137.976 122.9 138.86C122.9 139.957 122.685 140.898 122.257 141.684C121.827 142.469 121.201 143.084 120.376 143.526L123.147 150.917H119.265Z" fill="#9F9F9F"/>
<mask id="mask0_1_15" style="mask-type:luminance" maskUnits="userSpaceOnUse" x="0" y="130" width="299" height="41">
<path d="M0 170.254H298.926V130.003H0V170.254Z" fill="#8C8C8C"/>
</mask>
<g mask="url(#mask0_1_15)">
<path fill-rule="evenodd" clip-rule="evenodd" d="M125.316 150.918H128.891V133.825H125.316V150.918Z" fill="#9F9F9F"/>
</g>
<mask id="mask1_1_15" style="mask-type:luminance" maskUnits="userSpaceOnUse" x="0" y="130" width="299" height="41">
<path d="M0 170.254H298.926V130.003H0V170.254Z" fill="#8C8C8C"/>
</mask>
<g mask="url(#mask1_1_15)">
<path fill-rule="evenodd" clip-rule="evenodd" d="M142.62 145.858C142.62 147.496 142.116 148.769 141.105 149.676C140.095 150.586 138.661 151.04 136.804 151.04C136.081 151.04 135.426 150.966 134.844 150.819C134.259 150.67 133.734 150.472 133.266 150.217C132.797 149.963 132.373 149.66 131.996 149.309C131.619 148.957 131.281 148.568 130.986 148.142L133.796 145.882C134.24 146.506 134.703 146.965 135.189 147.257C135.672 147.553 136.228 147.697 136.853 147.697C137.609 147.697 138.131 147.537 138.417 147.207C138.706 146.882 138.85 146.481 138.85 146.006C138.85 145.679 138.771 145.397 138.616 145.158C138.459 144.921 138.246 144.712 137.974 144.532C137.702 144.353 137.387 144.196 137.025 144.066C136.663 143.935 136.27 143.811 135.842 143.697C135.054 143.451 134.38 143.173 133.821 142.862C133.262 142.552 132.806 142.2 132.453 141.807C132.099 141.414 131.841 140.963 131.675 140.457C131.511 139.949 131.43 139.376 131.43 138.737C131.43 137.998 131.56 137.325 131.824 136.709C132.086 136.097 132.456 135.565 132.933 135.114C133.41 134.663 133.981 134.317 134.646 134.071C135.312 133.826 136.048 133.703 136.853 133.703C138.15 133.703 139.216 133.904 140.046 134.305C140.876 134.706 141.577 135.299 142.152 136.085L139.589 138.49C138.767 137.527 137.856 137.043 136.853 137.043C136.326 137.043 135.895 137.182 135.559 137.46C135.222 137.738 135.054 138.107 135.054 138.565C135.054 138.81 135.136 139.032 135.3 139.228C135.464 139.425 135.685 139.604 135.965 139.768C136.244 139.931 136.573 140.087 136.951 140.234C137.329 140.383 137.731 140.521 138.159 140.653C139.013 140.915 139.729 141.214 140.305 141.549C140.879 141.884 141.338 142.269 141.684 142.703C142.03 143.136 142.272 143.615 142.413 144.138C142.551 144.664 142.62 145.236 142.62 145.858Z" fill="#9F9F9F"/>
</g>
<mask id="mask2_1_15" style="mask-type:luminance" maskUnits="userSpaceOnUse" x="0" y="130" width="299" height="41">
<path d="M0 170.254H298.926V130.003H0V170.254Z" fill="#8C8C8C"/>
</mask>
<g mask="url(#mask2_1_15)">
<path fill-rule="evenodd" clip-rule="evenodd" d="M150.484 137.067V150.917H146.935V137.067H143.262V133.826H154.157V137.067H150.484Z" fill="#9F9F9F"/>
</g>
<mask id="mask3_1_15" style="mask-type:luminance" maskUnits="userSpaceOnUse" x="0" y="130" width="299" height="41">
<path d="M0 170.254H298.926V130.003H0V170.254Z" fill="#8C8C8C"/>
</mask>
<g mask="url(#mask3_1_15)">
<path fill-rule="evenodd" clip-rule="evenodd" d="M162.736 139.032C162.736 138.869 162.708 138.68 162.648 138.467C162.592 138.255 162.49 138.049 162.342 137.853C162.195 137.657 162.001 137.488 161.763 137.349C161.523 137.211 161.223 137.14 160.864 137.14C160.5 137.14 160.196 137.201 159.951 137.326C159.704 137.447 159.504 137.603 159.346 137.792C159.19 137.98 159.075 138.184 159.001 138.405C158.927 138.626 158.891 138.834 158.891 139.032V145.367C158.891 146.023 159.041 146.561 159.346 146.987C159.651 147.413 160.156 147.625 160.864 147.625C161.373 147.625 161.812 147.464 162.181 147.135C162.551 146.808 162.736 146.357 162.736 145.784V139.032ZM166.335 145.539C166.335 146.39 166.2 147.156 165.929 147.835C165.659 148.515 165.28 149.095 164.796 149.579C164.309 150.061 163.734 150.43 163.07 150.683C162.404 150.937 161.667 151.065 160.864 151.065C159.878 151.065 159.034 150.908 158.337 150.597C157.637 150.287 157.065 149.866 156.624 149.333C156.179 148.802 155.854 148.183 155.649 147.479C155.443 146.775 155.342 146.039 155.342 145.268V139.179C155.342 138.54 155.438 137.898 155.638 137.251C155.834 136.604 156.154 136.02 156.597 135.496C157.042 134.971 157.613 134.541 158.311 134.206C159.01 133.872 159.86 133.703 160.864 133.703C161.801 133.703 162.613 133.862 163.305 134.182C163.994 134.501 164.559 134.919 165.004 135.434C165.448 135.949 165.782 136.536 166.004 137.191C166.225 137.844 166.335 138.509 166.335 139.179V145.539Z" fill="#9F9F9F"/>
</g>
<mask id="mask4_1_15" style="mask-type:luminance" maskUnits="userSpaceOnUse" x="0" y="130" width="299" height="41">
<path d="M0 170.254H298.926V130.003H0V170.254Z" fill="#8C8C8C"/>
</mask>
<g mask="url(#mask4_1_15)">
<path fill-rule="evenodd" clip-rule="evenodd" d="M176.271 139.179C176.271 138.442 176.09 137.914 175.728 137.596C175.365 137.275 174.873 137.116 174.248 137.116H172.375V141.365H174.274C174.798 141.365 175.263 141.201 175.665 140.874C176.068 140.545 176.271 139.981 176.271 139.179ZM179.771 139.228C179.771 140.045 179.648 140.792 179.401 141.463C179.154 142.134 178.801 142.707 178.342 143.183C177.88 143.657 177.321 144.023 176.665 144.287C176.007 144.549 175.267 144.68 174.447 144.68H172.375V150.918H168.8V133.827H174.248C175.054 133.827 175.798 133.932 176.48 134.145C177.159 134.358 177.746 134.686 178.229 135.127C178.716 135.569 179.092 136.129 179.365 136.809C179.635 137.488 179.771 138.295 179.771 139.228Z" fill="#9F9F9F"/>
</g>
<mask id="mask5_1_15" style="mask-type:luminance" maskUnits="userSpaceOnUse" x="0" y="130" width="299" height="41">
<path d="M0 170.254H298.926V130.003H0V170.254Z" fill="#8C8C8C"/>
</mask>
<g mask="url(#mask5_1_15)">
<path fill-rule="evenodd" clip-rule="evenodd" d="M188.89 150.917V143.894H184.995V150.917H181.422V133.826H184.995V140.653H188.89V133.826H192.417V150.917H188.89Z" fill="#9F9F9F"/>
</g>
<mask id="mask6_1_15" style="mask-type:luminance" maskUnits="userSpaceOnUse" x="0" y="130" width="299" height="41">
<path d="M0 170.254H298.926V130.003H0V170.254Z" fill="#8C8C8C"/>
</mask>
<g mask="url(#mask6_1_15)">
<path fill-rule="evenodd" clip-rule="evenodd" d="M195.275 150.917V133.826H205.262V137.117H198.851V140.653H204.372V143.918H198.851V147.552H205.262V150.917H195.275Z" fill="#9F9F9F"/>
</g>
<mask id="mask7_1_15" style="mask-type:luminance" maskUnits="userSpaceOnUse" x="0" y="130" width="299" height="41">
<path d="M0 170.254H298.926V130.003H0V170.254Z" fill="#8C8C8C"/>
</mask>
<g mask="url(#mask7_1_15)">
<path fill-rule="evenodd" clip-rule="evenodd" d="M214.777 138.885C214.777 138.229 214.591 137.763 214.222 137.484C213.851 137.206 213.38 137.067 212.803 137.067H210.782V140.922H212.705C213.281 140.922 213.769 140.771 214.173 140.468C214.576 140.165 214.777 139.637 214.777 138.885ZM214.591 150.917L212.291 144.165H210.782V150.917H207.208V133.826H212.892C213.616 133.826 214.302 133.924 214.954 134.121C215.604 134.317 216.172 134.62 216.658 135.028C217.146 135.439 217.527 135.959 217.808 136.587C218.087 137.219 218.227 137.976 218.227 138.86C218.227 139.957 218.012 140.898 217.583 141.684C217.154 142.469 216.529 143.084 215.704 143.526L218.473 150.917H214.591Z" fill="#9F9F9F"/>
</g>
<mask id="mask8_1_15" style="mask-type:luminance" maskUnits="userSpaceOnUse" x="0" y="130" width="299" height="41">
<path d="M0 170.254H298.926V130.003H0V170.254Z" fill="#8C8C8C"/>
</mask>
<g mask="url(#mask8_1_15)">
<path fill-rule="evenodd" clip-rule="evenodd" d="M220.618 140.849L221.506 137.19H220.691V133.236H224.464V137.043L222.468 140.849H220.618Z" fill="#9F9F9F"/>
</g>
<mask id="mask9_1_15" style="mask-type:luminance" maskUnits="userSpaceOnUse" x="0" y="130" width="299" height="41">
<path d="M0 170.254H298.926V130.003H0V170.254Z" fill="#8C8C8C"/>
</mask>
<g mask="url(#mask9_1_15)">
<path fill-rule="evenodd" clip-rule="evenodd" d="M238.515 145.858C238.515 147.496 238.009 148.769 236.997 149.676C235.988 150.586 234.555 151.04 232.696 151.04C231.973 151.04 231.32 150.966 230.737 150.819C230.153 150.67 229.628 150.472 229.161 150.217C228.69 149.963 228.267 149.66 227.889 149.309C227.512 148.957 227.176 148.568 226.879 148.142L229.689 145.882C230.134 146.506 230.598 146.965 231.083 147.257C231.566 147.553 232.122 147.697 232.747 147.697C233.503 147.697 234.024 147.537 234.311 147.207C234.598 146.882 234.743 146.481 234.743 146.006C234.743 145.679 234.666 145.397 234.509 145.158C234.353 144.921 234.139 144.712 233.87 144.532C233.596 144.353 233.281 144.196 232.92 144.066C232.558 143.935 232.164 143.811 231.735 143.697C230.948 143.451 230.273 143.173 229.715 142.862C229.156 142.552 228.699 142.2 228.346 141.807C227.993 141.414 227.733 140.963 227.57 140.457C227.406 139.949 227.322 139.376 227.322 138.737C227.322 137.998 227.453 137.325 227.717 136.709C227.98 136.097 228.348 135.565 228.826 135.114C229.303 134.663 229.875 134.317 230.54 134.071C231.206 133.826 231.941 133.703 232.747 133.703C234.042 133.703 235.111 133.904 235.939 134.305C236.769 134.706 237.471 135.299 238.047 136.085L235.483 138.49C234.66 137.527 233.748 137.043 232.747 137.043C232.22 137.043 231.789 137.182 231.452 137.46C231.116 137.738 230.948 138.107 230.948 138.565C230.948 138.81 231.03 139.032 231.194 139.228C231.358 139.425 231.579 139.604 231.859 139.768C232.138 139.931 232.466 140.087 232.843 140.234C233.223 140.383 233.625 140.521 234.053 140.653C234.907 140.915 235.623 141.214 236.197 141.549C236.773 141.884 237.233 142.269 237.579 142.703C237.924 143.136 238.165 143.615 238.305 144.138C238.446 144.664 238.515 145.236 238.515 145.858Z" fill="#9F9F9F"/>
</g>
<mask id="mask10_1_15" style="mask-type:luminance" maskUnits="userSpaceOnUse" x="0" y="130" width="299" height="41">
<path d="M0 170.254H298.926V130.003H0V170.254Z" fill="#8C8C8C"/>
</mask>
<g mask="url(#mask10_1_15)">
<path fill-rule="evenodd" clip-rule="evenodd" d="M246.526 150.918H250.1V133.825H246.526V150.918Z" fill="#9F9F9F"/>
</g>
<mask id="mask11_1_15" style="mask-type:luminance" maskUnits="userSpaceOnUse" x="0" y="130" width="299" height="41">
<path d="M0 170.254H298.926V130.003H0V170.254Z" fill="#8C8C8C"/>
</mask>
<g mask="url(#mask11_1_15)">
<path fill-rule="evenodd" clip-rule="evenodd" d="M261.587 150.917L258.409 145.219L256.535 141.61L256.46 141.634V150.917H252.887V133.826H256.041L258.852 138.933L261.095 143.06L261.17 143.034V133.826H264.719V150.917H261.587Z" fill="#9F9F9F"/>
</g>
<mask id="mask12_1_15" style="mask-type:luminance" maskUnits="userSpaceOnUse" x="0" y="130" width="299" height="41">
<path d="M0 170.254H298.926V130.003H0V170.254Z" fill="#8C8C8C"/>
</mask>
<g mask="url(#mask12_1_15)">
<path fill-rule="evenodd" clip-rule="evenodd" d="M276.133 150.917L272.953 145.219L271.079 141.61L271.005 141.634V150.917H267.43V133.826H270.586L273.397 138.933L275.641 143.06L275.715 143.034V133.826H279.264V150.917H276.133Z" fill="#9F9F9F"/>
</g>
<mask id="mask13_1_15" style="mask-type:luminance" maskUnits="userSpaceOnUse" x="0" y="130" width="299" height="41">
<path d="M0 170.254H298.926V130.003H0V170.254Z" fill="#8C8C8C"/>
</mask>
<g mask="url(#mask13_1_15)">
<path fill-rule="evenodd" clip-rule="evenodd" d="M292.921 145.858C292.921 147.496 292.414 148.769 291.403 149.676C290.393 150.586 288.961 151.04 287.103 151.04C286.379 151.04 285.725 150.966 285.143 150.819C284.559 150.67 284.034 150.472 283.565 150.217C283.096 149.963 282.673 149.66 282.294 149.309C281.918 148.957 281.581 148.568 281.284 148.142L284.095 145.882C284.538 146.506 285.003 146.965 285.489 147.257C285.972 147.553 286.527 147.697 287.153 147.697C287.909 147.697 288.43 147.537 288.716 147.207C289.004 146.882 289.149 146.481 289.149 146.006C289.149 145.679 289.071 145.397 288.914 145.158C288.758 144.921 288.545 144.712 288.274 144.532C288.003 144.353 287.686 144.196 287.325 144.066C286.962 143.935 286.567 143.811 286.14 143.697C285.352 143.451 284.679 143.173 284.12 142.862C283.561 142.552 283.104 142.2 282.752 141.807C282.398 141.414 282.14 140.963 281.976 140.457C281.812 139.949 281.728 139.376 281.728 138.737C281.728 137.998 281.859 137.325 282.123 136.709C282.385 136.097 282.754 135.565 283.233 135.114C283.709 134.663 284.28 134.317 284.947 134.071C285.611 133.826 286.347 133.703 287.153 133.703C288.449 133.703 289.515 133.904 290.344 134.305C291.175 134.706 291.876 135.299 292.452 136.085L289.888 138.49C289.065 137.527 288.153 137.043 287.153 137.043C286.625 137.043 286.194 137.182 285.859 137.46C285.521 137.738 285.352 138.107 285.352 138.565C285.352 138.81 285.435 139.032 285.599 139.228C285.762 139.425 285.984 139.604 286.265 139.768C286.543 139.931 286.872 140.087 287.249 140.234C287.628 140.383 288.031 140.521 288.458 140.653C289.313 140.915 290.028 141.214 290.603 141.549C291.178 141.884 291.639 142.269 291.984 142.703C292.329 143.136 292.571 143.615 292.711 144.138C292.85 144.664 292.921 145.236 292.921 145.858Z" fill="#9F9F9F"/>
</g>
<mask id="mask14_1_15" style="mask-type:luminance" maskUnits="userSpaceOnUse" x="19" y="157" width="18" height="6">
<path d="M19.4864 159.369L36.212 162.894L30.5295 157.298L19.4864 159.369Z" fill="url(#paint0_linear_1_15)"/>
</mask>
<g mask="url(#mask14_1_15)">
<path fill-rule="evenodd" clip-rule="evenodd" d="M19.4864 159.369L36.212 162.894L30.5295 157.298L19.4864 159.369Z" fill="#9F9F9F"/>
</g>
<mask id="mask15_1_15" style="mask-type:luminance" maskUnits="userSpaceOnUse" x="31" y="143" width="8" height="21">
<path d="M35.6999 163.503L38.3558 144.035L31.8714 143.325L35.6999 163.503Z" fill="url(#paint1_linear_1_15)"/>
</mask>
<g mask="url(#mask15_1_15)">
<path fill-rule="evenodd" clip-rule="evenodd" d="M35.6999 163.503L38.3558 144.035L31.8714 143.325L35.6999 163.503Z" fill="#9F9F9F"/>
</g>
<mask id="mask16_1_15" style="mask-type:luminance" maskUnits="userSpaceOnUse" x="31" y="134" width="8" height="10">
<path d="M31.8714 143.08L38.3558 143.791L32.7352 134.961L31.8714 143.08Z" fill="url(#paint2_linear_1_15)"/>
</mask>
<g mask="url(#mask16_1_15)">
<path fill-rule="evenodd" clip-rule="evenodd" d="M31.8714 143.08L38.3558 143.791L32.7352 134.961L31.8714 143.08Z" fill="#9F9F9F"/>
</g>
<mask id="mask17_1_15" style="mask-type:luminance" maskUnits="userSpaceOnUse" x="23" y="130" width="11" height="14">
<path d="M32.2696 143.503L33.1732 135.316L23.2682 130.256L32.2696 143.503Z" fill="url(#paint3_linear_1_15)"/>
</mask>
<g mask="url(#mask17_1_15)">
<path fill-rule="evenodd" clip-rule="evenodd" d="M32.2696 143.503L33.1732 135.316L23.2682 130.256L32.2696 143.503Z" fill="#9F9F9F"/>
</g>
<mask id="mask18_1_15" style="mask-type:luminance" maskUnits="userSpaceOnUse" x="9" y="140" width="15" height="6">
<path d="M9.08628 145.215L15.1666 145.426L23.2255 140.697L9.08628 145.215Z" fill="url(#paint4_linear_1_15)"/>
</mask>
<g mask="url(#mask18_1_15)">
<path fill-rule="evenodd" clip-rule="evenodd" d="M9.08628 145.215L15.1666 145.426L23.2255 140.697L9.08628 145.215Z" fill="#9F9F9F"/>
</g>
<mask id="mask19_1_15" style="mask-type:luminance" maskUnits="userSpaceOnUse" x="9" y="145" width="12" height="13">
<path d="M9.07325 145.017L20.4093 157.258L14.9836 145.23L9.07325 145.016V145.017Z" fill="url(#paint5_linear_1_15)"/>
</mask>
<g mask="url(#mask19_1_15)">
<path fill-rule="evenodd" clip-rule="evenodd" d="M9.07325 145.017L20.4093 157.258L14.9836 145.23L9.07325 145.016V145.017Z" fill="#9F9F9F"/>
</g>
<mask id="mask20_1_15" style="mask-type:luminance" maskUnits="userSpaceOnUse" x="20" y="150" width="7" height="5">
<path d="M20.9174 152.541L26.7036 154.871L24.8238 150.494L20.9174 152.541Z" fill="url(#paint6_linear_1_15)"/>
</mask>
<g mask="url(#mask20_1_15)">
<path fill-rule="evenodd" clip-rule="evenodd" d="M20.9174 152.541L26.7036 154.871L24.8238 150.494L20.9174 152.541Z" fill="#9F9F9F"/>
</g>
<mask id="mask21_1_15" style="mask-type:luminance" maskUnits="userSpaceOnUse" x="24" y="145" width="6" height="10">
<path d="M24.8238 150.208L26.7036 154.858L29.5101 145.622L24.8238 150.208Z" fill="url(#paint7_linear_1_15)"/>
</mask>
<g mask="url(#mask21_1_15)">
<path fill-rule="evenodd" clip-rule="evenodd" d="M24.8238 150.208L26.7036 154.858L29.5101 145.622L24.8238 150.208Z" fill="#9F9F9F"/>
</g>
<mask id="mask22_1_15" style="mask-type:luminance" maskUnits="userSpaceOnUse" x="5" y="130" width="17" height="8">
<path d="M5.23833 133.737L11.5046 137.895L21.3386 130L5.23833 133.737Z" fill="url(#paint8_linear_1_15)"/>
</mask>
<g mask="url(#mask22_1_15)">
<path fill-rule="evenodd" clip-rule="evenodd" d="M5.23833 133.737L11.5046 137.895L21.3386 130L5.23833 133.737Z" fill="#9F9F9F"/>
</g>
<mask id="mask23_1_15" style="mask-type:luminance" maskUnits="userSpaceOnUse" x="5" y="133" width="7" height="13">
<path d="M6.1542 145.194L11.5401 138.099L5.24294 133.941L6.1542 145.194Z" fill="url(#paint9_linear_1_15)"/>
</mask>
<g mask="url(#mask23_1_15)">
<path fill-rule="evenodd" clip-rule="evenodd" d="M6.1542 145.194L11.5401 138.099L5.24294 133.941L6.1542 145.194Z" fill="#9F9F9F"/>
</g>
<mask id="mask24_1_15" style="mask-type:luminance" maskUnits="userSpaceOnUse" x="0" y="133" width="7" height="14">
<path d="M0.0113955 146.229L6.50334 145.371L5.59208 133.945L0.0113955 146.229Z" fill="url(#paint10_linear_1_15)"/>
</mask>
<g mask="url(#mask24_1_15)">
<path fill-rule="evenodd" clip-rule="evenodd" d="M0.0113955 146.229L6.50334 145.371L5.59208 133.945L0.0113955 146.229Z" fill="#9F9F9F"/>
</g>
<mask id="mask25_1_15" style="mask-type:luminance" maskUnits="userSpaceOnUse" x="0" y="144" width="7" height="21">
<path d="M0.0113955 145.859L5.89583 164.809L6.50334 144.997L0.0113955 145.859Z" fill="url(#paint11_linear_1_15)"/>
</mask>
<g mask="url(#mask25_1_15)">
<path fill-rule="evenodd" clip-rule="evenodd" d="M0.0113955 145.859L5.89583 164.809L6.50334 144.997L0.0113955 145.859Z" fill="#9F9F9F"/>
</g>
<mask id="mask26_1_15" style="mask-type:luminance" maskUnits="userSpaceOnUse" x="5" y="144" width="15" height="21">
<path d="M5.72126 164.808V164.809L19.6635 159.662L6.32877 144.997L5.72126 164.808Z" fill="url(#paint12_linear_1_15)"/>
</mask>
<g mask="url(#mask26_1_15)">
<path fill-rule="evenodd" clip-rule="evenodd" d="M5.72126 164.808V164.809L19.6635 159.662L6.32877 144.997L5.72126 164.808Z" fill="#9F9F9F"/>
</g>
<mask id="mask27_1_15" style="mask-type:luminance" maskUnits="userSpaceOnUse" x="5" y="159" width="15" height="12">
<path d="M5.72126 164.41L19.9463 170.251L19.6635 159.18L5.72126 164.41Z" fill="url(#paint13_linear_1_15)"/>
</mask>
<g mask="url(#mask27_1_15)">
<path fill-rule="evenodd" clip-rule="evenodd" d="M5.72126 164.41L19.9463 170.251L19.6635 159.18L5.72126 164.41Z" fill="#9F9F9F"/>
</g>
<mask id="mask28_1_15" style="mask-type:luminance" maskUnits="userSpaceOnUse" x="19" y="159" width="18" height="12">
<path d="M19.4864 159.181L19.7678 170.251L36.212 162.834L19.4874 159.18L19.4864 159.181Z" fill="url(#paint14_linear_1_15)"/>
</mask>
<g mask="url(#mask28_1_15)">
<path fill-rule="evenodd" clip-rule="evenodd" d="M19.4864 159.181L19.7678 170.251L36.212 162.834L19.4874 159.18L19.4864 159.181Z" fill="#9F9F9F"/>
</g>
<mask id="mask29_1_15" style="mask-type:luminance" maskUnits="userSpaceOnUse" x="30" y="143" width="6" height="21">
<path d="M30.06 157.795L35.6119 163.503L31.6853 143.325L30.06 157.795Z" fill="url(#paint15_linear_1_15)"/>
</mask>
<g mask="url(#mask29_1_15)">
<path fill-rule="evenodd" clip-rule="evenodd" d="M30.06 157.795L35.6119 163.503L31.6853 143.325L30.06 157.795Z" fill="#9F9F9F"/>
</g>
<mask id="mask30_1_15" style="mask-type:luminance" maskUnits="userSpaceOnUse" x="23" y="130" width="10" height="14">
<path d="M23.0423 140.809L32.0852 143.502H32.0863L23.0849 130.256L23.0423 140.809Z" fill="url(#paint16_linear_1_15)"/>
</mask>
<g mask="url(#mask30_1_15)">
<path fill-rule="evenodd" clip-rule="evenodd" d="M23.0423 140.809L32.0852 143.502H32.0863L23.0849 130.256L23.0423 140.809Z" fill="#9F9F9F"/>
</g>
<mask id="mask31_1_15" style="mask-type:luminance" maskUnits="userSpaceOnUse" x="9" y="130" width="14" height="16">
<path d="M9.07325 145.206L22.8187 140.631L22.8604 130.243V130.242L9.07325 145.206Z" fill="url(#paint17_linear_1_15)"/>
</mask>
<g mask="url(#mask31_1_15)">
<path fill-rule="evenodd" clip-rule="evenodd" d="M9.07325 145.206L22.8187 140.631L22.8604 130.243V130.242L9.07325 145.206Z" fill="#9F9F9F"/>
</g>
<mask id="mask32_1_15" style="mask-type:luminance" maskUnits="userSpaceOnUse" x="14" y="145" width="8" height="13">
<path d="M20.5727 157.258L21.0954 152.348L14.992 145.23L20.5727 157.258Z" fill="url(#paint18_linear_1_15)"/>
</mask>
<g mask="url(#mask32_1_15)">
<path fill-rule="evenodd" clip-rule="evenodd" d="M20.5727 157.258L21.0954 152.348L14.992 145.23L20.5727 157.258Z" fill="#9F9F9F"/>
</g>
<mask id="mask33_1_15" style="mask-type:luminance" maskUnits="userSpaceOnUse" x="20" y="152" width="8" height="6">
<path d="M20.8356 157.269V157.271L27.3087 154.863L21.3572 152.436L20.8356 157.269Z" fill="url(#paint19_linear_1_15)"/>
</mask>
<g mask="url(#mask33_1_15)">
<path fill-rule="evenodd" clip-rule="evenodd" d="M20.8356 157.269V157.271L27.3087 154.863L21.3572 152.436L20.8356 157.269Z" fill="#9F9F9F"/>
</g>
<mask id="mask34_1_15" style="mask-type:luminance" maskUnits="userSpaceOnUse" x="18" y="145" width="12" height="6">
<path d="M24.8238 150.1L29.5101 145.604L18.7219 145.455L24.8238 150.1Z" fill="url(#paint20_linear_1_15)"/>
</mask>
<g mask="url(#mask34_1_15)">
<path fill-rule="evenodd" clip-rule="evenodd" d="M24.8238 150.1L29.5101 145.604L18.7219 145.455L24.8238 150.1Z" fill="#9F9F9F"/>
</g>
<mask id="mask35_1_15" style="mask-type:luminance" maskUnits="userSpaceOnUse" x="41" y="144" width="7" height="6">
<path d="M41.8099 147.701L44.5165 149.198L47.9971 145.623L42.4677 144.958L41.8099 147.701Z" fill="url(#paint21_linear_1_15)"/>
</mask>
<g mask="url(#mask35_1_15)">
<path fill-rule="evenodd" clip-rule="evenodd" d="M41.8099 147.701L44.5165 149.198L47.9971 145.623L42.4677 144.958L41.8099 147.701Z" fill="#9F9F9F"/>
</g>
<mask id="mask36_1_15" style="mask-type:luminance" maskUnits="userSpaceOnUse" x="39" y="137" width="5" height="5">
<path d="M39.2637 138.476L39.5234 140.28L40.9989 141.401L43.6883 137.584L39.2637 138.476Z" fill="url(#paint22_linear_1_15)"/>
</mask>
<g mask="url(#mask36_1_15)">
<path fill-rule="evenodd" clip-rule="evenodd" d="M39.2637 138.476L39.5234 140.28L40.9989 141.401L43.6883 137.584L39.2637 138.476Z" fill="#9F9F9F"/>
</g>
<mask id="mask37_1_15" style="mask-type:luminance" maskUnits="userSpaceOnUse" x="35" y="133" width="4" height="3">
<path d="M35.8291 135.213L38.3835 133.685L35.2581 133.108L35.8291 135.213Z" fill="url(#paint23_linear_1_15)"/>
</mask>
<g mask="url(#mask37_1_15)">
<path fill-rule="evenodd" clip-rule="evenodd" d="M35.8291 135.213L38.3835 133.685L35.2581 133.108L35.8291 135.213Z" fill="#9F9F9F"/>
</g>
<mask id="mask38_1_15" style="mask-type:luminance" maskUnits="userSpaceOnUse" x="40" y="160" width="4" height="4">
<path d="M40.2614 161.353L40.1206 162.957L41.151 163.381L43.8355 162.235L40.8147 160.154L40.2614 161.353Z" fill="url(#paint24_linear_1_15)"/>
</mask>
<g mask="url(#mask38_1_15)">
<path fill-rule="evenodd" clip-rule="evenodd" d="M40.2614 161.353L40.1206 162.957L41.151 163.381L43.8355 162.235L40.8147 160.154L40.2614 161.353Z" fill="#9F9F9F"/>
</g>
<mask id="mask39_1_15" style="mask-type:luminance" maskUnits="userSpaceOnUse" x="40" y="152" width="5" height="5">
<path d="M40.4139 156.107L42.7884 156.286L44.8492 154.367L40.9701 152.365L40.4139 156.107Z" fill="url(#paint25_linear_1_15)"/>
</mask>
<g mask="url(#mask39_1_15)">
<path fill-rule="evenodd" clip-rule="evenodd" d="M40.4139 156.107L42.7884 156.286L44.8492 154.367L40.9701 152.365L40.4139 156.107Z" fill="#9F9F9F"/>
</g>
<path fill-rule="evenodd" clip-rule="evenodd" d="M296.36 131.247V131.539H295.598V133.691H295.289V131.539H294.527V131.247H296.36Z" fill="#9F9F9F"/>
<path fill-rule="evenodd" clip-rule="evenodd" d="M296.572 131.462H297.048L297.753 133.527L298.453 131.462H298.926V133.903H298.608V132.463C298.608 132.413 298.608 132.331 298.612 132.215C298.614 132.1 298.615 131.976 298.615 131.844L297.915 133.903H297.585L296.88 131.844V131.919C296.88 131.98 296.882 132.071 296.885 132.192C296.888 132.315 296.89 132.404 296.89 132.463V133.903H296.572V131.462Z" fill="#9F9F9F"/>
<path fill-rule="evenodd" clip-rule="evenodd" d="M60.6883 165.459C60.64 165.664 60.5567 165.845 60.4374 166.002C60.3191 166.159 60.1617 166.279 59.9683 166.366C59.7739 166.452 59.5311 166.495 59.239 166.495H57.6034V163.224H59.2236C59.7739 163.224 60.1679 163.369 60.4055 163.661C60.6421 163.953 60.7614 164.336 60.7614 164.811C60.7614 165.038 60.7367 165.254 60.6883 165.459ZM57.6034 158.696H59.061C59.6011 158.696 59.992 158.825 60.2347 159.082C60.4775 159.34 60.5999 159.695 60.5999 160.147C60.5999 160.586 60.4775 160.944 60.2347 161.217C59.992 161.492 59.6062 161.629 59.0775 161.629H57.6034V158.696ZM62.2097 163.387C62.0863 163.159 61.9268 162.963 61.7324 162.797C61.538 162.63 61.3066 162.504 61.036 162.418V162.337C61.5545 162.102 61.9135 161.784 62.113 161.387C62.3126 160.99 62.4124 160.554 62.4124 160.082C62.4124 159.137 62.1459 158.389 61.611 157.843C61.0772 157.294 60.2759 157.019 59.2071 157.019H55.7591V168.236H59.3851C60.3561 168.236 61.1307 167.952 61.7088 167.382C62.2858 166.812 62.5738 165.991 62.5738 164.916C62.5738 164.648 62.545 164.382 62.4854 164.118C62.4257 163.857 62.3342 163.611 62.2097 163.387Z" fill="#9F9F9F"/>
<path fill-rule="evenodd" clip-rule="evenodd" d="M66.0712 164.175L66.6534 161.919L67.1883 159.567H67.2696C67.2799 159.663 67.3128 159.822 67.3663 160.042C67.4208 160.262 67.4774 160.494 67.536 160.741C67.5957 160.99 67.6502 161.226 67.6985 161.452C67.7469 161.678 67.7819 161.839 67.8035 161.935L68.3702 164.175H66.0712ZM66.3294 157.021L63.0758 168.236H65.0025C65.0354 168.139 65.0807 167.978 65.1403 167.752C65.1989 167.526 65.2638 167.286 65.3347 167.028C65.4047 166.768 65.4715 166.528 65.5363 166.303C65.6011 166.075 65.6443 165.915 65.6659 165.817H68.791L69.4226 168.236H71.3811L68.111 157.021H66.3294Z" fill="#9F9F9F"/>
<path fill-rule="evenodd" clip-rule="evenodd" d="M73.9718 159.76C74.0366 159.566 74.1343 159.392 74.264 159.235C74.3925 159.08 74.5571 158.954 74.7577 158.858C74.9573 158.76 75.1969 158.712 75.4777 158.712C75.7154 158.712 75.9252 158.75 76.1093 158.825C76.2924 158.901 76.4488 159 76.5784 159.123C76.708 159.247 76.8109 159.384 76.886 159.534C76.9621 159.685 77.0156 159.841 77.0485 160L78.8126 159.421C78.6295 158.712 78.2541 158.121 77.6873 157.648C77.1215 157.177 76.384 156.94 75.4777 156.94C74.8842 156.94 74.3709 157.036 73.9399 157.229C73.5079 157.423 73.1489 157.681 72.8629 158.002C72.577 158.325 72.364 158.696 72.2231 159.116C72.0832 159.534 72.0133 159.963 72.0133 160.404V164.755C72.0133 165.261 72.0832 165.731 72.2231 166.165C72.364 166.6 72.579 166.979 72.8712 167.3C73.1623 167.624 73.5233 167.876 73.9554 168.057C74.3874 168.24 74.8945 168.332 75.4777 168.332C76.3192 168.332 77.0372 168.115 77.6307 167.679C78.2242 167.245 78.6131 166.635 78.7961 165.85L77.032 165.285C76.9559 165.685 76.778 165.996 76.4982 166.222C76.2173 166.446 75.8769 166.56 75.4777 166.56C75.2082 166.56 74.9727 166.514 74.7731 166.423C74.5736 166.332 74.4059 166.206 74.2722 166.044C74.1364 165.882 74.0366 165.695 73.9718 165.48C73.907 165.265 73.8751 165.039 73.8751 164.803V160.338C73.8751 160.146 73.907 159.952 73.9718 159.76Z" fill="#9F9F9F"/>
<path fill-rule="evenodd" clip-rule="evenodd" d="M84.2849 161.5L87.2957 157.02H85.1757L81.8727 162.097H81.8233V157.02H79.978V168.235H81.8233V165.158C82.0394 164.848 82.2554 164.527 82.4714 164.198C82.6874 163.871 82.9034 163.546 83.1194 163.225C83.5288 164.061 83.9372 164.898 84.3415 165.73C84.7457 166.562 85.1531 167.398 85.5635 168.235H87.6362C87.0746 167.109 86.514 165.987 85.9523 164.875C85.3907 163.763 84.8352 162.638 84.2849 161.5Z" fill="#9F9F9F"/>
<path fill-rule="evenodd" clip-rule="evenodd" d="M93.3272 161.72C93.0628 162.035 92.6555 162.193 92.1051 162.193H90.5498V158.728H92.0887C92.639 158.728 93.0484 158.875 93.3189 159.169C93.5884 159.463 93.7232 159.888 93.7232 160.444C93.7232 160.979 93.5915 161.404 93.3272 161.72ZM95.5531 160.484C95.5531 159.894 95.4719 159.38 95.3104 158.946C95.1489 158.511 94.9164 158.15 94.614 157.866C94.3116 157.581 93.9505 157.369 93.5298 157.229C93.1081 157.091 92.6339 157.02 92.1051 157.02H88.7044V168.235H90.5498V163.933H92.2018C92.7624 163.933 93.2541 163.844 93.6748 163.667C94.0966 163.49 94.4443 163.246 94.7199 162.935C94.9946 162.623 95.2024 162.257 95.3423 161.838C95.4832 161.42 95.5531 160.968 95.5531 160.484Z" fill="#9F9F9F"/>
<path fill-rule="evenodd" clip-rule="evenodd" d="M97.8526 164.175L98.4348 161.919L98.9697 159.567H99.0509C99.0612 159.663 99.0941 159.822 99.1476 160.042C99.2021 160.262 99.2587 160.494 99.3174 160.741C99.377 160.99 99.4315 161.226 99.4799 161.452C99.5282 161.678 99.5632 161.839 99.5848 161.935L100.152 164.175H97.8526ZM98.1108 157.021L94.8572 168.236H96.7838C96.8167 168.139 96.862 167.978 96.9216 167.752C96.9803 167.526 97.0451 167.286 97.1161 167.028C97.186 166.768 97.2529 166.528 97.3177 166.303C97.3825 166.075 97.4257 165.915 97.4473 165.817H100.572L101.204 168.236H103.162L99.8924 157.021H98.1108Z" fill="#9F9F9F"/>
<path fill-rule="evenodd" clip-rule="evenodd" d="M105.753 159.76C105.818 159.566 105.915 159.392 106.045 159.235C106.173 159.08 106.338 158.954 106.539 158.858C106.738 158.76 106.978 158.712 107.259 158.712C107.496 158.712 107.706 158.75 107.89 158.825C108.073 158.901 108.23 159 108.359 159.123C108.489 159.247 108.592 159.384 108.667 159.534C108.743 159.685 108.797 159.841 108.829 160L110.594 159.421C110.41 158.712 110.035 158.121 109.468 157.648C108.902 157.177 108.165 156.94 107.259 156.94C106.665 156.94 106.152 157.036 105.721 157.229C105.289 157.423 104.93 157.681 104.644 158.002C104.358 158.325 104.145 158.696 104.004 159.116C103.864 159.534 103.794 159.963 103.794 160.404V164.755C103.794 165.261 103.864 165.731 104.004 166.165C104.145 166.6 104.36 166.979 104.652 167.3C104.943 167.624 105.304 167.876 105.736 168.057C106.168 168.24 106.675 168.332 107.259 168.332C108.1 168.332 108.818 168.115 109.412 167.679C110.005 167.245 110.394 166.635 110.577 165.85L108.813 165.285C108.737 165.685 108.559 165.996 108.279 166.222C107.998 166.446 107.658 166.56 107.259 166.56C106.989 166.56 106.754 166.514 106.554 166.423C106.355 166.332 106.187 166.206 106.053 166.044C105.917 165.882 105.818 165.695 105.753 165.48C105.688 165.265 105.656 165.039 105.656 164.803V160.338C105.656 160.146 105.688 159.952 105.753 159.76Z" fill="#9F9F9F"/>
<path fill-rule="evenodd" clip-rule="evenodd" d="M116.066 161.5L119.077 157.02H116.957L113.654 162.097H113.605V157.02H111.759V168.235H113.605V165.158C113.821 164.848 114.037 164.527 114.253 164.198C114.469 163.871 114.685 163.546 114.901 163.225C115.31 164.061 115.719 164.898 116.123 165.73C116.527 166.562 116.934 167.398 117.345 168.235H119.418C118.856 167.109 118.295 165.987 117.734 164.875C117.172 163.763 116.617 162.638 116.066 161.5Z" fill="#9F9F9F"/>
<path fill-rule="evenodd" clip-rule="evenodd" d="M120.421 168.236H126.687V166.495H122.267V163.401H126.072V161.726H122.267V158.728H126.687V157.019H120.421V168.236Z" fill="#9F9F9F"/>
<path fill-rule="evenodd" clip-rule="evenodd" d="M132.458 161.484C132.172 161.763 131.787 161.902 131.301 161.902H129.681V158.696H131.316C131.824 158.696 132.212 158.822 132.482 159.074C132.752 159.328 132.887 159.716 132.887 160.243C132.887 160.79 132.744 161.205 132.458 161.484ZM134.247 162.08C134.549 161.564 134.701 160.951 134.701 160.243C134.701 159.706 134.619 159.235 134.457 158.833C134.295 158.432 134.071 158.094 133.786 157.825C133.499 157.557 133.157 157.355 132.758 157.221C132.358 157.087 131.926 157.02 131.463 157.02H127.836V168.236H129.681V163.562H131.122L132.806 168.236H134.83L132.904 163.256C133.497 162.988 133.945 162.595 134.247 162.08Z" fill="#9F9F9F"/>
<path fill-rule="evenodd" clip-rule="evenodd" d="M144.625 161.726H141.451V157.019H139.59V168.235H141.451V163.386H144.625V168.235H146.47V157.019H144.625V161.726Z" fill="#9F9F9F"/>
<path fill-rule="evenodd" clip-rule="evenodd" d="M152.995 164.993C152.995 165.489 152.842 165.879 152.533 166.165C152.226 166.449 151.86 166.592 151.441 166.592C150.847 166.592 150.425 166.409 150.178 166.042C149.93 165.677 149.804 165.226 149.804 164.687L149.79 160.391C149.79 160.219 149.816 160.037 149.87 159.842C149.924 159.649 150.013 159.468 150.137 159.302C150.262 159.135 150.429 158.995 150.639 158.882C150.85 158.768 151.112 158.712 151.424 158.712C151.737 158.712 151.994 158.774 152.194 158.897C152.393 159.021 152.553 159.171 152.671 159.341C152.79 159.513 152.874 159.695 152.922 159.883C152.971 160.07 152.995 160.236 152.995 160.376V164.993ZM154.039 158.043C153.753 157.717 153.394 157.449 152.963 157.247C152.531 157.041 152.018 156.94 151.424 156.94C150.788 156.94 150.251 157.047 149.813 157.262C149.375 157.477 149.02 157.75 148.746 158.083C148.47 158.417 148.27 158.787 148.146 159.195C148.023 159.604 147.96 160.006 147.96 160.405V164.642C147.96 165.136 148.025 165.607 148.154 166.052C148.284 166.498 148.486 166.891 148.761 167.229C149.037 167.567 149.395 167.835 149.838 168.034C150.28 168.233 150.809 168.332 151.424 168.332C151.931 168.332 152.395 168.253 152.817 168.09C153.238 167.929 153.602 167.696 153.909 167.39C154.216 167.084 154.455 166.716 154.622 166.286C154.79 165.856 154.873 165.373 154.873 164.835V160.405C154.873 159.984 154.805 159.569 154.671 159.155C154.536 158.743 154.325 158.371 154.039 158.043Z" fill="#9F9F9F"/>
<path fill-rule="evenodd" clip-rule="evenodd" d="M162.434 163.014C162.218 162.746 161.935 162.506 161.584 162.298C161.233 162.088 160.793 161.902 160.264 161.742C159.95 161.644 159.654 161.545 159.373 161.443C159.093 161.341 158.85 161.226 158.645 161.097C158.44 160.968 158.278 160.82 158.16 160.653C158.04 160.487 157.982 160.291 157.982 160.066C157.982 159.668 158.111 159.338 158.37 159.075C158.629 158.812 159.002 158.68 159.488 158.68C159.897 158.68 160.259 158.76 160.571 158.921C160.884 159.083 161.165 159.335 161.414 159.679L162.822 158.502C162.509 158.019 162.091 157.638 161.567 157.36C161.043 157.079 160.361 156.939 159.519 156.939C159.002 156.939 158.534 157.019 158.119 157.173C157.703 157.33 157.345 157.55 157.042 157.835C156.74 158.12 156.509 158.459 156.346 158.853C156.185 159.245 156.103 159.672 156.103 160.135C156.103 160.556 156.156 160.929 156.265 161.257C156.372 161.585 156.549 161.876 156.792 162.129C157.034 162.382 157.345 162.606 157.722 162.799C158.1 162.993 158.558 163.175 159.099 163.347C159.39 163.433 159.659 163.525 159.908 163.621C160.156 163.719 160.367 163.834 160.54 163.971C160.712 164.103 160.847 164.262 160.944 164.445C161.041 164.628 161.09 164.849 161.09 165.107C161.09 165.527 160.969 165.879 160.726 166.164C160.483 166.449 160.065 166.592 159.471 166.592C158.974 166.592 158.554 166.476 158.208 166.246C157.862 166.014 157.566 165.705 157.317 165.319L155.796 166.414C156.13 166.98 156.594 167.44 157.188 167.798C157.782 168.155 158.532 168.332 159.438 168.332C160.583 168.332 161.468 168.039 162.093 167.454C162.72 166.87 163.033 166.065 163.033 165.045C163.033 164.626 162.987 164.25 162.895 163.916C162.803 163.584 162.65 163.284 162.434 163.014Z" fill="#9F9F9F"/>
<path fill-rule="evenodd" clip-rule="evenodd" d="M163.745 158.696H166.222V168.235H168.068V158.696H170.561V157.019H163.745V158.696Z" fill="#9F9F9F"/>
<path fill-rule="evenodd" clip-rule="evenodd" d="M171.694 168.236H177.961V166.495H173.54V163.401H177.345V161.726H173.54V158.728H177.961V157.019H171.694V168.236Z" fill="#9F9F9F"/>
<path fill-rule="evenodd" clip-rule="evenodd" d="M180.954 157.02H179.109V168.236H185.309V166.496H180.954V157.02Z" fill="#9F9F9F"/>
<path fill-rule="evenodd" clip-rule="evenodd" d="M193.332 163.917C193.24 163.584 193.087 163.283 192.871 163.014C192.655 162.745 192.371 162.507 192.021 162.298C191.671 162.089 191.23 161.902 190.701 161.742C190.389 161.644 190.093 161.546 189.811 161.444C189.531 161.34 189.286 161.227 189.083 161.098C188.877 160.968 188.716 160.821 188.596 160.653C188.478 160.486 188.419 160.292 188.419 160.065C188.419 159.669 188.549 159.338 188.808 159.076C189.067 158.812 189.44 158.68 189.924 158.68C190.333 158.68 190.696 158.76 191.008 158.922C191.322 159.082 191.602 159.335 191.852 159.679L193.26 158.503C192.946 158.019 192.529 157.637 192.004 157.359C191.48 157.078 190.798 156.94 189.957 156.94C189.44 156.94 188.973 157.018 188.556 157.174C188.14 157.329 187.781 157.55 187.48 157.836C187.178 158.121 186.945 158.459 186.784 158.852C186.622 159.245 186.54 159.672 186.54 160.136C186.54 160.555 186.594 160.93 186.703 161.256C186.81 161.586 186.985 161.877 187.228 162.13C187.472 162.381 187.781 162.606 188.16 162.798C188.537 162.993 188.995 163.175 189.536 163.347C189.827 163.433 190.096 163.525 190.346 163.622C190.594 163.72 190.804 163.835 190.976 163.969C191.149 164.104 191.285 164.262 191.382 164.446C191.478 164.628 191.527 164.848 191.527 165.108C191.527 165.526 191.406 165.88 191.164 166.164C190.92 166.45 190.501 166.591 189.909 166.591C189.411 166.591 188.99 166.477 188.644 166.244C188.299 166.015 188.003 165.706 187.755 165.319L186.233 166.414C186.568 166.98 187.032 167.44 187.625 167.799C188.219 168.155 188.969 168.332 189.877 168.332C191.021 168.332 191.904 168.039 192.532 167.455C193.156 166.869 193.471 166.066 193.471 165.045C193.471 164.626 193.425 164.25 193.332 163.917Z" fill="#9F9F9F"/>
</g>
<defs>
<linearGradient id="paint0_linear_1_15" x1="776.78" y1="440.563" x2="1342.47" y2="218.222" gradientUnits="userSpaceOnUse">
<stop stop-color="#DF4D11"/>
<stop offset="1" stop-color="#CD4217"/>
</linearGradient>
<linearGradient id="paint1_linear_1_15" x1="350.14" y1="708.911" x2="553.8" y2="2274.43" gradientUnits="userSpaceOnUse">
<stop stop-color="#EB752F"/>
<stop offset="1" stop-color="#F6AA3D"/>
</linearGradient>
<linearGradient id="paint2_linear_1_15" x1="336.303" y1="478.507" x2="585.042" y2="1142.04" gradientUnits="userSpaceOnUse">
<stop stop-color="#EB752F"/>
<stop offset="1" stop-color="#F6AA3D"/>
</linearGradient>
<linearGradient id="paint3_linear_1_15" x1="524.937" y1="1309.38" x2="495.906" y2="6.61797" gradientUnits="userSpaceOnUse">
<stop stop-color="#EB752F"/>
<stop offset="1" stop-color="#F6AA3D"/>
</linearGradient>
<linearGradient id="paint4_linear_1_15" x1="196.012" y1="398.779" x2="957.34" y2="115.76" gradientUnits="userSpaceOnUse">
<stop stop-color="#DF4D11"/>
<stop offset="1" stop-color="#CD4217"/>
</linearGradient>
<linearGradient id="paint5_linear_1_15" x1="203.428" y1="295.128" x2="681.611" y2="803.768" gradientUnits="userSpaceOnUse">
<stop stop-color="#DF4D11"/>
<stop offset="1" stop-color="#CD4217"/>
</linearGradient>
<linearGradient id="paint6_linear_1_15" x1="441.194" y1="266.561" x2="236.067" y2="547.873" gradientUnits="userSpaceOnUse">
<stop stop-color="#EB752F"/>
<stop offset="1" stop-color="#F6AA3D"/>
</linearGradient>
<linearGradient id="paint7_linear_1_15" x1="311.619" y1="560.73" x2="194.268" y2="587.604" gradientUnits="userSpaceOnUse">
<stop stop-color="#EB752F"/>
<stop offset="1" stop-color="#F6AA3D"/>
</linearGradient>
<linearGradient id="paint8_linear_1_15" x1="528.818" y1="554.721" x2="1520.18" y2="115.851" gradientUnits="userSpaceOnUse">
<stop stop-color="#CD4217"/>
<stop offset="1" stop-color="#DF4D11"/>
</linearGradient>
<linearGradient id="paint9_linear_1_15" x1="289.423" y1="1020.3" x2="483.91" y2="377.415" gradientUnits="userSpaceOnUse">
<stop stop-color="#DF4D11"/>
<stop offset="1" stop-color="#CD4217"/>
</linearGradient>
<linearGradient id="paint10_linear_1_15" x1="344.124" y1="462.893" x2="123.592" y2="1362.74" gradientUnits="userSpaceOnUse">
<stop stop-color="#EB752F"/>
<stop offset="1" stop-color="#F6AA3D"/>
</linearGradient>
<linearGradient id="paint11_linear_1_15" x1="343.259" y1="1411.57" x2="-98.7879" y2="709.376" gradientUnits="userSpaceOnUse">
<stop stop-color="#EB752F"/>
<stop offset="1" stop-color="#F6AA3D"/>
</linearGradient>
<linearGradient id="paint12_linear_1_15" x1="838.649" y1="1705.9" x2="408.516" y2="811.521" gradientUnits="userSpaceOnUse">
<stop stop-color="#EB752F"/>
<stop offset="1" stop-color="#F6AA3D"/>
</linearGradient>
<linearGradient id="paint13_linear_1_15" x1="970.442" y1="962.112" x2="463.226" y2="138.323" gradientUnits="userSpaceOnUse">
<stop stop-color="#EB752F"/>
<stop offset="1" stop-color="#F6AA3D"/>
</linearGradient>
<linearGradient id="paint14_linear_1_15" x1="488.027" y1="442.1" x2="677.99" y2="761.226" gradientUnits="userSpaceOnUse">
<stop stop-color="#EB752F"/>
<stop offset="1" stop-color="#F6AA3D"/>
</linearGradient>
<linearGradient id="paint15_linear_1_15" x1="314.104" y1="1741.86" x2="148.244" y2="593.247" gradientUnits="userSpaceOnUse">
<stop stop-color="#DF4D11"/>
<stop offset="1" stop-color="#CD4217"/>
</linearGradient>
<linearGradient id="paint16_linear_1_15" x1="244.339" y1="1147.84" x2="672.828" y2="840.574" gradientUnits="userSpaceOnUse">
<stop stop-color="#EB752F"/>
<stop offset="1" stop-color="#F6AA3D"/>
</linearGradient>
<linearGradient id="paint17_linear_1_15" x1="1130.53" y1="521.663" x2="407.956" y2="1028.16" gradientUnits="userSpaceOnUse">
<stop stop-color="#EB752F"/>
<stop offset="1" stop-color="#F6AA3D"/>
</linearGradient>
<linearGradient id="paint18_linear_1_15" x1="370.442" y1="980.696" x2="-36.7856" y2="492.558" gradientUnits="userSpaceOnUse">
<stop stop-color="#EB752F"/>
<stop offset="1" stop-color="#F6AA3D"/>
</linearGradient>
<linearGradient id="paint19_linear_1_15" x1="587.699" y1="381.336" x2="-354.017" y2="470.47" gradientUnits="userSpaceOnUse">
<stop stop-color="#EB752F"/>
<stop offset="1" stop-color="#F6AA3D"/>
</linearGradient>
<linearGradient id="paint20_linear_1_15" x1="337.5" y1="361.222" x2="829.565" y2="559.327" gradientUnits="userSpaceOnUse">
<stop stop-color="#DF4D11"/>
<stop offset="1" stop-color="#CD4217"/>
</linearGradient>
<linearGradient id="paint21_linear_1_15" x1="649.897" y1="365.579" x2="48.3522" y2="328.423" gradientUnits="userSpaceOnUse">
<stop stop-color="#EB752F"/>
<stop offset="1" stop-color="#F6AA3D"/>
</linearGradient>
<linearGradient id="paint22_linear_1_15" x1="308.389" y1="446.91" x2="235.008" y2="203.185" gradientUnits="userSpaceOnUse">
<stop stop-color="#DF4D11"/>
<stop offset="1" stop-color="#CD4217"/>
</linearGradient>
<linearGradient id="paint23_linear_1_15" x1="331.912" y1="204.579" x2="100.407" y2="327.324" gradientUnits="userSpaceOnUse">
<stop stop-color="#DF4D11"/>
<stop offset="1" stop-color="#CD4217"/>
</linearGradient>
<linearGradient id="paint24_linear_1_15" x1="513.394" y1="187.43" x2="-190.201" y2="622.346" gradientUnits="userSpaceOnUse">
<stop stop-color="#DF4D11"/>
<stop offset="1" stop-color="#CD4217"/>
</linearGradient>
<linearGradient id="paint25_linear_1_15" x1="429.769" y1="275.491" x2="38.5133" y2="493.308" gradientUnits="userSpaceOnUse">
<stop stop-color="#EB752F"/>
<stop offset="1" stop-color="#F6AA3D"/>
</linearGradient>
<clipPath id="clip0_1_15">
<rect width="300" height="40.9091" fill="white" transform="translate(0 130)"/>
</clipPath>
</defs>
</svg>
